%FSLAX45Y45*%
G04 Gerber Fmt 4.5, Leading zero omitted, Abs format (unit mm)*
G04 Created by KiCad (PCBNEW (5.1.9)-1) date 2021-07-31 16:05:13*
%MOMM*%
%LPD*%
G01*
G04 APERTURE LIST*
%TA.AperFunction,Profile*%
%ADD10C,0.050000*%
%TD*%
%ADD11C,0.200000*%
%ADD12C,0.300000*%
G04 APERTURE END LIST*
D10*
X13875512Y-10427208D02*
X13880592Y-10427208D01*
X13875512Y-10211308D02*
X13875512Y-10427208D01*
X13871448Y-3978148D02*
X13875512Y-10211308D01*
X16150336Y-3978656D02*
X13871448Y-3978148D01*
X16148304Y-10426700D02*
X16150336Y-3978656D01*
X13880592Y-10427208D02*
X16148304Y-10426700D01*
D11*
D12*
X14155376Y-10895422D02*
X14155376Y-10595422D01*
X14226805Y-10595422D01*
X14269662Y-10609708D01*
X14298234Y-10638280D01*
X14312519Y-10666851D01*
X14326805Y-10723994D01*
X14326805Y-10766851D01*
X14312519Y-10823994D01*
X14298234Y-10852565D01*
X14269662Y-10881137D01*
X14226805Y-10895422D01*
X14155376Y-10895422D01*
X14455376Y-10895422D02*
X14455376Y-10695422D01*
X14455376Y-10752565D02*
X14469662Y-10723994D01*
X14483948Y-10709708D01*
X14512519Y-10695422D01*
X14541091Y-10695422D01*
X14641091Y-10895422D02*
X14641091Y-10695422D01*
X14641091Y-10595422D02*
X14626805Y-10609708D01*
X14641091Y-10623994D01*
X14655376Y-10609708D01*
X14641091Y-10595422D01*
X14641091Y-10623994D01*
X14826805Y-10895422D02*
X14798234Y-10881137D01*
X14783948Y-10852565D01*
X14783948Y-10595422D01*
X14983948Y-10895422D02*
X14955376Y-10881137D01*
X14941091Y-10852565D01*
X14941091Y-10595422D01*
X15326805Y-10895422D02*
X15326805Y-10595422D01*
X15426805Y-10809708D01*
X15526805Y-10595422D01*
X15526805Y-10895422D01*
X15798234Y-10895422D02*
X15798234Y-10738280D01*
X15783948Y-10709708D01*
X15755376Y-10695422D01*
X15698234Y-10695422D01*
X15669662Y-10709708D01*
X15798234Y-10881137D02*
X15769662Y-10895422D01*
X15698234Y-10895422D01*
X15669662Y-10881137D01*
X15655376Y-10852565D01*
X15655376Y-10823994D01*
X15669662Y-10795422D01*
X15698234Y-10781137D01*
X15769662Y-10781137D01*
X15798234Y-10766851D01*
X15941091Y-10695422D02*
X15941091Y-10995422D01*
X15941091Y-10709708D02*
X15969662Y-10695422D01*
X16026805Y-10695422D01*
X16055376Y-10709708D01*
X16069662Y-10723994D01*
X16083948Y-10752565D01*
X16083948Y-10838280D01*
X16069662Y-10866851D01*
X16055376Y-10881137D01*
X16026805Y-10895422D01*
X15969662Y-10895422D01*
X15941091Y-10881137D01*
X16212519Y-10866851D02*
X16226805Y-10881137D01*
X16212519Y-10895422D01*
X16198234Y-10881137D01*
X16212519Y-10866851D01*
X16212519Y-10895422D01*
X16212519Y-10709708D02*
X16226805Y-10723994D01*
X16212519Y-10738280D01*
X16198234Y-10723994D01*
X16212519Y-10709708D01*
X16212519Y-10738280D01*
M02*
