M48
; DRILL file {KiCad (5.1.9)-1} date 07/31/21 16:05:13
; FORMAT={-:-/ absolute / inch / decimal}
; #@! TF.CreationDate,2021-07-31T16:05:13-05:00
; #@! TF.GenerationSoftware,Kicad,Pcbnew,(5.1.9)-1
; #@! TF.FileFunction,Plated,1,2,PTH
FMAT,2
INCH
T1C0.0394
%
G90
G05
T1
X5.5198Y-1.6244
X5.5198Y-1.7244
X5.5198Y-1.8244
X5.5198Y-1.9244
X5.5198Y-2.0244
X5.5198Y-2.1244
X5.5198Y-2.2244
X5.5198Y-2.3244
X5.5198Y-2.4244
X5.5198Y-2.5244
X5.5198Y-2.6244
X5.5198Y-2.7244
X5.5198Y-2.8244
X5.5198Y-2.9244
X5.5198Y-3.0244
X5.5198Y-3.1244
X5.5198Y-3.2244
X5.5198Y-3.3244
X5.5198Y-3.4244
X5.5198Y-3.5244
X5.5198Y-3.6244
X5.5198Y-3.7244
X5.5198Y-3.8244
X5.5198Y-3.9244
X5.5198Y-4.0244
X5.6198Y-1.6244
X5.6198Y-1.7244
X5.6198Y-1.8244
X5.6198Y-1.9244
X5.6198Y-2.0244
X5.6198Y-2.1244
X5.6198Y-2.2244
X5.6198Y-2.3244
X5.6198Y-2.4244
X5.6198Y-2.5244
X5.6198Y-2.6244
X5.6198Y-2.7244
X5.6198Y-2.8244
X5.6198Y-2.9244
X5.6198Y-3.0244
X5.6198Y-3.1244
X5.6198Y-3.2244
X5.6198Y-3.3244
X5.6198Y-3.4244
X5.6198Y-3.5244
X5.6198Y-3.6244
X5.6198Y-3.7244
X5.6198Y-3.8244
X5.6198Y-3.9244
X5.6198Y-4.0244
X5.7614Y-4.0244
X5.8614Y-4.0244
X5.9614Y-4.0244
X6.0614Y-4.0244
X6.2026Y-1.6244
X6.2026Y-1.7244
X6.2026Y-1.8244
X6.2026Y-1.9244
X6.2026Y-2.0244
X6.2026Y-2.1244
X6.2026Y-2.2244
X6.2026Y-2.3244
X6.2026Y-2.4244
X6.2026Y-2.5244
X6.2026Y-2.6244
X6.2026Y-2.7244
X6.2026Y-2.8244
X6.2026Y-2.9244
X6.2026Y-3.0244
X6.2026Y-3.1244
X6.2026Y-3.2244
X6.2026Y-3.3244
X6.2026Y-3.4244
X6.2026Y-3.5244
X6.2026Y-3.6244
X6.2026Y-3.7244
X6.2026Y-3.8244
X6.2026Y-3.9244
X6.2026Y-4.0244
X6.3026Y-1.6244
X6.3026Y-1.7244
X6.3026Y-1.8244
X6.3026Y-1.9244
X6.3026Y-2.0244
X6.3026Y-2.1244
X6.3026Y-2.2244
X6.3026Y-2.3244
X6.3026Y-2.4244
X6.3026Y-2.5244
X6.3026Y-2.6244
X6.3026Y-2.7244
X6.3026Y-2.8244
X6.3026Y-2.9244
X6.3026Y-3.0244
X6.3026Y-3.1244
X6.3026Y-3.2244
X6.3026Y-3.3244
X6.3026Y-3.4244
X6.3026Y-3.5244
X6.3026Y-3.6244
X6.3026Y-3.7244
X6.3026Y-3.8244
X6.3026Y-3.9244
X6.3026Y-4.0244
T0
M30
