%TF.GenerationSoftware,KiCad,Pcbnew,(5.1.9)-1*%
%TF.CreationDate,2021-07-31T16:05:11-05:00*%
%TF.ProjectId,SCSI Interface Card,53435349-2049-46e7-9465-726661636520,rev?*%
%TF.SameCoordinates,Original*%
%TF.FileFunction,Copper,L2,Bot*%
%TF.FilePolarity,Positive*%
%FSLAX46Y46*%
G04 Gerber Fmt 4.6, Leading zero omitted, Abs format (unit mm)*
G04 Created by KiCad (PCBNEW (5.1.9)-1) date 2021-07-31 16:05:11*
%MOMM*%
%LPD*%
G01*
G04 APERTURE LIST*
%TA.AperFunction,ComponentPad*%
%ADD10O,1.700000X1.700000*%
%TD*%
%TA.AperFunction,ComponentPad*%
%ADD11R,1.700000X1.700000*%
%TD*%
%TA.AperFunction,Conductor*%
%ADD12C,0.400000*%
%TD*%
%TA.AperFunction,Conductor*%
%ADD13C,1.000000*%
%TD*%
%TA.AperFunction,Conductor*%
%ADD14C,0.254000*%
%TD*%
%TA.AperFunction,Conductor*%
%ADD15C,0.100000*%
%TD*%
G04 APERTURE END LIST*
D10*
%TO.P,SCSI1,50*%
%TO.N,/IO*%
X157546040Y-41259760D03*
%TO.P,SCSI1,49*%
%TO.N,GND*%
X160086040Y-41259760D03*
%TO.P,SCSI1,48*%
%TO.N,/REQ*%
X157546040Y-43799760D03*
%TO.P,SCSI1,47*%
%TO.N,GND*%
X160086040Y-43799760D03*
%TO.P,SCSI1,46*%
%TO.N,/CD*%
X157546040Y-46339760D03*
%TO.P,SCSI1,45*%
%TO.N,GND*%
X160086040Y-46339760D03*
%TO.P,SCSI1,44*%
%TO.N,/SEL*%
X157546040Y-48879760D03*
%TO.P,SCSI1,43*%
%TO.N,GND*%
X160086040Y-48879760D03*
%TO.P,SCSI1,42*%
X157546040Y-51419760D03*
%TO.P,SCSI1,41*%
X160086040Y-51419760D03*
%TO.P,SCSI1,40*%
%TO.N,/RST*%
X157546040Y-53959760D03*
%TO.P,SCSI1,39*%
%TO.N,GND*%
X160086040Y-53959760D03*
%TO.P,SCSI1,38*%
%TO.N,/ACK*%
X157546040Y-56499760D03*
%TO.P,SCSI1,37*%
%TO.N,GND*%
X160086040Y-56499760D03*
%TO.P,SCSI1,36*%
%TO.N,/BSY*%
X157546040Y-59039760D03*
%TO.P,SCSI1,35*%
%TO.N,GND*%
X160086040Y-59039760D03*
%TO.P,SCSI1,34*%
X157546040Y-61579760D03*
%TO.P,SCSI1,33*%
X160086040Y-61579760D03*
%TO.P,SCSI1,32*%
%TO.N,/ATN*%
X157546040Y-64119760D03*
%TO.P,SCSI1,31*%
%TO.N,GND*%
X160086040Y-64119760D03*
%TO.P,SCSI1,30*%
X157546040Y-66659760D03*
%TO.P,SCSI1,29*%
X160086040Y-66659760D03*
%TO.P,SCSI1,28*%
X157546040Y-69199760D03*
%TO.P,SCSI1,27*%
X160086040Y-69199760D03*
%TO.P,SCSI1,26*%
%TO.N,/TRM_1*%
X157546040Y-71739760D03*
%TO.P,SCSI1,25*%
%TO.N,Net-(SCSI1-Pad25)*%
X160086040Y-71739760D03*
%TO.P,SCSI1,24*%
%TO.N,GND*%
X157546040Y-74279760D03*
%TO.P,SCSI1,23*%
X160086040Y-74279760D03*
%TO.P,SCSI1,22*%
X157546040Y-76819760D03*
%TO.P,SCSI1,21*%
X160086040Y-76819760D03*
%TO.P,SCSI1,20*%
X157546040Y-79359760D03*
%TO.P,SCSI1,19*%
X160086040Y-79359760D03*
%TO.P,SCSI1,18*%
%TO.N,/DBP*%
X157546040Y-81899760D03*
%TO.P,SCSI1,17*%
%TO.N,GND*%
X160086040Y-81899760D03*
%TO.P,SCSI1,16*%
%TO.N,/DB7*%
X157546040Y-84439760D03*
%TO.P,SCSI1,15*%
%TO.N,GND*%
X160086040Y-84439760D03*
%TO.P,SCSI1,14*%
%TO.N,/DB6*%
X157546040Y-86979760D03*
%TO.P,SCSI1,13*%
%TO.N,GND*%
X160086040Y-86979760D03*
%TO.P,SCSI1,12*%
%TO.N,/DB5*%
X157546040Y-89519760D03*
%TO.P,SCSI1,11*%
%TO.N,GND*%
X160086040Y-89519760D03*
%TO.P,SCSI1,10*%
%TO.N,/DB4*%
X157546040Y-92059760D03*
%TO.P,SCSI1,9*%
%TO.N,GND*%
X160086040Y-92059760D03*
%TO.P,SCSI1,8*%
%TO.N,/DB3*%
X157546040Y-94599760D03*
%TO.P,SCSI1,7*%
%TO.N,GND*%
X160086040Y-94599760D03*
%TO.P,SCSI1,6*%
%TO.N,/DB2*%
X157546040Y-97139760D03*
%TO.P,SCSI1,5*%
%TO.N,GND*%
X160086040Y-97139760D03*
%TO.P,SCSI1,4*%
%TO.N,/DB1*%
X157546040Y-99679760D03*
%TO.P,SCSI1,3*%
%TO.N,GND*%
X160086040Y-99679760D03*
%TO.P,SCSI1,2*%
%TO.N,/DB0*%
X157546040Y-102219760D03*
D11*
%TO.P,SCSI1,1*%
%TO.N,GND*%
X160086040Y-102219760D03*
%TD*%
D10*
%TO.P,PWR1,4*%
%TO.N,/5V*%
X153959560Y-102219760D03*
%TO.P,PWR1,3*%
%TO.N,GND*%
X151419560Y-102219760D03*
%TO.P,PWR1,2*%
X148879560Y-102219760D03*
D11*
%TO.P,PWR1,1*%
%TO.N,/12V*%
X146339560Y-102219760D03*
%TD*%
D10*
%TO.P,FMT1,50*%
%TO.N,/IO*%
X140202920Y-41259760D03*
%TO.P,FMT1,49*%
%TO.N,GND*%
X142742920Y-41259760D03*
%TO.P,FMT1,48*%
%TO.N,/REQ*%
X140202920Y-43799760D03*
%TO.P,FMT1,47*%
%TO.N,GND*%
X142742920Y-43799760D03*
%TO.P,FMT1,46*%
%TO.N,/CD*%
X140202920Y-46339760D03*
%TO.P,FMT1,45*%
%TO.N,GND*%
X142742920Y-46339760D03*
%TO.P,FMT1,44*%
%TO.N,/SEL*%
X140202920Y-48879760D03*
%TO.P,FMT1,43*%
%TO.N,GND*%
X142742920Y-48879760D03*
%TO.P,FMT1,42*%
X140202920Y-51419760D03*
%TO.P,FMT1,41*%
X142742920Y-51419760D03*
%TO.P,FMT1,40*%
%TO.N,/RST*%
X140202920Y-53959760D03*
%TO.P,FMT1,39*%
%TO.N,GND*%
X142742920Y-53959760D03*
%TO.P,FMT1,38*%
%TO.N,/ACK*%
X140202920Y-56499760D03*
%TO.P,FMT1,37*%
%TO.N,GND*%
X142742920Y-56499760D03*
%TO.P,FMT1,36*%
%TO.N,/BSY*%
X140202920Y-59039760D03*
%TO.P,FMT1,35*%
%TO.N,GND*%
X142742920Y-59039760D03*
%TO.P,FMT1,34*%
X140202920Y-61579760D03*
%TO.P,FMT1,33*%
X142742920Y-61579760D03*
%TO.P,FMT1,32*%
%TO.N,/ATN*%
X140202920Y-64119760D03*
%TO.P,FMT1,31*%
%TO.N,GND*%
X142742920Y-64119760D03*
%TO.P,FMT1,30*%
X140202920Y-66659760D03*
%TO.P,FMT1,29*%
X142742920Y-66659760D03*
%TO.P,FMT1,28*%
%TO.N,/TRM_2*%
X140202920Y-69199760D03*
%TO.P,FMT1,27*%
%TO.N,GND*%
X142742920Y-69199760D03*
%TO.P,FMT1,26*%
%TO.N,/DBP*%
X140202920Y-71739760D03*
%TO.P,FMT1,25*%
%TO.N,/OPEN*%
X142742920Y-71739760D03*
%TO.P,FMT1,24*%
%TO.N,/DB7*%
X140202920Y-74279760D03*
%TO.P,FMT1,23*%
%TO.N,GND*%
X142742920Y-74279760D03*
%TO.P,FMT1,22*%
%TO.N,/DB6*%
X140202920Y-76819760D03*
%TO.P,FMT1,21*%
%TO.N,GND*%
X142742920Y-76819760D03*
%TO.P,FMT1,20*%
%TO.N,/DB5*%
X140202920Y-79359760D03*
%TO.P,FMT1,19*%
%TO.N,GND*%
X142742920Y-79359760D03*
%TO.P,FMT1,18*%
%TO.N,/DB4*%
X140202920Y-81899760D03*
%TO.P,FMT1,17*%
%TO.N,GND*%
X142742920Y-81899760D03*
%TO.P,FMT1,16*%
%TO.N,/DB3*%
X140202920Y-84439760D03*
%TO.P,FMT1,15*%
%TO.N,GND*%
X142742920Y-84439760D03*
%TO.P,FMT1,14*%
%TO.N,/DB2*%
X140202920Y-86979760D03*
%TO.P,FMT1,13*%
%TO.N,GND*%
X142742920Y-86979760D03*
%TO.P,FMT1,12*%
%TO.N,/DB1*%
X140202920Y-89519760D03*
%TO.P,FMT1,11*%
%TO.N,GND*%
X142742920Y-89519760D03*
%TO.P,FMT1,10*%
%TO.N,/DB0*%
X140202920Y-92059760D03*
%TO.P,FMT1,9*%
%TO.N,GND*%
X142742920Y-92059760D03*
%TO.P,FMT1,8*%
%TO.N,/12V*%
X140202920Y-94599760D03*
%TO.P,FMT1,7*%
X142742920Y-94599760D03*
%TO.P,FMT1,6*%
%TO.N,GND*%
X140202920Y-97139760D03*
%TO.P,FMT1,5*%
X142742920Y-97139760D03*
%TO.P,FMT1,4*%
X140202920Y-99679760D03*
%TO.P,FMT1,3*%
X142742920Y-99679760D03*
%TO.P,FMT1,2*%
%TO.N,/5V*%
X140202920Y-102219760D03*
D11*
%TO.P,FMT1,1*%
X142742920Y-102219760D03*
%TD*%
D12*
%TO.N,/IO*%
X141452921Y-40009759D02*
X140202920Y-41259760D01*
X156296039Y-40009759D02*
X141452921Y-40009759D01*
X157546040Y-41259760D02*
X156296039Y-40009759D01*
%TO.N,/REQ*%
X141452921Y-45049761D02*
X140202920Y-43799760D01*
X156296039Y-45049761D02*
X141452921Y-45049761D01*
X157546040Y-43799760D02*
X156296039Y-45049761D01*
%TO.N,/CD*%
X156256041Y-47629759D02*
X141492919Y-47629759D01*
X141492919Y-47629759D02*
X140202920Y-46339760D01*
X157546040Y-46339760D02*
X156256041Y-47629759D01*
%TO.N,/SEL*%
X141452921Y-50129761D02*
X140202920Y-48879760D01*
X156296039Y-50129761D02*
X141452921Y-50129761D01*
X157546040Y-48879760D02*
X156296039Y-50129761D01*
%TO.N,/RST*%
X141452921Y-52709759D02*
X140202920Y-53959760D01*
X156296039Y-52709759D02*
X141452921Y-52709759D01*
X157546040Y-53959760D02*
X156296039Y-52709759D01*
%TO.N,/ACK*%
X141452921Y-55249759D02*
X140202920Y-56499760D01*
X156296039Y-55249759D02*
X141452921Y-55249759D01*
X157546040Y-56499760D02*
X156296039Y-55249759D01*
%TO.N,/BSY*%
X141492919Y-57749761D02*
X140202920Y-59039760D01*
X156256041Y-57749761D02*
X141492919Y-57749761D01*
X157546040Y-59039760D02*
X156256041Y-57749761D01*
%TO.N,/ATN*%
X141452921Y-62869759D02*
X140202920Y-64119760D01*
X156296039Y-62869759D02*
X141452921Y-62869759D01*
X157546040Y-64119760D02*
X156296039Y-62869759D01*
%TO.N,/DBP*%
X141492919Y-73029759D02*
X140202920Y-71739760D01*
X148676039Y-73029759D02*
X141492919Y-73029759D01*
X157546040Y-81899760D02*
X148676039Y-73029759D01*
%TO.N,/DB7*%
X141492919Y-75569759D02*
X140202920Y-74279760D01*
X148676039Y-75569759D02*
X141492919Y-75569759D01*
X157546040Y-84439760D02*
X148676039Y-75569759D01*
%TO.N,/DB6*%
X141492919Y-78109759D02*
X140202920Y-76819760D01*
X148676039Y-78109759D02*
X141492919Y-78109759D01*
X157546040Y-86979760D02*
X148676039Y-78109759D01*
%TO.N,/DB5*%
X141492919Y-80649759D02*
X140202920Y-79359760D01*
X148676039Y-80649759D02*
X141492919Y-80649759D01*
X157546040Y-89519760D02*
X148676039Y-80649759D01*
%TO.N,/DB4*%
X141492919Y-83189759D02*
X140202920Y-81899760D01*
X148676039Y-83189759D02*
X141492919Y-83189759D01*
X157546040Y-92059760D02*
X148676039Y-83189759D01*
%TO.N,/DB3*%
X141452921Y-85689761D02*
X140202920Y-84439760D01*
X148636041Y-85689761D02*
X141452921Y-85689761D01*
X157546040Y-94599760D02*
X148636041Y-85689761D01*
%TO.N,/DB2*%
X141492919Y-88269759D02*
X140202920Y-86979760D01*
X148676039Y-88269759D02*
X141492919Y-88269759D01*
X157546040Y-97139760D02*
X148676039Y-88269759D01*
%TO.N,/DB1*%
X141452921Y-90769761D02*
X140202920Y-89519760D01*
X148636041Y-90769761D02*
X141452921Y-90769761D01*
X157546040Y-99679760D02*
X148636041Y-90769761D01*
%TO.N,/DB0*%
X157546040Y-102219760D02*
X156042360Y-102219760D01*
X141452921Y-93309761D02*
X140202920Y-92059760D01*
X147132361Y-93309761D02*
X141452921Y-93309761D01*
X156042360Y-102219760D02*
X147132361Y-93309761D01*
D13*
%TO.N,GND*%
X148879560Y-101017679D02*
X148879560Y-102219760D01*
X145001641Y-97139760D02*
X148879560Y-101017679D01*
X140202920Y-97139760D02*
X145001641Y-97139760D01*
X149869559Y-103769761D02*
X151419560Y-102219760D01*
X144929559Y-103769761D02*
X149869559Y-103769761D01*
X144789559Y-103629761D02*
X144929559Y-103769761D01*
X144789559Y-100809759D02*
X144789559Y-103629761D01*
X143659560Y-99679760D02*
X144789559Y-100809759D01*
X140202920Y-99679760D02*
X143659560Y-99679760D01*
X148879560Y-102219760D02*
X151419560Y-102219760D01*
X160086040Y-102219760D02*
X160086040Y-74279760D01*
X157546040Y-79359760D02*
X157546040Y-74279760D01*
X160086040Y-74279760D02*
X157546040Y-74279760D01*
X157546040Y-69199760D02*
X160086040Y-69199760D01*
X157546040Y-69199760D02*
X157546040Y-66659760D01*
X160086040Y-69199760D02*
X160086040Y-42402760D01*
X160086040Y-42402760D02*
X160086040Y-41259760D01*
X160086040Y-61579760D02*
X157546040Y-61579760D01*
X160086040Y-51419760D02*
X157546040Y-51419760D01*
X142742920Y-69199760D02*
X142742920Y-64119760D01*
X140202920Y-66659760D02*
X142742920Y-66659760D01*
%TD*%
D14*
%TO.N,GND*%
X153460753Y-100819021D02*
X153256149Y-100903770D01*
X153012928Y-101066285D01*
X152806085Y-101273128D01*
X152684365Y-101455294D01*
X152614738Y-101338405D01*
X152419829Y-101122172D01*
X152186480Y-100948119D01*
X151923659Y-100822935D01*
X151776450Y-100778284D01*
X151546560Y-100899605D01*
X151546560Y-102092760D01*
X151566560Y-102092760D01*
X151566560Y-102346760D01*
X151546560Y-102346760D01*
X151546560Y-102366760D01*
X151292560Y-102366760D01*
X151292560Y-102346760D01*
X149006560Y-102346760D01*
X149006560Y-102366760D01*
X148752560Y-102366760D01*
X148752560Y-102346760D01*
X148732560Y-102346760D01*
X148732560Y-102092760D01*
X148752560Y-102092760D01*
X148752560Y-100899605D01*
X149006560Y-100899605D01*
X149006560Y-102092760D01*
X151292560Y-102092760D01*
X151292560Y-100899605D01*
X151062670Y-100778284D01*
X150915461Y-100822935D01*
X150652640Y-100948119D01*
X150419291Y-101122172D01*
X150224382Y-101338405D01*
X150149560Y-101464015D01*
X150074738Y-101338405D01*
X149879829Y-101122172D01*
X149646480Y-100948119D01*
X149383659Y-100822935D01*
X149236450Y-100778284D01*
X149006560Y-100899605D01*
X148752560Y-100899605D01*
X148522670Y-100778284D01*
X148375461Y-100822935D01*
X148112640Y-100948119D01*
X147879291Y-101122172D01*
X147803526Y-101206226D01*
X147779062Y-101125580D01*
X147720097Y-101015266D01*
X147640745Y-100918575D01*
X147544054Y-100839223D01*
X147433740Y-100780258D01*
X147314042Y-100743948D01*
X147189560Y-100731688D01*
X145489560Y-100731688D01*
X145365078Y-100743948D01*
X145245380Y-100780258D01*
X145135066Y-100839223D01*
X145038375Y-100918575D01*
X144959023Y-101015266D01*
X144900058Y-101125580D01*
X144863748Y-101245278D01*
X144851488Y-101369760D01*
X144851488Y-103069760D01*
X144863748Y-103194242D01*
X144900058Y-103313940D01*
X144959023Y-103424254D01*
X145038375Y-103520945D01*
X145135066Y-103600297D01*
X145154451Y-103610658D01*
X143927515Y-103610933D01*
X143947414Y-103600297D01*
X144044105Y-103520945D01*
X144123457Y-103424254D01*
X144182422Y-103313940D01*
X144218732Y-103194242D01*
X144230992Y-103069760D01*
X144230992Y-101369760D01*
X144218732Y-101245278D01*
X144182422Y-101125580D01*
X144123457Y-101015266D01*
X144044105Y-100918575D01*
X143947414Y-100839223D01*
X143837100Y-100780258D01*
X143756454Y-100755794D01*
X143840508Y-100680029D01*
X144014561Y-100446680D01*
X144139745Y-100183859D01*
X144184396Y-100036650D01*
X144063075Y-99806760D01*
X142869920Y-99806760D01*
X142869920Y-99826760D01*
X142615920Y-99826760D01*
X142615920Y-99806760D01*
X140329920Y-99806760D01*
X140329920Y-99826760D01*
X140075920Y-99826760D01*
X140075920Y-99806760D01*
X140055920Y-99806760D01*
X140055920Y-99552760D01*
X140075920Y-99552760D01*
X140075920Y-97266760D01*
X140329920Y-97266760D01*
X140329920Y-99552760D01*
X142615920Y-99552760D01*
X142615920Y-97266760D01*
X142869920Y-97266760D01*
X142869920Y-99552760D01*
X144063075Y-99552760D01*
X144184396Y-99322870D01*
X144139745Y-99175661D01*
X144014561Y-98912840D01*
X143840508Y-98679491D01*
X143624275Y-98484582D01*
X143498665Y-98409760D01*
X143624275Y-98334938D01*
X143840508Y-98140029D01*
X144014561Y-97906680D01*
X144139745Y-97643859D01*
X144184396Y-97496650D01*
X144063075Y-97266760D01*
X142869920Y-97266760D01*
X142615920Y-97266760D01*
X140329920Y-97266760D01*
X140075920Y-97266760D01*
X140055920Y-97266760D01*
X140055920Y-97012760D01*
X140075920Y-97012760D01*
X140075920Y-96992760D01*
X140329920Y-96992760D01*
X140329920Y-97012760D01*
X142615920Y-97012760D01*
X142615920Y-96992760D01*
X142869920Y-96992760D01*
X142869920Y-97012760D01*
X144063075Y-97012760D01*
X144184396Y-96782870D01*
X144139745Y-96635661D01*
X144014561Y-96372840D01*
X143840508Y-96139491D01*
X143624275Y-95944582D01*
X143507386Y-95874955D01*
X143689552Y-95753235D01*
X143896395Y-95546392D01*
X144058910Y-95303171D01*
X144170852Y-95032918D01*
X144227920Y-94746020D01*
X144227920Y-94453500D01*
X144170852Y-94166602D01*
X144161805Y-94144761D01*
X146786494Y-94144761D01*
X153460753Y-100819021D01*
%TA.AperFunction,Conductor*%
D15*
G36*
X153460753Y-100819021D02*
G01*
X153256149Y-100903770D01*
X153012928Y-101066285D01*
X152806085Y-101273128D01*
X152684365Y-101455294D01*
X152614738Y-101338405D01*
X152419829Y-101122172D01*
X152186480Y-100948119D01*
X151923659Y-100822935D01*
X151776450Y-100778284D01*
X151546560Y-100899605D01*
X151546560Y-102092760D01*
X151566560Y-102092760D01*
X151566560Y-102346760D01*
X151546560Y-102346760D01*
X151546560Y-102366760D01*
X151292560Y-102366760D01*
X151292560Y-102346760D01*
X149006560Y-102346760D01*
X149006560Y-102366760D01*
X148752560Y-102366760D01*
X148752560Y-102346760D01*
X148732560Y-102346760D01*
X148732560Y-102092760D01*
X148752560Y-102092760D01*
X148752560Y-100899605D01*
X149006560Y-100899605D01*
X149006560Y-102092760D01*
X151292560Y-102092760D01*
X151292560Y-100899605D01*
X151062670Y-100778284D01*
X150915461Y-100822935D01*
X150652640Y-100948119D01*
X150419291Y-101122172D01*
X150224382Y-101338405D01*
X150149560Y-101464015D01*
X150074738Y-101338405D01*
X149879829Y-101122172D01*
X149646480Y-100948119D01*
X149383659Y-100822935D01*
X149236450Y-100778284D01*
X149006560Y-100899605D01*
X148752560Y-100899605D01*
X148522670Y-100778284D01*
X148375461Y-100822935D01*
X148112640Y-100948119D01*
X147879291Y-101122172D01*
X147803526Y-101206226D01*
X147779062Y-101125580D01*
X147720097Y-101015266D01*
X147640745Y-100918575D01*
X147544054Y-100839223D01*
X147433740Y-100780258D01*
X147314042Y-100743948D01*
X147189560Y-100731688D01*
X145489560Y-100731688D01*
X145365078Y-100743948D01*
X145245380Y-100780258D01*
X145135066Y-100839223D01*
X145038375Y-100918575D01*
X144959023Y-101015266D01*
X144900058Y-101125580D01*
X144863748Y-101245278D01*
X144851488Y-101369760D01*
X144851488Y-103069760D01*
X144863748Y-103194242D01*
X144900058Y-103313940D01*
X144959023Y-103424254D01*
X145038375Y-103520945D01*
X145135066Y-103600297D01*
X145154451Y-103610658D01*
X143927515Y-103610933D01*
X143947414Y-103600297D01*
X144044105Y-103520945D01*
X144123457Y-103424254D01*
X144182422Y-103313940D01*
X144218732Y-103194242D01*
X144230992Y-103069760D01*
X144230992Y-101369760D01*
X144218732Y-101245278D01*
X144182422Y-101125580D01*
X144123457Y-101015266D01*
X144044105Y-100918575D01*
X143947414Y-100839223D01*
X143837100Y-100780258D01*
X143756454Y-100755794D01*
X143840508Y-100680029D01*
X144014561Y-100446680D01*
X144139745Y-100183859D01*
X144184396Y-100036650D01*
X144063075Y-99806760D01*
X142869920Y-99806760D01*
X142869920Y-99826760D01*
X142615920Y-99826760D01*
X142615920Y-99806760D01*
X140329920Y-99806760D01*
X140329920Y-99826760D01*
X140075920Y-99826760D01*
X140075920Y-99806760D01*
X140055920Y-99806760D01*
X140055920Y-99552760D01*
X140075920Y-99552760D01*
X140075920Y-97266760D01*
X140329920Y-97266760D01*
X140329920Y-99552760D01*
X142615920Y-99552760D01*
X142615920Y-97266760D01*
X142869920Y-97266760D01*
X142869920Y-99552760D01*
X144063075Y-99552760D01*
X144184396Y-99322870D01*
X144139745Y-99175661D01*
X144014561Y-98912840D01*
X143840508Y-98679491D01*
X143624275Y-98484582D01*
X143498665Y-98409760D01*
X143624275Y-98334938D01*
X143840508Y-98140029D01*
X144014561Y-97906680D01*
X144139745Y-97643859D01*
X144184396Y-97496650D01*
X144063075Y-97266760D01*
X142869920Y-97266760D01*
X142615920Y-97266760D01*
X140329920Y-97266760D01*
X140075920Y-97266760D01*
X140055920Y-97266760D01*
X140055920Y-97012760D01*
X140075920Y-97012760D01*
X140075920Y-96992760D01*
X140329920Y-96992760D01*
X140329920Y-97012760D01*
X142615920Y-97012760D01*
X142615920Y-96992760D01*
X142869920Y-96992760D01*
X142869920Y-97012760D01*
X144063075Y-97012760D01*
X144184396Y-96782870D01*
X144139745Y-96635661D01*
X144014561Y-96372840D01*
X143840508Y-96139491D01*
X143624275Y-95944582D01*
X143507386Y-95874955D01*
X143689552Y-95753235D01*
X143896395Y-95546392D01*
X144058910Y-95303171D01*
X144170852Y-95032918D01*
X144227920Y-94746020D01*
X144227920Y-94453500D01*
X144170852Y-94166602D01*
X144161805Y-94144761D01*
X146786494Y-94144761D01*
X153460753Y-100819021D01*
G37*
%TD.AperFunction*%
D14*
X160213040Y-41132760D02*
X160233040Y-41132760D01*
X160233040Y-41386760D01*
X160213040Y-41386760D01*
X160213040Y-43672760D01*
X160233040Y-43672760D01*
X160233040Y-43926760D01*
X160213040Y-43926760D01*
X160213040Y-46212760D01*
X160233040Y-46212760D01*
X160233040Y-46466760D01*
X160213040Y-46466760D01*
X160213040Y-48752760D01*
X160233040Y-48752760D01*
X160233040Y-49006760D01*
X160213040Y-49006760D01*
X160213040Y-51292760D01*
X160233040Y-51292760D01*
X160233040Y-51546760D01*
X160213040Y-51546760D01*
X160213040Y-53832760D01*
X160233040Y-53832760D01*
X160233040Y-54086760D01*
X160213040Y-54086760D01*
X160213040Y-56372760D01*
X160233040Y-56372760D01*
X160233040Y-56626760D01*
X160213040Y-56626760D01*
X160213040Y-58912760D01*
X160233040Y-58912760D01*
X160233040Y-59166760D01*
X160213040Y-59166760D01*
X160213040Y-61452760D01*
X160233040Y-61452760D01*
X160233040Y-61706760D01*
X160213040Y-61706760D01*
X160213040Y-63992760D01*
X160233040Y-63992760D01*
X160233040Y-64246760D01*
X160213040Y-64246760D01*
X160213040Y-66532760D01*
X160233040Y-66532760D01*
X160233040Y-66786760D01*
X160213040Y-66786760D01*
X160213040Y-69072760D01*
X160233040Y-69072760D01*
X160233040Y-69326760D01*
X160213040Y-69326760D01*
X160213040Y-69346760D01*
X159959040Y-69346760D01*
X159959040Y-69326760D01*
X157673040Y-69326760D01*
X157673040Y-69346760D01*
X157419040Y-69346760D01*
X157419040Y-69326760D01*
X156225885Y-69326760D01*
X156104564Y-69556650D01*
X156149215Y-69703859D01*
X156274399Y-69966680D01*
X156448452Y-70200029D01*
X156664685Y-70394938D01*
X156781574Y-70464565D01*
X156599408Y-70586285D01*
X156392565Y-70793128D01*
X156230050Y-71036349D01*
X156118108Y-71306602D01*
X156061040Y-71593500D01*
X156061040Y-71886020D01*
X156118108Y-72172918D01*
X156230050Y-72443171D01*
X156392565Y-72686392D01*
X156599408Y-72893235D01*
X156781574Y-73014955D01*
X156664685Y-73084582D01*
X156448452Y-73279491D01*
X156274399Y-73512840D01*
X156149215Y-73775661D01*
X156104564Y-73922870D01*
X156225885Y-74152760D01*
X157419040Y-74152760D01*
X157419040Y-74132760D01*
X157673040Y-74132760D01*
X157673040Y-74152760D01*
X159959040Y-74152760D01*
X159959040Y-74132760D01*
X160213040Y-74132760D01*
X160213040Y-74152760D01*
X160233040Y-74152760D01*
X160233040Y-74406760D01*
X160213040Y-74406760D01*
X160213040Y-76692760D01*
X160233040Y-76692760D01*
X160233040Y-76946760D01*
X160213040Y-76946760D01*
X160213040Y-79232760D01*
X160233040Y-79232760D01*
X160233040Y-79486760D01*
X160213040Y-79486760D01*
X160213040Y-81772760D01*
X160233040Y-81772760D01*
X160233040Y-82026760D01*
X160213040Y-82026760D01*
X160213040Y-84312760D01*
X160233040Y-84312760D01*
X160233040Y-84566760D01*
X160213040Y-84566760D01*
X160213040Y-86852760D01*
X160233040Y-86852760D01*
X160233040Y-87106760D01*
X160213040Y-87106760D01*
X160213040Y-89392760D01*
X160233040Y-89392760D01*
X160233040Y-89646760D01*
X160213040Y-89646760D01*
X160213040Y-91932760D01*
X160233040Y-91932760D01*
X160233040Y-92186760D01*
X160213040Y-92186760D01*
X160213040Y-94472760D01*
X160233040Y-94472760D01*
X160233040Y-94726760D01*
X160213040Y-94726760D01*
X160213040Y-97012760D01*
X160233040Y-97012760D01*
X160233040Y-97266760D01*
X160213040Y-97266760D01*
X160213040Y-99552760D01*
X160233040Y-99552760D01*
X160233040Y-99806760D01*
X160213040Y-99806760D01*
X160213040Y-102092760D01*
X160233040Y-102092760D01*
X160233040Y-102346760D01*
X160213040Y-102346760D01*
X160213040Y-102366760D01*
X159959040Y-102366760D01*
X159959040Y-102346760D01*
X159939040Y-102346760D01*
X159939040Y-102092760D01*
X159959040Y-102092760D01*
X159959040Y-99806760D01*
X159939040Y-99806760D01*
X159939040Y-99552760D01*
X159959040Y-99552760D01*
X159959040Y-97266760D01*
X159939040Y-97266760D01*
X159939040Y-97012760D01*
X159959040Y-97012760D01*
X159959040Y-94726760D01*
X159939040Y-94726760D01*
X159939040Y-94472760D01*
X159959040Y-94472760D01*
X159959040Y-92186760D01*
X159939040Y-92186760D01*
X159939040Y-91932760D01*
X159959040Y-91932760D01*
X159959040Y-89646760D01*
X159939040Y-89646760D01*
X159939040Y-89392760D01*
X159959040Y-89392760D01*
X159959040Y-87106760D01*
X159939040Y-87106760D01*
X159939040Y-86852760D01*
X159959040Y-86852760D01*
X159959040Y-84566760D01*
X159939040Y-84566760D01*
X159939040Y-84312760D01*
X159959040Y-84312760D01*
X159959040Y-82026760D01*
X159939040Y-82026760D01*
X159939040Y-81772760D01*
X159959040Y-81772760D01*
X159959040Y-79486760D01*
X157673040Y-79486760D01*
X157673040Y-79506760D01*
X157419040Y-79506760D01*
X157419040Y-79486760D01*
X157399040Y-79486760D01*
X157399040Y-79232760D01*
X157419040Y-79232760D01*
X157419040Y-76946760D01*
X157673040Y-76946760D01*
X157673040Y-79232760D01*
X159959040Y-79232760D01*
X159959040Y-76946760D01*
X157673040Y-76946760D01*
X157419040Y-76946760D01*
X156225885Y-76946760D01*
X156104564Y-77176650D01*
X156149215Y-77323859D01*
X156274399Y-77586680D01*
X156448452Y-77820029D01*
X156664685Y-78014938D01*
X156790295Y-78089760D01*
X156664685Y-78164582D01*
X156448452Y-78359491D01*
X156274399Y-78592840D01*
X156149215Y-78855661D01*
X156104564Y-79002870D01*
X156225884Y-79232758D01*
X156061040Y-79232758D01*
X156061040Y-79233891D01*
X151463798Y-74636650D01*
X156104564Y-74636650D01*
X156149215Y-74783859D01*
X156274399Y-75046680D01*
X156448452Y-75280029D01*
X156664685Y-75474938D01*
X156790295Y-75549760D01*
X156664685Y-75624582D01*
X156448452Y-75819491D01*
X156274399Y-76052840D01*
X156149215Y-76315661D01*
X156104564Y-76462870D01*
X156225885Y-76692760D01*
X157419040Y-76692760D01*
X157419040Y-74406760D01*
X157673040Y-74406760D01*
X157673040Y-76692760D01*
X159959040Y-76692760D01*
X159959040Y-74406760D01*
X157673040Y-74406760D01*
X157419040Y-74406760D01*
X156225885Y-74406760D01*
X156104564Y-74636650D01*
X151463798Y-74636650D01*
X149295485Y-72468338D01*
X149269330Y-72436468D01*
X149142185Y-72332123D01*
X148997126Y-72254587D01*
X148839728Y-72206841D01*
X148717058Y-72194759D01*
X148717057Y-72194759D01*
X148676039Y-72190719D01*
X148635021Y-72194759D01*
X144161805Y-72194759D01*
X144170852Y-72172918D01*
X144227920Y-71886020D01*
X144227920Y-71593500D01*
X144170852Y-71306602D01*
X144058910Y-71036349D01*
X143896395Y-70793128D01*
X143689552Y-70586285D01*
X143507386Y-70464565D01*
X143624275Y-70394938D01*
X143840508Y-70200029D01*
X144014561Y-69966680D01*
X144139745Y-69703859D01*
X144184396Y-69556650D01*
X144063075Y-69326760D01*
X142869920Y-69326760D01*
X142869920Y-69346760D01*
X142615920Y-69346760D01*
X142615920Y-69326760D01*
X142595920Y-69326760D01*
X142595920Y-69072760D01*
X142615920Y-69072760D01*
X142615920Y-66786760D01*
X142869920Y-66786760D01*
X142869920Y-69072760D01*
X144063075Y-69072760D01*
X144184396Y-68842870D01*
X144139745Y-68695661D01*
X144014561Y-68432840D01*
X143840508Y-68199491D01*
X143624275Y-68004582D01*
X143498665Y-67929760D01*
X143624275Y-67854938D01*
X143840508Y-67660029D01*
X144014561Y-67426680D01*
X144139745Y-67163859D01*
X144184396Y-67016650D01*
X156104564Y-67016650D01*
X156149215Y-67163859D01*
X156274399Y-67426680D01*
X156448452Y-67660029D01*
X156664685Y-67854938D01*
X156790295Y-67929760D01*
X156664685Y-68004582D01*
X156448452Y-68199491D01*
X156274399Y-68432840D01*
X156149215Y-68695661D01*
X156104564Y-68842870D01*
X156225885Y-69072760D01*
X157419040Y-69072760D01*
X157419040Y-66786760D01*
X157673040Y-66786760D01*
X157673040Y-69072760D01*
X159959040Y-69072760D01*
X159959040Y-66786760D01*
X157673040Y-66786760D01*
X157419040Y-66786760D01*
X156225885Y-66786760D01*
X156104564Y-67016650D01*
X144184396Y-67016650D01*
X144063075Y-66786760D01*
X142869920Y-66786760D01*
X142615920Y-66786760D01*
X140329920Y-66786760D01*
X140329920Y-66806760D01*
X140075920Y-66806760D01*
X140075920Y-66786760D01*
X140055920Y-66786760D01*
X140055920Y-66532760D01*
X140075920Y-66532760D01*
X140075920Y-66512760D01*
X140329920Y-66512760D01*
X140329920Y-66532760D01*
X142615920Y-66532760D01*
X142615920Y-64246760D01*
X142869920Y-64246760D01*
X142869920Y-66532760D01*
X144063075Y-66532760D01*
X144184396Y-66302870D01*
X144139745Y-66155661D01*
X144014561Y-65892840D01*
X143840508Y-65659491D01*
X143624275Y-65464582D01*
X143498665Y-65389760D01*
X143624275Y-65314938D01*
X143840508Y-65120029D01*
X144014561Y-64886680D01*
X144139745Y-64623859D01*
X144184396Y-64476650D01*
X144063075Y-64246760D01*
X142869920Y-64246760D01*
X142615920Y-64246760D01*
X142595920Y-64246760D01*
X142595920Y-63992760D01*
X142615920Y-63992760D01*
X142615920Y-63972760D01*
X142869920Y-63972760D01*
X142869920Y-63992760D01*
X144063075Y-63992760D01*
X144184396Y-63762870D01*
X144166770Y-63704759D01*
X155950172Y-63704759D01*
X156087233Y-63841820D01*
X156061040Y-63973500D01*
X156061040Y-64266020D01*
X156118108Y-64552918D01*
X156230050Y-64823171D01*
X156392565Y-65066392D01*
X156599408Y-65273235D01*
X156781574Y-65394955D01*
X156664685Y-65464582D01*
X156448452Y-65659491D01*
X156274399Y-65892840D01*
X156149215Y-66155661D01*
X156104564Y-66302870D01*
X156225885Y-66532760D01*
X157419040Y-66532760D01*
X157419040Y-66512760D01*
X157673040Y-66512760D01*
X157673040Y-66532760D01*
X159959040Y-66532760D01*
X159959040Y-64246760D01*
X159939040Y-64246760D01*
X159939040Y-63992760D01*
X159959040Y-63992760D01*
X159959040Y-61706760D01*
X157673040Y-61706760D01*
X157673040Y-61726760D01*
X157419040Y-61726760D01*
X157419040Y-61706760D01*
X156225885Y-61706760D01*
X156104564Y-61936650D01*
X156134322Y-62034759D01*
X144154638Y-62034759D01*
X144184396Y-61936650D01*
X144063075Y-61706760D01*
X142869920Y-61706760D01*
X142869920Y-61726760D01*
X142615920Y-61726760D01*
X142615920Y-61706760D01*
X140329920Y-61706760D01*
X140329920Y-61726760D01*
X140075920Y-61726760D01*
X140075920Y-61706760D01*
X140055920Y-61706760D01*
X140055920Y-61452760D01*
X140075920Y-61452760D01*
X140075920Y-61432760D01*
X140329920Y-61432760D01*
X140329920Y-61452760D01*
X142615920Y-61452760D01*
X142615920Y-59166760D01*
X142869920Y-59166760D01*
X142869920Y-61452760D01*
X144063075Y-61452760D01*
X144184396Y-61222870D01*
X144139745Y-61075661D01*
X144014561Y-60812840D01*
X143840508Y-60579491D01*
X143624275Y-60384582D01*
X143498665Y-60309760D01*
X143624275Y-60234938D01*
X143840508Y-60040029D01*
X144014561Y-59806680D01*
X144139745Y-59543859D01*
X144184396Y-59396650D01*
X144063075Y-59166760D01*
X142869920Y-59166760D01*
X142615920Y-59166760D01*
X142595920Y-59166760D01*
X142595920Y-58912760D01*
X142615920Y-58912760D01*
X142615920Y-58892760D01*
X142869920Y-58892760D01*
X142869920Y-58912760D01*
X144063075Y-58912760D01*
X144184396Y-58682870D01*
X144154638Y-58584761D01*
X155910174Y-58584761D01*
X156087233Y-58761820D01*
X156061040Y-58893500D01*
X156061040Y-59186020D01*
X156118108Y-59472918D01*
X156230050Y-59743171D01*
X156392565Y-59986392D01*
X156599408Y-60193235D01*
X156781574Y-60314955D01*
X156664685Y-60384582D01*
X156448452Y-60579491D01*
X156274399Y-60812840D01*
X156149215Y-61075661D01*
X156104564Y-61222870D01*
X156225885Y-61452760D01*
X157419040Y-61452760D01*
X157419040Y-61432760D01*
X157673040Y-61432760D01*
X157673040Y-61452760D01*
X159959040Y-61452760D01*
X159959040Y-59166760D01*
X159939040Y-59166760D01*
X159939040Y-58912760D01*
X159959040Y-58912760D01*
X159959040Y-56626760D01*
X159939040Y-56626760D01*
X159939040Y-56372760D01*
X159959040Y-56372760D01*
X159959040Y-54086760D01*
X159939040Y-54086760D01*
X159939040Y-53832760D01*
X159959040Y-53832760D01*
X159959040Y-51546760D01*
X157673040Y-51546760D01*
X157673040Y-51566760D01*
X157419040Y-51566760D01*
X157419040Y-51546760D01*
X156225885Y-51546760D01*
X156104564Y-51776650D01*
X156134322Y-51874759D01*
X144154638Y-51874759D01*
X144184396Y-51776650D01*
X144063075Y-51546760D01*
X142869920Y-51546760D01*
X142869920Y-51566760D01*
X142615920Y-51566760D01*
X142615920Y-51546760D01*
X140329920Y-51546760D01*
X140329920Y-51566760D01*
X140075920Y-51566760D01*
X140075920Y-51546760D01*
X140055920Y-51546760D01*
X140055920Y-51292760D01*
X140075920Y-51292760D01*
X140075920Y-51272760D01*
X140329920Y-51272760D01*
X140329920Y-51292760D01*
X142615920Y-51292760D01*
X142615920Y-51272760D01*
X142869920Y-51272760D01*
X142869920Y-51292760D01*
X144063075Y-51292760D01*
X144184396Y-51062870D01*
X144154638Y-50964761D01*
X156134322Y-50964761D01*
X156104564Y-51062870D01*
X156225885Y-51292760D01*
X157419040Y-51292760D01*
X157419040Y-51272760D01*
X157673040Y-51272760D01*
X157673040Y-51292760D01*
X159959040Y-51292760D01*
X159959040Y-49006760D01*
X159939040Y-49006760D01*
X159939040Y-48752760D01*
X159959040Y-48752760D01*
X159959040Y-46466760D01*
X159939040Y-46466760D01*
X159939040Y-46212760D01*
X159959040Y-46212760D01*
X159959040Y-43926760D01*
X159939040Y-43926760D01*
X159939040Y-43672760D01*
X159959040Y-43672760D01*
X159959040Y-41386760D01*
X159939040Y-41386760D01*
X159939040Y-41132760D01*
X159959040Y-41132760D01*
X159959040Y-41112760D01*
X160213040Y-41112760D01*
X160213040Y-41132760D01*
%TA.AperFunction,Conductor*%
D15*
G36*
X160213040Y-41132760D02*
G01*
X160233040Y-41132760D01*
X160233040Y-41386760D01*
X160213040Y-41386760D01*
X160213040Y-43672760D01*
X160233040Y-43672760D01*
X160233040Y-43926760D01*
X160213040Y-43926760D01*
X160213040Y-46212760D01*
X160233040Y-46212760D01*
X160233040Y-46466760D01*
X160213040Y-46466760D01*
X160213040Y-48752760D01*
X160233040Y-48752760D01*
X160233040Y-49006760D01*
X160213040Y-49006760D01*
X160213040Y-51292760D01*
X160233040Y-51292760D01*
X160233040Y-51546760D01*
X160213040Y-51546760D01*
X160213040Y-53832760D01*
X160233040Y-53832760D01*
X160233040Y-54086760D01*
X160213040Y-54086760D01*
X160213040Y-56372760D01*
X160233040Y-56372760D01*
X160233040Y-56626760D01*
X160213040Y-56626760D01*
X160213040Y-58912760D01*
X160233040Y-58912760D01*
X160233040Y-59166760D01*
X160213040Y-59166760D01*
X160213040Y-61452760D01*
X160233040Y-61452760D01*
X160233040Y-61706760D01*
X160213040Y-61706760D01*
X160213040Y-63992760D01*
X160233040Y-63992760D01*
X160233040Y-64246760D01*
X160213040Y-64246760D01*
X160213040Y-66532760D01*
X160233040Y-66532760D01*
X160233040Y-66786760D01*
X160213040Y-66786760D01*
X160213040Y-69072760D01*
X160233040Y-69072760D01*
X160233040Y-69326760D01*
X160213040Y-69326760D01*
X160213040Y-69346760D01*
X159959040Y-69346760D01*
X159959040Y-69326760D01*
X157673040Y-69326760D01*
X157673040Y-69346760D01*
X157419040Y-69346760D01*
X157419040Y-69326760D01*
X156225885Y-69326760D01*
X156104564Y-69556650D01*
X156149215Y-69703859D01*
X156274399Y-69966680D01*
X156448452Y-70200029D01*
X156664685Y-70394938D01*
X156781574Y-70464565D01*
X156599408Y-70586285D01*
X156392565Y-70793128D01*
X156230050Y-71036349D01*
X156118108Y-71306602D01*
X156061040Y-71593500D01*
X156061040Y-71886020D01*
X156118108Y-72172918D01*
X156230050Y-72443171D01*
X156392565Y-72686392D01*
X156599408Y-72893235D01*
X156781574Y-73014955D01*
X156664685Y-73084582D01*
X156448452Y-73279491D01*
X156274399Y-73512840D01*
X156149215Y-73775661D01*
X156104564Y-73922870D01*
X156225885Y-74152760D01*
X157419040Y-74152760D01*
X157419040Y-74132760D01*
X157673040Y-74132760D01*
X157673040Y-74152760D01*
X159959040Y-74152760D01*
X159959040Y-74132760D01*
X160213040Y-74132760D01*
X160213040Y-74152760D01*
X160233040Y-74152760D01*
X160233040Y-74406760D01*
X160213040Y-74406760D01*
X160213040Y-76692760D01*
X160233040Y-76692760D01*
X160233040Y-76946760D01*
X160213040Y-76946760D01*
X160213040Y-79232760D01*
X160233040Y-79232760D01*
X160233040Y-79486760D01*
X160213040Y-79486760D01*
X160213040Y-81772760D01*
X160233040Y-81772760D01*
X160233040Y-82026760D01*
X160213040Y-82026760D01*
X160213040Y-84312760D01*
X160233040Y-84312760D01*
X160233040Y-84566760D01*
X160213040Y-84566760D01*
X160213040Y-86852760D01*
X160233040Y-86852760D01*
X160233040Y-87106760D01*
X160213040Y-87106760D01*
X160213040Y-89392760D01*
X160233040Y-89392760D01*
X160233040Y-89646760D01*
X160213040Y-89646760D01*
X160213040Y-91932760D01*
X160233040Y-91932760D01*
X160233040Y-92186760D01*
X160213040Y-92186760D01*
X160213040Y-94472760D01*
X160233040Y-94472760D01*
X160233040Y-94726760D01*
X160213040Y-94726760D01*
X160213040Y-97012760D01*
X160233040Y-97012760D01*
X160233040Y-97266760D01*
X160213040Y-97266760D01*
X160213040Y-99552760D01*
X160233040Y-99552760D01*
X160233040Y-99806760D01*
X160213040Y-99806760D01*
X160213040Y-102092760D01*
X160233040Y-102092760D01*
X160233040Y-102346760D01*
X160213040Y-102346760D01*
X160213040Y-102366760D01*
X159959040Y-102366760D01*
X159959040Y-102346760D01*
X159939040Y-102346760D01*
X159939040Y-102092760D01*
X159959040Y-102092760D01*
X159959040Y-99806760D01*
X159939040Y-99806760D01*
X159939040Y-99552760D01*
X159959040Y-99552760D01*
X159959040Y-97266760D01*
X159939040Y-97266760D01*
X159939040Y-97012760D01*
X159959040Y-97012760D01*
X159959040Y-94726760D01*
X159939040Y-94726760D01*
X159939040Y-94472760D01*
X159959040Y-94472760D01*
X159959040Y-92186760D01*
X159939040Y-92186760D01*
X159939040Y-91932760D01*
X159959040Y-91932760D01*
X159959040Y-89646760D01*
X159939040Y-89646760D01*
X159939040Y-89392760D01*
X159959040Y-89392760D01*
X159959040Y-87106760D01*
X159939040Y-87106760D01*
X159939040Y-86852760D01*
X159959040Y-86852760D01*
X159959040Y-84566760D01*
X159939040Y-84566760D01*
X159939040Y-84312760D01*
X159959040Y-84312760D01*
X159959040Y-82026760D01*
X159939040Y-82026760D01*
X159939040Y-81772760D01*
X159959040Y-81772760D01*
X159959040Y-79486760D01*
X157673040Y-79486760D01*
X157673040Y-79506760D01*
X157419040Y-79506760D01*
X157419040Y-79486760D01*
X157399040Y-79486760D01*
X157399040Y-79232760D01*
X157419040Y-79232760D01*
X157419040Y-76946760D01*
X157673040Y-76946760D01*
X157673040Y-79232760D01*
X159959040Y-79232760D01*
X159959040Y-76946760D01*
X157673040Y-76946760D01*
X157419040Y-76946760D01*
X156225885Y-76946760D01*
X156104564Y-77176650D01*
X156149215Y-77323859D01*
X156274399Y-77586680D01*
X156448452Y-77820029D01*
X156664685Y-78014938D01*
X156790295Y-78089760D01*
X156664685Y-78164582D01*
X156448452Y-78359491D01*
X156274399Y-78592840D01*
X156149215Y-78855661D01*
X156104564Y-79002870D01*
X156225884Y-79232758D01*
X156061040Y-79232758D01*
X156061040Y-79233891D01*
X151463798Y-74636650D01*
X156104564Y-74636650D01*
X156149215Y-74783859D01*
X156274399Y-75046680D01*
X156448452Y-75280029D01*
X156664685Y-75474938D01*
X156790295Y-75549760D01*
X156664685Y-75624582D01*
X156448452Y-75819491D01*
X156274399Y-76052840D01*
X156149215Y-76315661D01*
X156104564Y-76462870D01*
X156225885Y-76692760D01*
X157419040Y-76692760D01*
X157419040Y-74406760D01*
X157673040Y-74406760D01*
X157673040Y-76692760D01*
X159959040Y-76692760D01*
X159959040Y-74406760D01*
X157673040Y-74406760D01*
X157419040Y-74406760D01*
X156225885Y-74406760D01*
X156104564Y-74636650D01*
X151463798Y-74636650D01*
X149295485Y-72468338D01*
X149269330Y-72436468D01*
X149142185Y-72332123D01*
X148997126Y-72254587D01*
X148839728Y-72206841D01*
X148717058Y-72194759D01*
X148717057Y-72194759D01*
X148676039Y-72190719D01*
X148635021Y-72194759D01*
X144161805Y-72194759D01*
X144170852Y-72172918D01*
X144227920Y-71886020D01*
X144227920Y-71593500D01*
X144170852Y-71306602D01*
X144058910Y-71036349D01*
X143896395Y-70793128D01*
X143689552Y-70586285D01*
X143507386Y-70464565D01*
X143624275Y-70394938D01*
X143840508Y-70200029D01*
X144014561Y-69966680D01*
X144139745Y-69703859D01*
X144184396Y-69556650D01*
X144063075Y-69326760D01*
X142869920Y-69326760D01*
X142869920Y-69346760D01*
X142615920Y-69346760D01*
X142615920Y-69326760D01*
X142595920Y-69326760D01*
X142595920Y-69072760D01*
X142615920Y-69072760D01*
X142615920Y-66786760D01*
X142869920Y-66786760D01*
X142869920Y-69072760D01*
X144063075Y-69072760D01*
X144184396Y-68842870D01*
X144139745Y-68695661D01*
X144014561Y-68432840D01*
X143840508Y-68199491D01*
X143624275Y-68004582D01*
X143498665Y-67929760D01*
X143624275Y-67854938D01*
X143840508Y-67660029D01*
X144014561Y-67426680D01*
X144139745Y-67163859D01*
X144184396Y-67016650D01*
X156104564Y-67016650D01*
X156149215Y-67163859D01*
X156274399Y-67426680D01*
X156448452Y-67660029D01*
X156664685Y-67854938D01*
X156790295Y-67929760D01*
X156664685Y-68004582D01*
X156448452Y-68199491D01*
X156274399Y-68432840D01*
X156149215Y-68695661D01*
X156104564Y-68842870D01*
X156225885Y-69072760D01*
X157419040Y-69072760D01*
X157419040Y-66786760D01*
X157673040Y-66786760D01*
X157673040Y-69072760D01*
X159959040Y-69072760D01*
X159959040Y-66786760D01*
X157673040Y-66786760D01*
X157419040Y-66786760D01*
X156225885Y-66786760D01*
X156104564Y-67016650D01*
X144184396Y-67016650D01*
X144063075Y-66786760D01*
X142869920Y-66786760D01*
X142615920Y-66786760D01*
X140329920Y-66786760D01*
X140329920Y-66806760D01*
X140075920Y-66806760D01*
X140075920Y-66786760D01*
X140055920Y-66786760D01*
X140055920Y-66532760D01*
X140075920Y-66532760D01*
X140075920Y-66512760D01*
X140329920Y-66512760D01*
X140329920Y-66532760D01*
X142615920Y-66532760D01*
X142615920Y-64246760D01*
X142869920Y-64246760D01*
X142869920Y-66532760D01*
X144063075Y-66532760D01*
X144184396Y-66302870D01*
X144139745Y-66155661D01*
X144014561Y-65892840D01*
X143840508Y-65659491D01*
X143624275Y-65464582D01*
X143498665Y-65389760D01*
X143624275Y-65314938D01*
X143840508Y-65120029D01*
X144014561Y-64886680D01*
X144139745Y-64623859D01*
X144184396Y-64476650D01*
X144063075Y-64246760D01*
X142869920Y-64246760D01*
X142615920Y-64246760D01*
X142595920Y-64246760D01*
X142595920Y-63992760D01*
X142615920Y-63992760D01*
X142615920Y-63972760D01*
X142869920Y-63972760D01*
X142869920Y-63992760D01*
X144063075Y-63992760D01*
X144184396Y-63762870D01*
X144166770Y-63704759D01*
X155950172Y-63704759D01*
X156087233Y-63841820D01*
X156061040Y-63973500D01*
X156061040Y-64266020D01*
X156118108Y-64552918D01*
X156230050Y-64823171D01*
X156392565Y-65066392D01*
X156599408Y-65273235D01*
X156781574Y-65394955D01*
X156664685Y-65464582D01*
X156448452Y-65659491D01*
X156274399Y-65892840D01*
X156149215Y-66155661D01*
X156104564Y-66302870D01*
X156225885Y-66532760D01*
X157419040Y-66532760D01*
X157419040Y-66512760D01*
X157673040Y-66512760D01*
X157673040Y-66532760D01*
X159959040Y-66532760D01*
X159959040Y-64246760D01*
X159939040Y-64246760D01*
X159939040Y-63992760D01*
X159959040Y-63992760D01*
X159959040Y-61706760D01*
X157673040Y-61706760D01*
X157673040Y-61726760D01*
X157419040Y-61726760D01*
X157419040Y-61706760D01*
X156225885Y-61706760D01*
X156104564Y-61936650D01*
X156134322Y-62034759D01*
X144154638Y-62034759D01*
X144184396Y-61936650D01*
X144063075Y-61706760D01*
X142869920Y-61706760D01*
X142869920Y-61726760D01*
X142615920Y-61726760D01*
X142615920Y-61706760D01*
X140329920Y-61706760D01*
X140329920Y-61726760D01*
X140075920Y-61726760D01*
X140075920Y-61706760D01*
X140055920Y-61706760D01*
X140055920Y-61452760D01*
X140075920Y-61452760D01*
X140075920Y-61432760D01*
X140329920Y-61432760D01*
X140329920Y-61452760D01*
X142615920Y-61452760D01*
X142615920Y-59166760D01*
X142869920Y-59166760D01*
X142869920Y-61452760D01*
X144063075Y-61452760D01*
X144184396Y-61222870D01*
X144139745Y-61075661D01*
X144014561Y-60812840D01*
X143840508Y-60579491D01*
X143624275Y-60384582D01*
X143498665Y-60309760D01*
X143624275Y-60234938D01*
X143840508Y-60040029D01*
X144014561Y-59806680D01*
X144139745Y-59543859D01*
X144184396Y-59396650D01*
X144063075Y-59166760D01*
X142869920Y-59166760D01*
X142615920Y-59166760D01*
X142595920Y-59166760D01*
X142595920Y-58912760D01*
X142615920Y-58912760D01*
X142615920Y-58892760D01*
X142869920Y-58892760D01*
X142869920Y-58912760D01*
X144063075Y-58912760D01*
X144184396Y-58682870D01*
X144154638Y-58584761D01*
X155910174Y-58584761D01*
X156087233Y-58761820D01*
X156061040Y-58893500D01*
X156061040Y-59186020D01*
X156118108Y-59472918D01*
X156230050Y-59743171D01*
X156392565Y-59986392D01*
X156599408Y-60193235D01*
X156781574Y-60314955D01*
X156664685Y-60384582D01*
X156448452Y-60579491D01*
X156274399Y-60812840D01*
X156149215Y-61075661D01*
X156104564Y-61222870D01*
X156225885Y-61452760D01*
X157419040Y-61452760D01*
X157419040Y-61432760D01*
X157673040Y-61432760D01*
X157673040Y-61452760D01*
X159959040Y-61452760D01*
X159959040Y-59166760D01*
X159939040Y-59166760D01*
X159939040Y-58912760D01*
X159959040Y-58912760D01*
X159959040Y-56626760D01*
X159939040Y-56626760D01*
X159939040Y-56372760D01*
X159959040Y-56372760D01*
X159959040Y-54086760D01*
X159939040Y-54086760D01*
X159939040Y-53832760D01*
X159959040Y-53832760D01*
X159959040Y-51546760D01*
X157673040Y-51546760D01*
X157673040Y-51566760D01*
X157419040Y-51566760D01*
X157419040Y-51546760D01*
X156225885Y-51546760D01*
X156104564Y-51776650D01*
X156134322Y-51874759D01*
X144154638Y-51874759D01*
X144184396Y-51776650D01*
X144063075Y-51546760D01*
X142869920Y-51546760D01*
X142869920Y-51566760D01*
X142615920Y-51566760D01*
X142615920Y-51546760D01*
X140329920Y-51546760D01*
X140329920Y-51566760D01*
X140075920Y-51566760D01*
X140075920Y-51546760D01*
X140055920Y-51546760D01*
X140055920Y-51292760D01*
X140075920Y-51292760D01*
X140075920Y-51272760D01*
X140329920Y-51272760D01*
X140329920Y-51292760D01*
X142615920Y-51292760D01*
X142615920Y-51272760D01*
X142869920Y-51272760D01*
X142869920Y-51292760D01*
X144063075Y-51292760D01*
X144184396Y-51062870D01*
X144154638Y-50964761D01*
X156134322Y-50964761D01*
X156104564Y-51062870D01*
X156225885Y-51292760D01*
X157419040Y-51292760D01*
X157419040Y-51272760D01*
X157673040Y-51272760D01*
X157673040Y-51292760D01*
X159959040Y-51292760D01*
X159959040Y-49006760D01*
X159939040Y-49006760D01*
X159939040Y-48752760D01*
X159959040Y-48752760D01*
X159959040Y-46466760D01*
X159939040Y-46466760D01*
X159939040Y-46212760D01*
X159959040Y-46212760D01*
X159959040Y-43926760D01*
X159939040Y-43926760D01*
X159939040Y-43672760D01*
X159959040Y-43672760D01*
X159959040Y-41386760D01*
X159939040Y-41386760D01*
X159939040Y-41132760D01*
X159959040Y-41132760D01*
X159959040Y-41112760D01*
X160213040Y-41112760D01*
X160213040Y-41132760D01*
G37*
%TD.AperFunction*%
D14*
X156087233Y-99401821D02*
X156061040Y-99533500D01*
X156061040Y-99826020D01*
X156118108Y-100112918D01*
X156230050Y-100383171D01*
X156392565Y-100626392D01*
X156599408Y-100833235D01*
X156773800Y-100949760D01*
X156599408Y-101066285D01*
X156392565Y-101273128D01*
X156346114Y-101342646D01*
X147751807Y-92748340D01*
X147725652Y-92716470D01*
X147598507Y-92612125D01*
X147453448Y-92534589D01*
X147296050Y-92486843D01*
X147173380Y-92474761D01*
X147173379Y-92474761D01*
X147132361Y-92470721D01*
X147091343Y-92474761D01*
X144166770Y-92474761D01*
X144184396Y-92416650D01*
X144063075Y-92186760D01*
X142869920Y-92186760D01*
X142869920Y-92206760D01*
X142615920Y-92206760D01*
X142615920Y-92186760D01*
X142595920Y-92186760D01*
X142595920Y-91932760D01*
X142615920Y-91932760D01*
X142615920Y-91912760D01*
X142869920Y-91912760D01*
X142869920Y-91932760D01*
X144063075Y-91932760D01*
X144184396Y-91702870D01*
X144154638Y-91604761D01*
X148290174Y-91604761D01*
X156087233Y-99401821D01*
%TA.AperFunction,Conductor*%
D15*
G36*
X156087233Y-99401821D02*
G01*
X156061040Y-99533500D01*
X156061040Y-99826020D01*
X156118108Y-100112918D01*
X156230050Y-100383171D01*
X156392565Y-100626392D01*
X156599408Y-100833235D01*
X156773800Y-100949760D01*
X156599408Y-101066285D01*
X156392565Y-101273128D01*
X156346114Y-101342646D01*
X147751807Y-92748340D01*
X147725652Y-92716470D01*
X147598507Y-92612125D01*
X147453448Y-92534589D01*
X147296050Y-92486843D01*
X147173380Y-92474761D01*
X147173379Y-92474761D01*
X147132361Y-92470721D01*
X147091343Y-92474761D01*
X144166770Y-92474761D01*
X144184396Y-92416650D01*
X144063075Y-92186760D01*
X142869920Y-92186760D01*
X142869920Y-92206760D01*
X142615920Y-92206760D01*
X142615920Y-92186760D01*
X142595920Y-92186760D01*
X142595920Y-91932760D01*
X142615920Y-91932760D01*
X142615920Y-91912760D01*
X142869920Y-91912760D01*
X142869920Y-91932760D01*
X144063075Y-91932760D01*
X144184396Y-91702870D01*
X144154638Y-91604761D01*
X148290174Y-91604761D01*
X156087233Y-99401821D01*
G37*
%TD.AperFunction*%
D14*
X156087233Y-96861821D02*
X156061040Y-96993500D01*
X156061040Y-97013892D01*
X149255487Y-90208340D01*
X149229332Y-90176470D01*
X149102187Y-90072125D01*
X148957128Y-89994589D01*
X148799730Y-89946843D01*
X148677060Y-89934761D01*
X148677059Y-89934761D01*
X148636041Y-89930721D01*
X148595023Y-89934761D01*
X144166770Y-89934761D01*
X144184396Y-89876650D01*
X144063075Y-89646760D01*
X142869920Y-89646760D01*
X142869920Y-89666760D01*
X142615920Y-89666760D01*
X142615920Y-89646760D01*
X142595920Y-89646760D01*
X142595920Y-89392760D01*
X142615920Y-89392760D01*
X142615920Y-89372760D01*
X142869920Y-89372760D01*
X142869920Y-89392760D01*
X144063075Y-89392760D01*
X144184396Y-89162870D01*
X144166770Y-89104759D01*
X148330172Y-89104759D01*
X156087233Y-96861821D01*
%TA.AperFunction,Conductor*%
D15*
G36*
X156087233Y-96861821D02*
G01*
X156061040Y-96993500D01*
X156061040Y-97013892D01*
X149255487Y-90208340D01*
X149229332Y-90176470D01*
X149102187Y-90072125D01*
X148957128Y-89994589D01*
X148799730Y-89946843D01*
X148677060Y-89934761D01*
X148677059Y-89934761D01*
X148636041Y-89930721D01*
X148595023Y-89934761D01*
X144166770Y-89934761D01*
X144184396Y-89876650D01*
X144063075Y-89646760D01*
X142869920Y-89646760D01*
X142869920Y-89666760D01*
X142615920Y-89666760D01*
X142615920Y-89646760D01*
X142595920Y-89646760D01*
X142595920Y-89392760D01*
X142615920Y-89392760D01*
X142615920Y-89372760D01*
X142869920Y-89372760D01*
X142869920Y-89392760D01*
X144063075Y-89392760D01*
X144184396Y-89162870D01*
X144166770Y-89104759D01*
X148330172Y-89104759D01*
X156087233Y-96861821D01*
G37*
%TD.AperFunction*%
D14*
X156087233Y-94321821D02*
X156061040Y-94453500D01*
X156061040Y-94473891D01*
X149295485Y-87708338D01*
X149269330Y-87676468D01*
X149142185Y-87572123D01*
X148997126Y-87494587D01*
X148839728Y-87446841D01*
X148717058Y-87434759D01*
X148717057Y-87434759D01*
X148676039Y-87430719D01*
X148635021Y-87434759D01*
X144154638Y-87434759D01*
X144184396Y-87336650D01*
X144063075Y-87106760D01*
X142869920Y-87106760D01*
X142869920Y-87126760D01*
X142615920Y-87126760D01*
X142615920Y-87106760D01*
X142595920Y-87106760D01*
X142595920Y-86852760D01*
X142615920Y-86852760D01*
X142615920Y-86832760D01*
X142869920Y-86832760D01*
X142869920Y-86852760D01*
X144063075Y-86852760D01*
X144184396Y-86622870D01*
X144154638Y-86524761D01*
X148290174Y-86524761D01*
X156087233Y-94321821D01*
%TA.AperFunction,Conductor*%
D15*
G36*
X156087233Y-94321821D02*
G01*
X156061040Y-94453500D01*
X156061040Y-94473891D01*
X149295485Y-87708338D01*
X149269330Y-87676468D01*
X149142185Y-87572123D01*
X148997126Y-87494587D01*
X148839728Y-87446841D01*
X148717058Y-87434759D01*
X148717057Y-87434759D01*
X148676039Y-87430719D01*
X148635021Y-87434759D01*
X144154638Y-87434759D01*
X144184396Y-87336650D01*
X144063075Y-87106760D01*
X142869920Y-87106760D01*
X142869920Y-87126760D01*
X142615920Y-87126760D01*
X142615920Y-87106760D01*
X142595920Y-87106760D01*
X142595920Y-86852760D01*
X142615920Y-86852760D01*
X142615920Y-86832760D01*
X142869920Y-86832760D01*
X142869920Y-86852760D01*
X144063075Y-86852760D01*
X144184396Y-86622870D01*
X144154638Y-86524761D01*
X148290174Y-86524761D01*
X156087233Y-94321821D01*
G37*
%TD.AperFunction*%
D14*
X156087233Y-91781821D02*
X156061040Y-91913500D01*
X156061040Y-91933892D01*
X149255487Y-85128340D01*
X149229332Y-85096470D01*
X149102187Y-84992125D01*
X148957128Y-84914589D01*
X148799730Y-84866843D01*
X148677060Y-84854761D01*
X148677059Y-84854761D01*
X148636041Y-84850721D01*
X148595023Y-84854761D01*
X144166770Y-84854761D01*
X144184396Y-84796650D01*
X144063075Y-84566760D01*
X142869920Y-84566760D01*
X142869920Y-84586760D01*
X142615920Y-84586760D01*
X142615920Y-84566760D01*
X142595920Y-84566760D01*
X142595920Y-84312760D01*
X142615920Y-84312760D01*
X142615920Y-84292760D01*
X142869920Y-84292760D01*
X142869920Y-84312760D01*
X144063075Y-84312760D01*
X144184396Y-84082870D01*
X144166770Y-84024759D01*
X148330172Y-84024759D01*
X156087233Y-91781821D01*
%TA.AperFunction,Conductor*%
D15*
G36*
X156087233Y-91781821D02*
G01*
X156061040Y-91913500D01*
X156061040Y-91933892D01*
X149255487Y-85128340D01*
X149229332Y-85096470D01*
X149102187Y-84992125D01*
X148957128Y-84914589D01*
X148799730Y-84866843D01*
X148677060Y-84854761D01*
X148677059Y-84854761D01*
X148636041Y-84850721D01*
X148595023Y-84854761D01*
X144166770Y-84854761D01*
X144184396Y-84796650D01*
X144063075Y-84566760D01*
X142869920Y-84566760D01*
X142869920Y-84586760D01*
X142615920Y-84586760D01*
X142615920Y-84566760D01*
X142595920Y-84566760D01*
X142595920Y-84312760D01*
X142615920Y-84312760D01*
X142615920Y-84292760D01*
X142869920Y-84292760D01*
X142869920Y-84312760D01*
X144063075Y-84312760D01*
X144184396Y-84082870D01*
X144166770Y-84024759D01*
X148330172Y-84024759D01*
X156087233Y-91781821D01*
G37*
%TD.AperFunction*%
D14*
X156087233Y-89241821D02*
X156061040Y-89373500D01*
X156061040Y-89393891D01*
X149295485Y-82628338D01*
X149269330Y-82596468D01*
X149142185Y-82492123D01*
X148997126Y-82414587D01*
X148839728Y-82366841D01*
X148717058Y-82354759D01*
X148717057Y-82354759D01*
X148676039Y-82350719D01*
X148635021Y-82354759D01*
X144154638Y-82354759D01*
X144184396Y-82256650D01*
X144063075Y-82026760D01*
X142869920Y-82026760D01*
X142869920Y-82046760D01*
X142615920Y-82046760D01*
X142615920Y-82026760D01*
X142595920Y-82026760D01*
X142595920Y-81772760D01*
X142615920Y-81772760D01*
X142615920Y-81752760D01*
X142869920Y-81752760D01*
X142869920Y-81772760D01*
X144063075Y-81772760D01*
X144184396Y-81542870D01*
X144166770Y-81484759D01*
X148330172Y-81484759D01*
X156087233Y-89241821D01*
%TA.AperFunction,Conductor*%
D15*
G36*
X156087233Y-89241821D02*
G01*
X156061040Y-89373500D01*
X156061040Y-89393891D01*
X149295485Y-82628338D01*
X149269330Y-82596468D01*
X149142185Y-82492123D01*
X148997126Y-82414587D01*
X148839728Y-82366841D01*
X148717058Y-82354759D01*
X148717057Y-82354759D01*
X148676039Y-82350719D01*
X148635021Y-82354759D01*
X144154638Y-82354759D01*
X144184396Y-82256650D01*
X144063075Y-82026760D01*
X142869920Y-82026760D01*
X142869920Y-82046760D01*
X142615920Y-82046760D01*
X142615920Y-82026760D01*
X142595920Y-82026760D01*
X142595920Y-81772760D01*
X142615920Y-81772760D01*
X142615920Y-81752760D01*
X142869920Y-81752760D01*
X142869920Y-81772760D01*
X144063075Y-81772760D01*
X144184396Y-81542870D01*
X144166770Y-81484759D01*
X148330172Y-81484759D01*
X156087233Y-89241821D01*
G37*
%TD.AperFunction*%
D14*
X156087233Y-86701821D02*
X156061040Y-86833500D01*
X156061040Y-86853891D01*
X149295485Y-80088338D01*
X149269330Y-80056468D01*
X149142185Y-79952123D01*
X148997126Y-79874587D01*
X148839728Y-79826841D01*
X148717058Y-79814759D01*
X148717057Y-79814759D01*
X148676039Y-79810719D01*
X148635021Y-79814759D01*
X144154638Y-79814759D01*
X144184396Y-79716650D01*
X144063075Y-79486760D01*
X142869920Y-79486760D01*
X142869920Y-79506760D01*
X142615920Y-79506760D01*
X142615920Y-79486760D01*
X142595920Y-79486760D01*
X142595920Y-79232760D01*
X142615920Y-79232760D01*
X142615920Y-79212760D01*
X142869920Y-79212760D01*
X142869920Y-79232760D01*
X144063075Y-79232760D01*
X144184396Y-79002870D01*
X144166770Y-78944759D01*
X148330172Y-78944759D01*
X156087233Y-86701821D01*
%TA.AperFunction,Conductor*%
D15*
G36*
X156087233Y-86701821D02*
G01*
X156061040Y-86833500D01*
X156061040Y-86853891D01*
X149295485Y-80088338D01*
X149269330Y-80056468D01*
X149142185Y-79952123D01*
X148997126Y-79874587D01*
X148839728Y-79826841D01*
X148717058Y-79814759D01*
X148717057Y-79814759D01*
X148676039Y-79810719D01*
X148635021Y-79814759D01*
X144154638Y-79814759D01*
X144184396Y-79716650D01*
X144063075Y-79486760D01*
X142869920Y-79486760D01*
X142869920Y-79506760D01*
X142615920Y-79506760D01*
X142615920Y-79486760D01*
X142595920Y-79486760D01*
X142595920Y-79232760D01*
X142615920Y-79232760D01*
X142615920Y-79212760D01*
X142869920Y-79212760D01*
X142869920Y-79232760D01*
X144063075Y-79232760D01*
X144184396Y-79002870D01*
X144166770Y-78944759D01*
X148330172Y-78944759D01*
X156087233Y-86701821D01*
G37*
%TD.AperFunction*%
D14*
X156087233Y-84161821D02*
X156061040Y-84293500D01*
X156061040Y-84313891D01*
X149295485Y-77548338D01*
X149269330Y-77516468D01*
X149142185Y-77412123D01*
X148997126Y-77334587D01*
X148839728Y-77286841D01*
X148717058Y-77274759D01*
X148717057Y-77274759D01*
X148676039Y-77270719D01*
X148635021Y-77274759D01*
X144154638Y-77274759D01*
X144184396Y-77176650D01*
X144063075Y-76946760D01*
X142869920Y-76946760D01*
X142869920Y-76966760D01*
X142615920Y-76966760D01*
X142615920Y-76946760D01*
X142595920Y-76946760D01*
X142595920Y-76692760D01*
X142615920Y-76692760D01*
X142615920Y-76672760D01*
X142869920Y-76672760D01*
X142869920Y-76692760D01*
X144063075Y-76692760D01*
X144184396Y-76462870D01*
X144166770Y-76404759D01*
X148330172Y-76404759D01*
X156087233Y-84161821D01*
%TA.AperFunction,Conductor*%
D15*
G36*
X156087233Y-84161821D02*
G01*
X156061040Y-84293500D01*
X156061040Y-84313891D01*
X149295485Y-77548338D01*
X149269330Y-77516468D01*
X149142185Y-77412123D01*
X148997126Y-77334587D01*
X148839728Y-77286841D01*
X148717058Y-77274759D01*
X148717057Y-77274759D01*
X148676039Y-77270719D01*
X148635021Y-77274759D01*
X144154638Y-77274759D01*
X144184396Y-77176650D01*
X144063075Y-76946760D01*
X142869920Y-76946760D01*
X142869920Y-76966760D01*
X142615920Y-76966760D01*
X142615920Y-76946760D01*
X142595920Y-76946760D01*
X142595920Y-76692760D01*
X142615920Y-76692760D01*
X142615920Y-76672760D01*
X142869920Y-76672760D01*
X142869920Y-76692760D01*
X144063075Y-76692760D01*
X144184396Y-76462870D01*
X144166770Y-76404759D01*
X148330172Y-76404759D01*
X156087233Y-84161821D01*
G37*
%TD.AperFunction*%
D14*
X156087233Y-81621821D02*
X156061040Y-81753500D01*
X156061040Y-81773891D01*
X149295485Y-75008338D01*
X149269330Y-74976468D01*
X149142185Y-74872123D01*
X148997126Y-74794587D01*
X148839728Y-74746841D01*
X148717058Y-74734759D01*
X148717057Y-74734759D01*
X148676039Y-74730719D01*
X148635021Y-74734759D01*
X144154638Y-74734759D01*
X144184396Y-74636650D01*
X144063075Y-74406760D01*
X142869920Y-74406760D01*
X142869920Y-74426760D01*
X142615920Y-74426760D01*
X142615920Y-74406760D01*
X142595920Y-74406760D01*
X142595920Y-74152760D01*
X142615920Y-74152760D01*
X142615920Y-74132760D01*
X142869920Y-74132760D01*
X142869920Y-74152760D01*
X144063075Y-74152760D01*
X144184396Y-73922870D01*
X144166770Y-73864759D01*
X148330172Y-73864759D01*
X156087233Y-81621821D01*
%TA.AperFunction,Conductor*%
D15*
G36*
X156087233Y-81621821D02*
G01*
X156061040Y-81753500D01*
X156061040Y-81773891D01*
X149295485Y-75008338D01*
X149269330Y-74976468D01*
X149142185Y-74872123D01*
X148997126Y-74794587D01*
X148839728Y-74746841D01*
X148717058Y-74734759D01*
X148717057Y-74734759D01*
X148676039Y-74730719D01*
X148635021Y-74734759D01*
X144154638Y-74734759D01*
X144184396Y-74636650D01*
X144063075Y-74406760D01*
X142869920Y-74406760D01*
X142869920Y-74426760D01*
X142615920Y-74426760D01*
X142615920Y-74406760D01*
X142595920Y-74406760D01*
X142595920Y-74152760D01*
X142615920Y-74152760D01*
X142615920Y-74132760D01*
X142869920Y-74132760D01*
X142869920Y-74152760D01*
X144063075Y-74152760D01*
X144184396Y-73922870D01*
X144166770Y-73864759D01*
X148330172Y-73864759D01*
X156087233Y-81621821D01*
G37*
%TD.AperFunction*%
D14*
X156087233Y-56221820D02*
X156061040Y-56353500D01*
X156061040Y-56646020D01*
X156114496Y-56914761D01*
X144166770Y-56914761D01*
X144184396Y-56856650D01*
X144063075Y-56626760D01*
X142869920Y-56626760D01*
X142869920Y-56646760D01*
X142615920Y-56646760D01*
X142615920Y-56626760D01*
X142595920Y-56626760D01*
X142595920Y-56372760D01*
X142615920Y-56372760D01*
X142615920Y-56352760D01*
X142869920Y-56352760D01*
X142869920Y-56372760D01*
X144063075Y-56372760D01*
X144184396Y-56142870D01*
X144166770Y-56084759D01*
X155950172Y-56084759D01*
X156087233Y-56221820D01*
%TA.AperFunction,Conductor*%
D15*
G36*
X156087233Y-56221820D02*
G01*
X156061040Y-56353500D01*
X156061040Y-56646020D01*
X156114496Y-56914761D01*
X144166770Y-56914761D01*
X144184396Y-56856650D01*
X144063075Y-56626760D01*
X142869920Y-56626760D01*
X142869920Y-56646760D01*
X142615920Y-56646760D01*
X142615920Y-56626760D01*
X142595920Y-56626760D01*
X142595920Y-56372760D01*
X142615920Y-56372760D01*
X142615920Y-56352760D01*
X142869920Y-56352760D01*
X142869920Y-56372760D01*
X144063075Y-56372760D01*
X144184396Y-56142870D01*
X144166770Y-56084759D01*
X155950172Y-56084759D01*
X156087233Y-56221820D01*
G37*
%TD.AperFunction*%
D14*
X156087233Y-53681820D02*
X156061040Y-53813500D01*
X156061040Y-54106020D01*
X156118108Y-54392918D01*
X156127155Y-54414759D01*
X144154638Y-54414759D01*
X144184396Y-54316650D01*
X144063075Y-54086760D01*
X142869920Y-54086760D01*
X142869920Y-54106760D01*
X142615920Y-54106760D01*
X142615920Y-54086760D01*
X142595920Y-54086760D01*
X142595920Y-53832760D01*
X142615920Y-53832760D01*
X142615920Y-53812760D01*
X142869920Y-53812760D01*
X142869920Y-53832760D01*
X144063075Y-53832760D01*
X144184396Y-53602870D01*
X144166770Y-53544759D01*
X155950172Y-53544759D01*
X156087233Y-53681820D01*
%TA.AperFunction,Conductor*%
D15*
G36*
X156087233Y-53681820D02*
G01*
X156061040Y-53813500D01*
X156061040Y-54106020D01*
X156118108Y-54392918D01*
X156127155Y-54414759D01*
X144154638Y-54414759D01*
X144184396Y-54316650D01*
X144063075Y-54086760D01*
X142869920Y-54086760D01*
X142869920Y-54106760D01*
X142615920Y-54106760D01*
X142615920Y-54086760D01*
X142595920Y-54086760D01*
X142595920Y-53832760D01*
X142615920Y-53832760D01*
X142615920Y-53812760D01*
X142869920Y-53812760D01*
X142869920Y-53832760D01*
X144063075Y-53832760D01*
X144184396Y-53602870D01*
X144166770Y-53544759D01*
X155950172Y-53544759D01*
X156087233Y-53681820D01*
G37*
%TD.AperFunction*%
D14*
X156061040Y-48733500D02*
X156061040Y-49026020D01*
X156087233Y-49157700D01*
X155950172Y-49294761D01*
X144166770Y-49294761D01*
X144184396Y-49236650D01*
X144063075Y-49006760D01*
X142869920Y-49006760D01*
X142869920Y-49026760D01*
X142615920Y-49026760D01*
X142615920Y-49006760D01*
X142595920Y-49006760D01*
X142595920Y-48752760D01*
X142615920Y-48752760D01*
X142615920Y-48732760D01*
X142869920Y-48732760D01*
X142869920Y-48752760D01*
X144063075Y-48752760D01*
X144184396Y-48522870D01*
X144166770Y-48464759D01*
X156114496Y-48464759D01*
X156061040Y-48733500D01*
%TA.AperFunction,Conductor*%
D15*
G36*
X156061040Y-48733500D02*
G01*
X156061040Y-49026020D01*
X156087233Y-49157700D01*
X155950172Y-49294761D01*
X144166770Y-49294761D01*
X144184396Y-49236650D01*
X144063075Y-49006760D01*
X142869920Y-49006760D01*
X142869920Y-49026760D01*
X142615920Y-49026760D01*
X142615920Y-49006760D01*
X142595920Y-49006760D01*
X142595920Y-48752760D01*
X142615920Y-48752760D01*
X142615920Y-48732760D01*
X142869920Y-48732760D01*
X142869920Y-48752760D01*
X144063075Y-48752760D01*
X144184396Y-48522870D01*
X144166770Y-48464759D01*
X156114496Y-48464759D01*
X156061040Y-48733500D01*
G37*
%TD.AperFunction*%
D14*
X156118108Y-45906602D02*
X156061040Y-46193500D01*
X156061040Y-46486020D01*
X156087233Y-46617700D01*
X155910174Y-46794759D01*
X144154638Y-46794759D01*
X144184396Y-46696650D01*
X144063075Y-46466760D01*
X142869920Y-46466760D01*
X142869920Y-46486760D01*
X142615920Y-46486760D01*
X142615920Y-46466760D01*
X142595920Y-46466760D01*
X142595920Y-46212760D01*
X142615920Y-46212760D01*
X142615920Y-46192760D01*
X142869920Y-46192760D01*
X142869920Y-46212760D01*
X144063075Y-46212760D01*
X144184396Y-45982870D01*
X144154638Y-45884761D01*
X156127155Y-45884761D01*
X156118108Y-45906602D01*
%TA.AperFunction,Conductor*%
D15*
G36*
X156118108Y-45906602D02*
G01*
X156061040Y-46193500D01*
X156061040Y-46486020D01*
X156087233Y-46617700D01*
X155910174Y-46794759D01*
X144154638Y-46794759D01*
X144184396Y-46696650D01*
X144063075Y-46466760D01*
X142869920Y-46466760D01*
X142869920Y-46486760D01*
X142615920Y-46486760D01*
X142615920Y-46466760D01*
X142595920Y-46466760D01*
X142595920Y-46212760D01*
X142615920Y-46212760D01*
X142615920Y-46192760D01*
X142869920Y-46192760D01*
X142869920Y-46212760D01*
X144063075Y-46212760D01*
X144184396Y-45982870D01*
X144154638Y-45884761D01*
X156127155Y-45884761D01*
X156118108Y-45906602D01*
G37*
%TD.AperFunction*%
D14*
X156087233Y-40981820D02*
X156061040Y-41113500D01*
X156061040Y-41406020D01*
X156118108Y-41692918D01*
X156230050Y-41963171D01*
X156392565Y-42206392D01*
X156599408Y-42413235D01*
X156773800Y-42529760D01*
X156599408Y-42646285D01*
X156392565Y-42853128D01*
X156230050Y-43096349D01*
X156118108Y-43366602D01*
X156061040Y-43653500D01*
X156061040Y-43946020D01*
X156087233Y-44077700D01*
X155950172Y-44214761D01*
X144166770Y-44214761D01*
X144184396Y-44156650D01*
X144063075Y-43926760D01*
X142869920Y-43926760D01*
X142869920Y-43946760D01*
X142615920Y-43946760D01*
X142615920Y-43926760D01*
X142595920Y-43926760D01*
X142595920Y-43672760D01*
X142615920Y-43672760D01*
X142615920Y-41386760D01*
X142869920Y-41386760D01*
X142869920Y-43672760D01*
X144063075Y-43672760D01*
X144184396Y-43442870D01*
X144139745Y-43295661D01*
X144014561Y-43032840D01*
X143840508Y-42799491D01*
X143624275Y-42604582D01*
X143498665Y-42529760D01*
X143624275Y-42454938D01*
X143840508Y-42260029D01*
X144014561Y-42026680D01*
X144139745Y-41763859D01*
X144184396Y-41616650D01*
X144063075Y-41386760D01*
X142869920Y-41386760D01*
X142615920Y-41386760D01*
X142595920Y-41386760D01*
X142595920Y-41132760D01*
X142615920Y-41132760D01*
X142615920Y-41112760D01*
X142869920Y-41112760D01*
X142869920Y-41132760D01*
X144063075Y-41132760D01*
X144184396Y-40902870D01*
X144166770Y-40844759D01*
X155950172Y-40844759D01*
X156087233Y-40981820D01*
%TA.AperFunction,Conductor*%
D15*
G36*
X156087233Y-40981820D02*
G01*
X156061040Y-41113500D01*
X156061040Y-41406020D01*
X156118108Y-41692918D01*
X156230050Y-41963171D01*
X156392565Y-42206392D01*
X156599408Y-42413235D01*
X156773800Y-42529760D01*
X156599408Y-42646285D01*
X156392565Y-42853128D01*
X156230050Y-43096349D01*
X156118108Y-43366602D01*
X156061040Y-43653500D01*
X156061040Y-43946020D01*
X156087233Y-44077700D01*
X155950172Y-44214761D01*
X144166770Y-44214761D01*
X144184396Y-44156650D01*
X144063075Y-43926760D01*
X142869920Y-43926760D01*
X142869920Y-43946760D01*
X142615920Y-43946760D01*
X142615920Y-43926760D01*
X142595920Y-43926760D01*
X142595920Y-43672760D01*
X142615920Y-43672760D01*
X142615920Y-41386760D01*
X142869920Y-41386760D01*
X142869920Y-43672760D01*
X144063075Y-43672760D01*
X144184396Y-43442870D01*
X144139745Y-43295661D01*
X144014561Y-43032840D01*
X143840508Y-42799491D01*
X143624275Y-42604582D01*
X143498665Y-42529760D01*
X143624275Y-42454938D01*
X143840508Y-42260029D01*
X144014561Y-42026680D01*
X144139745Y-41763859D01*
X144184396Y-41616650D01*
X144063075Y-41386760D01*
X142869920Y-41386760D01*
X142615920Y-41386760D01*
X142595920Y-41386760D01*
X142595920Y-41132760D01*
X142615920Y-41132760D01*
X142615920Y-41112760D01*
X142869920Y-41112760D01*
X142869920Y-41132760D01*
X144063075Y-41132760D01*
X144184396Y-40902870D01*
X144166770Y-40844759D01*
X155950172Y-40844759D01*
X156087233Y-40981820D01*
G37*
%TD.AperFunction*%
%TD*%
M02*
