%TF.GenerationSoftware,KiCad,Pcbnew,(5.1.9)-1*%
%TF.CreationDate,2021-07-31T16:05:11-05:00*%
%TF.ProjectId,SCSI Interface Card,53435349-2049-46e7-9465-726661636520,rev?*%
%TF.SameCoordinates,Original*%
%TF.FileFunction,Legend,Top*%
%TF.FilePolarity,Positive*%
%FSLAX46Y46*%
G04 Gerber Fmt 4.6, Leading zero omitted, Abs format (unit mm)*
G04 Created by KiCad (PCBNEW (5.1.9)-1) date 2021-07-31 16:05:11*
%MOMM*%
%LPD*%
G01*
G04 APERTURE LIST*
%ADD10C,0.150000*%
%ADD11C,0.120000*%
G04 APERTURE END LIST*
D10*
X150955120Y-99598384D02*
X150907500Y-99693622D01*
X150907500Y-99836480D01*
X150955120Y-99979337D01*
X151050358Y-100074575D01*
X151145596Y-100122194D01*
X151336072Y-100169813D01*
X151478929Y-100169813D01*
X151669405Y-100122194D01*
X151764643Y-100074575D01*
X151859881Y-99979337D01*
X151907500Y-99836480D01*
X151907500Y-99741241D01*
X151859881Y-99598384D01*
X151812262Y-99550765D01*
X151478929Y-99550765D01*
X151478929Y-99741241D01*
X151907500Y-99122194D02*
X150907500Y-99122194D01*
X151907500Y-98550765D01*
X150907500Y-98550765D01*
X151907500Y-98074575D02*
X150907500Y-98074575D01*
X150907500Y-97836480D01*
X150955120Y-97693622D01*
X151050358Y-97598384D01*
X151145596Y-97550765D01*
X151336072Y-97503146D01*
X151478929Y-97503146D01*
X151669405Y-97550765D01*
X151764643Y-97598384D01*
X151859881Y-97693622D01*
X151907500Y-97836480D01*
X151907500Y-98074575D01*
D11*
X150474680Y-72090280D02*
X150002240Y-71236840D01*
X149412960Y-72090280D02*
X150474680Y-72090280D01*
X149981920Y-71231760D02*
X149412960Y-72090280D01*
X149981920Y-73299320D02*
X149981920Y-71231760D01*
X154548840Y-53248560D02*
X155117800Y-53934360D01*
X154569160Y-54604920D02*
X154548840Y-53248560D01*
X155138120Y-53903880D02*
X154569160Y-54604920D01*
X152643840Y-53903880D02*
X155138120Y-53903880D01*
X145145760Y-53035200D02*
X145049240Y-54467760D01*
X144404080Y-53690520D02*
X145145760Y-53035200D01*
X144404080Y-53695600D02*
X145028920Y-54472840D01*
X145923000Y-53700680D02*
X144404080Y-53695600D01*
D10*
X151641441Y-58286114D02*
X151689060Y-58143257D01*
X151689060Y-57905161D01*
X151641441Y-57809923D01*
X151593822Y-57762304D01*
X151498584Y-57714685D01*
X151403346Y-57714685D01*
X151308108Y-57762304D01*
X151260489Y-57809923D01*
X151212870Y-57905161D01*
X151165251Y-58095638D01*
X151117632Y-58190876D01*
X151070013Y-58238495D01*
X150974775Y-58286114D01*
X150879537Y-58286114D01*
X150784299Y-58238495D01*
X150736680Y-58190876D01*
X150689060Y-58095638D01*
X150689060Y-57857542D01*
X150736680Y-57714685D01*
X151593822Y-56714685D02*
X151641441Y-56762304D01*
X151689060Y-56905161D01*
X151689060Y-57000400D01*
X151641441Y-57143257D01*
X151546203Y-57238495D01*
X151450965Y-57286114D01*
X151260489Y-57333733D01*
X151117632Y-57333733D01*
X150927156Y-57286114D01*
X150831918Y-57238495D01*
X150736680Y-57143257D01*
X150689060Y-57000400D01*
X150689060Y-56905161D01*
X150736680Y-56762304D01*
X150784299Y-56714685D01*
X151641441Y-56333733D02*
X151689060Y-56190876D01*
X151689060Y-55952780D01*
X151641441Y-55857542D01*
X151593822Y-55809923D01*
X151498584Y-55762304D01*
X151403346Y-55762304D01*
X151308108Y-55809923D01*
X151260489Y-55857542D01*
X151212870Y-55952780D01*
X151165251Y-56143257D01*
X151117632Y-56238495D01*
X151070013Y-56286114D01*
X150974775Y-56333733D01*
X150879537Y-56333733D01*
X150784299Y-56286114D01*
X150736680Y-56238495D01*
X150689060Y-56143257D01*
X150689060Y-55905161D01*
X150736680Y-55762304D01*
X151689060Y-55333733D02*
X150689060Y-55333733D01*
X151689060Y-54095638D02*
X150689060Y-54095638D01*
X150689060Y-53857542D01*
X150736680Y-53714685D01*
X150831918Y-53619447D01*
X150927156Y-53571828D01*
X151117632Y-53524209D01*
X151260489Y-53524209D01*
X151450965Y-53571828D01*
X151546203Y-53619447D01*
X151641441Y-53714685D01*
X151689060Y-53857542D01*
X151689060Y-54095638D01*
X151641441Y-52714685D02*
X151689060Y-52809923D01*
X151689060Y-53000400D01*
X151641441Y-53095638D01*
X151546203Y-53143257D01*
X151165251Y-53143257D01*
X151070013Y-53095638D01*
X151022394Y-53000400D01*
X151022394Y-52809923D01*
X151070013Y-52714685D01*
X151165251Y-52667066D01*
X151260489Y-52667066D01*
X151355727Y-53143257D01*
X151022394Y-52333733D02*
X151689060Y-52095638D01*
X151022394Y-51857542D01*
X151689060Y-51476590D02*
X151022394Y-51476590D01*
X150689060Y-51476590D02*
X150736680Y-51524209D01*
X150784299Y-51476590D01*
X150736680Y-51428971D01*
X150689060Y-51476590D01*
X150784299Y-51476590D01*
X151641441Y-50571828D02*
X151689060Y-50667066D01*
X151689060Y-50857542D01*
X151641441Y-50952780D01*
X151593822Y-51000400D01*
X151498584Y-51048019D01*
X151212870Y-51048019D01*
X151117632Y-51000400D01*
X151070013Y-50952780D01*
X151022394Y-50857542D01*
X151022394Y-50667066D01*
X151070013Y-50571828D01*
X151641441Y-49762304D02*
X151689060Y-49857542D01*
X151689060Y-50048019D01*
X151641441Y-50143257D01*
X151546203Y-50190876D01*
X151165251Y-50190876D01*
X151070013Y-50143257D01*
X151022394Y-50048019D01*
X151022394Y-49857542D01*
X151070013Y-49762304D01*
X151165251Y-49714685D01*
X151260489Y-49714685D01*
X151355727Y-50190876D01*
X146943771Y-58667375D02*
X146943771Y-59000708D01*
X147467580Y-59000708D02*
X146467580Y-59000708D01*
X146467580Y-58524518D01*
X147467580Y-58143565D02*
X146467580Y-58143565D01*
X147181866Y-57810232D01*
X146467580Y-57476899D01*
X147467580Y-57476899D01*
X146467580Y-57143565D02*
X146467580Y-56572137D01*
X147467580Y-56857851D02*
X146467580Y-56857851D01*
X147372342Y-54905470D02*
X147419961Y-54953089D01*
X147467580Y-55095946D01*
X147467580Y-55191184D01*
X147419961Y-55334041D01*
X147324723Y-55429280D01*
X147229485Y-55476899D01*
X147039009Y-55524518D01*
X146896152Y-55524518D01*
X146705676Y-55476899D01*
X146610438Y-55429280D01*
X146515200Y-55334041D01*
X146467580Y-55191184D01*
X146467580Y-55095946D01*
X146515200Y-54953089D01*
X146562819Y-54905470D01*
X147467580Y-54334041D02*
X147419961Y-54429280D01*
X147372342Y-54476899D01*
X147277104Y-54524518D01*
X146991390Y-54524518D01*
X146896152Y-54476899D01*
X146848533Y-54429280D01*
X146800914Y-54334041D01*
X146800914Y-54191184D01*
X146848533Y-54095946D01*
X146896152Y-54048327D01*
X146991390Y-54000708D01*
X147277104Y-54000708D01*
X147372342Y-54048327D01*
X147419961Y-54095946D01*
X147467580Y-54191184D01*
X147467580Y-54334041D01*
X147467580Y-53572137D02*
X146800914Y-53572137D01*
X146896152Y-53572137D02*
X146848533Y-53524518D01*
X146800914Y-53429280D01*
X146800914Y-53286422D01*
X146848533Y-53191184D01*
X146943771Y-53143565D01*
X147467580Y-53143565D01*
X146943771Y-53143565D02*
X146848533Y-53095946D01*
X146800914Y-53000708D01*
X146800914Y-52857851D01*
X146848533Y-52762613D01*
X146943771Y-52714994D01*
X147467580Y-52714994D01*
X146800914Y-52238803D02*
X147800914Y-52238803D01*
X146848533Y-52238803D02*
X146800914Y-52143565D01*
X146800914Y-51953089D01*
X146848533Y-51857851D01*
X146896152Y-51810232D01*
X146991390Y-51762613D01*
X147277104Y-51762613D01*
X147372342Y-51810232D01*
X147419961Y-51857851D01*
X147467580Y-51953089D01*
X147467580Y-52143565D01*
X147419961Y-52238803D01*
X146800914Y-50905470D02*
X147467580Y-50905470D01*
X146800914Y-51334041D02*
X147324723Y-51334041D01*
X147419961Y-51286422D01*
X147467580Y-51191184D01*
X147467580Y-51048327D01*
X147419961Y-50953089D01*
X147372342Y-50905470D01*
X146800914Y-50572137D02*
X146800914Y-50191184D01*
X146467580Y-50429280D02*
X147324723Y-50429280D01*
X147419961Y-50381660D01*
X147467580Y-50286422D01*
X147467580Y-50191184D01*
X147419961Y-49476899D02*
X147467580Y-49572137D01*
X147467580Y-49762613D01*
X147419961Y-49857851D01*
X147324723Y-49905470D01*
X146943771Y-49905470D01*
X146848533Y-49857851D01*
X146800914Y-49762613D01*
X146800914Y-49572137D01*
X146848533Y-49476899D01*
X146943771Y-49429280D01*
X147039009Y-49429280D01*
X147134247Y-49905470D01*
X147467580Y-49000708D02*
X146800914Y-49000708D01*
X146991390Y-49000708D02*
X146896152Y-48953089D01*
X146848533Y-48905470D01*
X146800914Y-48810232D01*
X146800914Y-48714994D01*
X153361140Y-99148876D02*
X153361140Y-99625066D01*
X153837331Y-99672685D01*
X153789712Y-99625066D01*
X153742093Y-99529828D01*
X153742093Y-99291733D01*
X153789712Y-99196495D01*
X153837331Y-99148876D01*
X153932569Y-99101257D01*
X154170664Y-99101257D01*
X154265902Y-99148876D01*
X154313521Y-99196495D01*
X154361140Y-99291733D01*
X154361140Y-99529828D01*
X154313521Y-99625066D01*
X154265902Y-99672685D01*
X153361140Y-98815542D02*
X154361140Y-98482209D01*
X153361140Y-98148876D01*
X148445600Y-99766024D02*
X148397980Y-99861262D01*
X148397980Y-100004120D01*
X148445600Y-100146977D01*
X148540838Y-100242215D01*
X148636076Y-100289834D01*
X148826552Y-100337453D01*
X148969409Y-100337453D01*
X149159885Y-100289834D01*
X149255123Y-100242215D01*
X149350361Y-100146977D01*
X149397980Y-100004120D01*
X149397980Y-99908881D01*
X149350361Y-99766024D01*
X149302742Y-99718405D01*
X148969409Y-99718405D01*
X148969409Y-99908881D01*
X149397980Y-99289834D02*
X148397980Y-99289834D01*
X149397980Y-98718405D01*
X148397980Y-98718405D01*
X149397980Y-98242215D02*
X148397980Y-98242215D01*
X148397980Y-98004120D01*
X148445600Y-97861262D01*
X148540838Y-97766024D01*
X148636076Y-97718405D01*
X148826552Y-97670786D01*
X148969409Y-97670786D01*
X149159885Y-97718405D01*
X149255123Y-97766024D01*
X149350361Y-97861262D01*
X149397980Y-98004120D01*
X149397980Y-98242215D01*
X146700500Y-99455527D02*
X146700500Y-100026956D01*
X146700500Y-99741241D02*
X145700500Y-99741241D01*
X145843358Y-99836480D01*
X145938596Y-99931718D01*
X145986215Y-100026956D01*
X145795739Y-99074575D02*
X145748120Y-99026956D01*
X145700500Y-98931718D01*
X145700500Y-98693622D01*
X145748120Y-98598384D01*
X145795739Y-98550765D01*
X145890977Y-98503146D01*
X145986215Y-98503146D01*
X146129072Y-98550765D01*
X146700500Y-99122194D01*
X146700500Y-98503146D01*
X145700500Y-98217432D02*
X146700500Y-97884099D01*
X145700500Y-97550765D01*
X144852712Y-75110201D02*
X144995569Y-75157820D01*
X145233664Y-75157820D01*
X145328902Y-75110201D01*
X145376521Y-75062582D01*
X145424140Y-74967344D01*
X145424140Y-74872106D01*
X145376521Y-74776868D01*
X145328902Y-74729249D01*
X145233664Y-74681630D01*
X145043188Y-74634011D01*
X144947950Y-74586392D01*
X144900331Y-74538773D01*
X144852712Y-74443535D01*
X144852712Y-74348297D01*
X144900331Y-74253059D01*
X144947950Y-74205440D01*
X145043188Y-74157820D01*
X145281283Y-74157820D01*
X145424140Y-74205440D01*
X145995569Y-75157820D02*
X145900331Y-75110201D01*
X145852712Y-75062582D01*
X145805093Y-74967344D01*
X145805093Y-74681630D01*
X145852712Y-74586392D01*
X145900331Y-74538773D01*
X145995569Y-74491154D01*
X146138426Y-74491154D01*
X146233664Y-74538773D01*
X146281283Y-74586392D01*
X146328902Y-74681630D01*
X146328902Y-74967344D01*
X146281283Y-75062582D01*
X146233664Y-75110201D01*
X146138426Y-75157820D01*
X145995569Y-75157820D01*
X146900331Y-75157820D02*
X146805093Y-75110201D01*
X146757474Y-75014963D01*
X146757474Y-74157820D01*
X147709855Y-75157820D02*
X147709855Y-74157820D01*
X147709855Y-75110201D02*
X147614617Y-75157820D01*
X147424140Y-75157820D01*
X147328902Y-75110201D01*
X147281283Y-75062582D01*
X147233664Y-74967344D01*
X147233664Y-74681630D01*
X147281283Y-74586392D01*
X147328902Y-74538773D01*
X147424140Y-74491154D01*
X147614617Y-74491154D01*
X147709855Y-74538773D01*
X148566998Y-75110201D02*
X148471760Y-75157820D01*
X148281283Y-75157820D01*
X148186045Y-75110201D01*
X148138426Y-75014963D01*
X148138426Y-74634011D01*
X148186045Y-74538773D01*
X148281283Y-74491154D01*
X148471760Y-74491154D01*
X148566998Y-74538773D01*
X148614617Y-74634011D01*
X148614617Y-74729249D01*
X148138426Y-74824487D01*
X149043188Y-75157820D02*
X149043188Y-74491154D01*
X149043188Y-74681630D02*
X149090807Y-74586392D01*
X149138426Y-74538773D01*
X149233664Y-74491154D01*
X149328902Y-74491154D01*
X150424140Y-74491154D02*
X150424140Y-75348297D01*
X150376521Y-75443535D01*
X150281283Y-75491154D01*
X150233664Y-75491154D01*
X150424140Y-74157820D02*
X150376521Y-74205440D01*
X150424140Y-74253059D01*
X150471760Y-74205440D01*
X150424140Y-74157820D01*
X150424140Y-74253059D01*
X151328902Y-74491154D02*
X151328902Y-75157820D01*
X150900331Y-74491154D02*
X150900331Y-75014963D01*
X150947950Y-75110201D01*
X151043188Y-75157820D01*
X151186045Y-75157820D01*
X151281283Y-75110201D01*
X151328902Y-75062582D01*
X151805093Y-75157820D02*
X151805093Y-74491154D01*
X151805093Y-74586392D02*
X151852712Y-74538773D01*
X151947950Y-74491154D01*
X152090807Y-74491154D01*
X152186045Y-74538773D01*
X152233664Y-74634011D01*
X152233664Y-75157820D01*
X152233664Y-74634011D02*
X152281283Y-74538773D01*
X152376521Y-74491154D01*
X152519379Y-74491154D01*
X152614617Y-74538773D01*
X152662236Y-74634011D01*
X152662236Y-75157820D01*
X153138426Y-74491154D02*
X153138426Y-75491154D01*
X153138426Y-74538773D02*
X153233664Y-74491154D01*
X153424140Y-74491154D01*
X153519379Y-74538773D01*
X153566998Y-74586392D01*
X153614617Y-74681630D01*
X153614617Y-74967344D01*
X153566998Y-75062582D01*
X153519379Y-75110201D01*
X153424140Y-75157820D01*
X153233664Y-75157820D01*
X153138426Y-75110201D01*
X154424140Y-75110201D02*
X154328902Y-75157820D01*
X154138426Y-75157820D01*
X154043188Y-75110201D01*
X153995569Y-75014963D01*
X153995569Y-74634011D01*
X154043188Y-74538773D01*
X154138426Y-74491154D01*
X154328902Y-74491154D01*
X154424140Y-74538773D01*
X154471760Y-74634011D01*
X154471760Y-74729249D01*
X153995569Y-74824487D01*
X154900331Y-75157820D02*
X154900331Y-74491154D01*
X154900331Y-74681630D02*
X154947950Y-74586392D01*
X154995569Y-74538773D01*
X155090807Y-74491154D01*
X155186045Y-74491154D01*
X148209855Y-76760201D02*
X148114617Y-76807820D01*
X147924140Y-76807820D01*
X147828902Y-76760201D01*
X147781283Y-76712582D01*
X147733664Y-76617344D01*
X147733664Y-76331630D01*
X147781283Y-76236392D01*
X147828902Y-76188773D01*
X147924140Y-76141154D01*
X148114617Y-76141154D01*
X148209855Y-76188773D01*
X148781283Y-76807820D02*
X148686045Y-76760201D01*
X148638426Y-76664963D01*
X148638426Y-75807820D01*
X149305093Y-76807820D02*
X149209855Y-76760201D01*
X149162236Y-76712582D01*
X149114617Y-76617344D01*
X149114617Y-76331630D01*
X149162236Y-76236392D01*
X149209855Y-76188773D01*
X149305093Y-76141154D01*
X149447950Y-76141154D01*
X149543188Y-76188773D01*
X149590807Y-76236392D01*
X149638426Y-76331630D01*
X149638426Y-76617344D01*
X149590807Y-76712582D01*
X149543188Y-76760201D01*
X149447950Y-76807820D01*
X149305093Y-76807820D01*
X150019379Y-76760201D02*
X150114617Y-76807820D01*
X150305093Y-76807820D01*
X150400331Y-76760201D01*
X150447950Y-76664963D01*
X150447950Y-76617344D01*
X150400331Y-76522106D01*
X150305093Y-76474487D01*
X150162236Y-76474487D01*
X150066998Y-76426868D01*
X150019379Y-76331630D01*
X150019379Y-76284011D01*
X150066998Y-76188773D01*
X150162236Y-76141154D01*
X150305093Y-76141154D01*
X150400331Y-76188773D01*
X151257474Y-76760201D02*
X151162236Y-76807820D01*
X150971760Y-76807820D01*
X150876521Y-76760201D01*
X150828902Y-76664963D01*
X150828902Y-76284011D01*
X150876521Y-76188773D01*
X150971760Y-76141154D01*
X151162236Y-76141154D01*
X151257474Y-76188773D01*
X151305093Y-76284011D01*
X151305093Y-76379249D01*
X150828902Y-76474487D01*
X152162236Y-76807820D02*
X152162236Y-75807820D01*
X152162236Y-76760201D02*
X152066998Y-76807820D01*
X151876521Y-76807820D01*
X151781283Y-76760201D01*
X151733664Y-76712582D01*
X151686045Y-76617344D01*
X151686045Y-76331630D01*
X151733664Y-76236392D01*
X151781283Y-76188773D01*
X151876521Y-76141154D01*
X152066998Y-76141154D01*
X152162236Y-76188773D01*
X146924140Y-78457820D02*
X146924140Y-77791154D01*
X146924140Y-77457820D02*
X146876521Y-77505440D01*
X146924140Y-77553059D01*
X146971760Y-77505440D01*
X146924140Y-77457820D01*
X146924140Y-77553059D01*
X147257474Y-77791154D02*
X147638426Y-77791154D01*
X147400331Y-78457820D02*
X147400331Y-77600678D01*
X147447950Y-77505440D01*
X147543188Y-77457820D01*
X147638426Y-77457820D01*
X149162236Y-77791154D02*
X149162236Y-78457820D01*
X148733664Y-77791154D02*
X148733664Y-78314963D01*
X148781283Y-78410201D01*
X148876521Y-78457820D01*
X149019379Y-78457820D01*
X149114617Y-78410201D01*
X149162236Y-78362582D01*
X149590807Y-78410201D02*
X149686045Y-78457820D01*
X149876521Y-78457820D01*
X149971760Y-78410201D01*
X150019379Y-78314963D01*
X150019379Y-78267344D01*
X149971760Y-78172106D01*
X149876521Y-78124487D01*
X149733664Y-78124487D01*
X149638426Y-78076868D01*
X149590807Y-77981630D01*
X149590807Y-77934011D01*
X149638426Y-77838773D01*
X149733664Y-77791154D01*
X149876521Y-77791154D01*
X149971760Y-77838773D01*
X150447950Y-78457820D02*
X150447950Y-77791154D01*
X150447950Y-77457820D02*
X150400331Y-77505440D01*
X150447950Y-77553059D01*
X150495569Y-77505440D01*
X150447950Y-77457820D01*
X150447950Y-77553059D01*
X150924140Y-77791154D02*
X150924140Y-78457820D01*
X150924140Y-77886392D02*
X150971760Y-77838773D01*
X151066998Y-77791154D01*
X151209855Y-77791154D01*
X151305093Y-77838773D01*
X151352712Y-77934011D01*
X151352712Y-78457820D01*
X152257474Y-77791154D02*
X152257474Y-78600678D01*
X152209855Y-78695916D01*
X152162236Y-78743535D01*
X152066998Y-78791154D01*
X151924140Y-78791154D01*
X151828902Y-78743535D01*
X152257474Y-78410201D02*
X152162236Y-78457820D01*
X151971760Y-78457820D01*
X151876521Y-78410201D01*
X151828902Y-78362582D01*
X151781283Y-78267344D01*
X151781283Y-77981630D01*
X151828902Y-77886392D01*
X151876521Y-77838773D01*
X151971760Y-77791154D01*
X152162236Y-77791154D01*
X152257474Y-77838773D01*
X144995569Y-80107820D02*
X144995569Y-79107820D01*
X144995569Y-79584011D02*
X145566998Y-79584011D01*
X145566998Y-80107820D02*
X145566998Y-79107820D01*
X146043188Y-80107820D02*
X146043188Y-79107820D01*
X146281283Y-79107820D01*
X146424140Y-79155440D01*
X146519379Y-79250678D01*
X146566998Y-79345916D01*
X146614617Y-79536392D01*
X146614617Y-79679249D01*
X146566998Y-79869725D01*
X146519379Y-79964963D01*
X146424140Y-80060201D01*
X146281283Y-80107820D01*
X146043188Y-80107820D01*
X147043188Y-80107820D02*
X147043188Y-79107820D01*
X147281283Y-79107820D01*
X147424140Y-79155440D01*
X147519379Y-79250678D01*
X147566998Y-79345916D01*
X147614617Y-79536392D01*
X147614617Y-79679249D01*
X147566998Y-79869725D01*
X147519379Y-79964963D01*
X147424140Y-80060201D01*
X147281283Y-80107820D01*
X147043188Y-80107820D01*
X149186045Y-80060201D02*
X149090807Y-80107820D01*
X148900331Y-80107820D01*
X148805093Y-80060201D01*
X148757474Y-79964963D01*
X148757474Y-79584011D01*
X148805093Y-79488773D01*
X148900331Y-79441154D01*
X149090807Y-79441154D01*
X149186045Y-79488773D01*
X149233664Y-79584011D01*
X149233664Y-79679249D01*
X148757474Y-79774487D01*
X149662236Y-80107820D02*
X149662236Y-79441154D01*
X149662236Y-79536392D02*
X149709855Y-79488773D01*
X149805093Y-79441154D01*
X149947950Y-79441154D01*
X150043188Y-79488773D01*
X150090807Y-79584011D01*
X150090807Y-80107820D01*
X150090807Y-79584011D02*
X150138426Y-79488773D01*
X150233664Y-79441154D01*
X150376521Y-79441154D01*
X150471760Y-79488773D01*
X150519379Y-79584011D01*
X150519379Y-80107820D01*
X151424140Y-79441154D02*
X151424140Y-80107820D01*
X150995569Y-79441154D02*
X150995569Y-79964963D01*
X151043188Y-80060201D01*
X151138426Y-80107820D01*
X151281283Y-80107820D01*
X151376521Y-80060201D01*
X151424140Y-80012582D01*
X152043188Y-80107820D02*
X151947950Y-80060201D01*
X151900331Y-79964963D01*
X151900331Y-79107820D01*
X152852712Y-80107820D02*
X152852712Y-79584011D01*
X152805093Y-79488773D01*
X152709855Y-79441154D01*
X152519379Y-79441154D01*
X152424140Y-79488773D01*
X152852712Y-80060201D02*
X152757474Y-80107820D01*
X152519379Y-80107820D01*
X152424140Y-80060201D01*
X152376521Y-79964963D01*
X152376521Y-79869725D01*
X152424140Y-79774487D01*
X152519379Y-79726868D01*
X152757474Y-79726868D01*
X152852712Y-79679249D01*
X153186045Y-79441154D02*
X153566998Y-79441154D01*
X153328902Y-79107820D02*
X153328902Y-79964963D01*
X153376521Y-80060201D01*
X153471760Y-80107820D01*
X153566998Y-80107820D01*
X154043188Y-80107820D02*
X153947950Y-80060201D01*
X153900331Y-80012582D01*
X153852712Y-79917344D01*
X153852712Y-79631630D01*
X153900331Y-79536392D01*
X153947950Y-79488773D01*
X154043188Y-79441154D01*
X154186045Y-79441154D01*
X154281283Y-79488773D01*
X154328902Y-79536392D01*
X154376521Y-79631630D01*
X154376521Y-79917344D01*
X154328902Y-80012582D01*
X154281283Y-80060201D01*
X154186045Y-80107820D01*
X154043188Y-80107820D01*
X154805093Y-80107820D02*
X154805093Y-79441154D01*
X154805093Y-79631630D02*
X154852712Y-79536392D01*
X154900331Y-79488773D01*
X154995569Y-79441154D01*
X155090807Y-79441154D01*
D11*
%TO.C,SCSI1*%
X161416040Y-39929760D02*
X156216040Y-39929760D01*
X161416040Y-100949760D02*
X161416040Y-39929760D01*
X156216040Y-103549760D02*
X156216040Y-39929760D01*
X161416040Y-100949760D02*
X158816040Y-100949760D01*
X158816040Y-100949760D02*
X158816040Y-103549760D01*
X158816040Y-103549760D02*
X156216040Y-103549760D01*
X161416040Y-102219760D02*
X161416040Y-103549760D01*
X161416040Y-103549760D02*
X160086040Y-103549760D01*
%TO.C,PWR1*%
X155289560Y-103549760D02*
X155289560Y-100889760D01*
X147609560Y-103549760D02*
X155289560Y-103549760D01*
X147609560Y-100889760D02*
X155289560Y-100889760D01*
X147609560Y-103549760D02*
X147609560Y-100889760D01*
X146339560Y-103549760D02*
X145009560Y-103549760D01*
X145009560Y-103549760D02*
X145009560Y-102219760D01*
%TO.C,FMT1*%
X138762920Y-103549760D02*
X138762920Y-39929760D01*
X138762920Y-39929760D02*
X136102920Y-39929760D01*
X136102920Y-39929760D02*
X136102920Y-103549760D01*
X136102920Y-103549760D02*
X138762920Y-103549760D01*
X136102920Y-102599760D02*
X130102920Y-102599760D01*
X130102920Y-102599760D02*
X130102920Y-101839760D01*
X130102920Y-101839760D02*
X136102920Y-101839760D01*
X136102920Y-102539760D02*
X130102920Y-102539760D01*
X136102920Y-102419760D02*
X130102920Y-102419760D01*
X136102920Y-102299760D02*
X130102920Y-102299760D01*
X136102920Y-102179760D02*
X130102920Y-102179760D01*
X136102920Y-102059760D02*
X130102920Y-102059760D01*
X136102920Y-101939760D02*
X130102920Y-101939760D01*
X139159991Y-102599760D02*
X138762920Y-102599760D01*
X139159991Y-101839760D02*
X138762920Y-101839760D01*
X141632920Y-102599760D02*
X141245849Y-102599760D01*
X141632920Y-101839760D02*
X141245849Y-101839760D01*
X138762920Y-100949760D02*
X136102920Y-100949760D01*
X136102920Y-100059760D02*
X130102920Y-100059760D01*
X130102920Y-100059760D02*
X130102920Y-99299760D01*
X130102920Y-99299760D02*
X136102920Y-99299760D01*
X139159991Y-100059760D02*
X138762920Y-100059760D01*
X139159991Y-99299760D02*
X138762920Y-99299760D01*
X141699991Y-100059760D02*
X141245849Y-100059760D01*
X141699991Y-99299760D02*
X141245849Y-99299760D01*
X138762920Y-98409760D02*
X136102920Y-98409760D01*
X136102920Y-97519760D02*
X130102920Y-97519760D01*
X130102920Y-97519760D02*
X130102920Y-96759760D01*
X130102920Y-96759760D02*
X136102920Y-96759760D01*
X139159991Y-97519760D02*
X138762920Y-97519760D01*
X139159991Y-96759760D02*
X138762920Y-96759760D01*
X141699991Y-97519760D02*
X141245849Y-97519760D01*
X141699991Y-96759760D02*
X141245849Y-96759760D01*
X138762920Y-95869760D02*
X136102920Y-95869760D01*
X136102920Y-94979760D02*
X130102920Y-94979760D01*
X130102920Y-94979760D02*
X130102920Y-94219760D01*
X130102920Y-94219760D02*
X136102920Y-94219760D01*
X139159991Y-94979760D02*
X138762920Y-94979760D01*
X139159991Y-94219760D02*
X138762920Y-94219760D01*
X141699991Y-94979760D02*
X141245849Y-94979760D01*
X141699991Y-94219760D02*
X141245849Y-94219760D01*
X138762920Y-93329760D02*
X136102920Y-93329760D01*
X136102920Y-92439760D02*
X130102920Y-92439760D01*
X130102920Y-92439760D02*
X130102920Y-91679760D01*
X130102920Y-91679760D02*
X136102920Y-91679760D01*
X139159991Y-92439760D02*
X138762920Y-92439760D01*
X139159991Y-91679760D02*
X138762920Y-91679760D01*
X141699991Y-92439760D02*
X141245849Y-92439760D01*
X141699991Y-91679760D02*
X141245849Y-91679760D01*
X138762920Y-90789760D02*
X136102920Y-90789760D01*
X136102920Y-89899760D02*
X130102920Y-89899760D01*
X130102920Y-89899760D02*
X130102920Y-89139760D01*
X130102920Y-89139760D02*
X136102920Y-89139760D01*
X139159991Y-89899760D02*
X138762920Y-89899760D01*
X139159991Y-89139760D02*
X138762920Y-89139760D01*
X141699991Y-89899760D02*
X141245849Y-89899760D01*
X141699991Y-89139760D02*
X141245849Y-89139760D01*
X138762920Y-88249760D02*
X136102920Y-88249760D01*
X136102920Y-87359760D02*
X130102920Y-87359760D01*
X130102920Y-87359760D02*
X130102920Y-86599760D01*
X130102920Y-86599760D02*
X136102920Y-86599760D01*
X139159991Y-87359760D02*
X138762920Y-87359760D01*
X139159991Y-86599760D02*
X138762920Y-86599760D01*
X141699991Y-87359760D02*
X141245849Y-87359760D01*
X141699991Y-86599760D02*
X141245849Y-86599760D01*
X138762920Y-85709760D02*
X136102920Y-85709760D01*
X136102920Y-84819760D02*
X130102920Y-84819760D01*
X130102920Y-84819760D02*
X130102920Y-84059760D01*
X130102920Y-84059760D02*
X136102920Y-84059760D01*
X139159991Y-84819760D02*
X138762920Y-84819760D01*
X139159991Y-84059760D02*
X138762920Y-84059760D01*
X141699991Y-84819760D02*
X141245849Y-84819760D01*
X141699991Y-84059760D02*
X141245849Y-84059760D01*
X138762920Y-83169760D02*
X136102920Y-83169760D01*
X136102920Y-82279760D02*
X130102920Y-82279760D01*
X130102920Y-82279760D02*
X130102920Y-81519760D01*
X130102920Y-81519760D02*
X136102920Y-81519760D01*
X139159991Y-82279760D02*
X138762920Y-82279760D01*
X139159991Y-81519760D02*
X138762920Y-81519760D01*
X141699991Y-82279760D02*
X141245849Y-82279760D01*
X141699991Y-81519760D02*
X141245849Y-81519760D01*
X138762920Y-80629760D02*
X136102920Y-80629760D01*
X136102920Y-79739760D02*
X130102920Y-79739760D01*
X130102920Y-79739760D02*
X130102920Y-78979760D01*
X130102920Y-78979760D02*
X136102920Y-78979760D01*
X139159991Y-79739760D02*
X138762920Y-79739760D01*
X139159991Y-78979760D02*
X138762920Y-78979760D01*
X141699991Y-79739760D02*
X141245849Y-79739760D01*
X141699991Y-78979760D02*
X141245849Y-78979760D01*
X138762920Y-78089760D02*
X136102920Y-78089760D01*
X136102920Y-77199760D02*
X130102920Y-77199760D01*
X130102920Y-77199760D02*
X130102920Y-76439760D01*
X130102920Y-76439760D02*
X136102920Y-76439760D01*
X139159991Y-77199760D02*
X138762920Y-77199760D01*
X139159991Y-76439760D02*
X138762920Y-76439760D01*
X141699991Y-77199760D02*
X141245849Y-77199760D01*
X141699991Y-76439760D02*
X141245849Y-76439760D01*
X138762920Y-75549760D02*
X136102920Y-75549760D01*
X136102920Y-74659760D02*
X130102920Y-74659760D01*
X130102920Y-74659760D02*
X130102920Y-73899760D01*
X130102920Y-73899760D02*
X136102920Y-73899760D01*
X139159991Y-74659760D02*
X138762920Y-74659760D01*
X139159991Y-73899760D02*
X138762920Y-73899760D01*
X141699991Y-74659760D02*
X141245849Y-74659760D01*
X141699991Y-73899760D02*
X141245849Y-73899760D01*
X138762920Y-73009760D02*
X136102920Y-73009760D01*
X136102920Y-72119760D02*
X130102920Y-72119760D01*
X130102920Y-72119760D02*
X130102920Y-71359760D01*
X130102920Y-71359760D02*
X136102920Y-71359760D01*
X139159991Y-72119760D02*
X138762920Y-72119760D01*
X139159991Y-71359760D02*
X138762920Y-71359760D01*
X141699991Y-72119760D02*
X141245849Y-72119760D01*
X141699991Y-71359760D02*
X141245849Y-71359760D01*
X138762920Y-70469760D02*
X136102920Y-70469760D01*
X136102920Y-69579760D02*
X130102920Y-69579760D01*
X130102920Y-69579760D02*
X130102920Y-68819760D01*
X130102920Y-68819760D02*
X136102920Y-68819760D01*
X139159991Y-69579760D02*
X138762920Y-69579760D01*
X139159991Y-68819760D02*
X138762920Y-68819760D01*
X141699991Y-69579760D02*
X141245849Y-69579760D01*
X141699991Y-68819760D02*
X141245849Y-68819760D01*
X138762920Y-67929760D02*
X136102920Y-67929760D01*
X136102920Y-67039760D02*
X130102920Y-67039760D01*
X130102920Y-67039760D02*
X130102920Y-66279760D01*
X130102920Y-66279760D02*
X136102920Y-66279760D01*
X139159991Y-67039760D02*
X138762920Y-67039760D01*
X139159991Y-66279760D02*
X138762920Y-66279760D01*
X141699991Y-67039760D02*
X141245849Y-67039760D01*
X141699991Y-66279760D02*
X141245849Y-66279760D01*
X138762920Y-65389760D02*
X136102920Y-65389760D01*
X136102920Y-64499760D02*
X130102920Y-64499760D01*
X130102920Y-64499760D02*
X130102920Y-63739760D01*
X130102920Y-63739760D02*
X136102920Y-63739760D01*
X139159991Y-64499760D02*
X138762920Y-64499760D01*
X139159991Y-63739760D02*
X138762920Y-63739760D01*
X141699991Y-64499760D02*
X141245849Y-64499760D01*
X141699991Y-63739760D02*
X141245849Y-63739760D01*
X138762920Y-62849760D02*
X136102920Y-62849760D01*
X136102920Y-61959760D02*
X130102920Y-61959760D01*
X130102920Y-61959760D02*
X130102920Y-61199760D01*
X130102920Y-61199760D02*
X136102920Y-61199760D01*
X139159991Y-61959760D02*
X138762920Y-61959760D01*
X139159991Y-61199760D02*
X138762920Y-61199760D01*
X141699991Y-61959760D02*
X141245849Y-61959760D01*
X141699991Y-61199760D02*
X141245849Y-61199760D01*
X138762920Y-60309760D02*
X136102920Y-60309760D01*
X136102920Y-59419760D02*
X130102920Y-59419760D01*
X130102920Y-59419760D02*
X130102920Y-58659760D01*
X130102920Y-58659760D02*
X136102920Y-58659760D01*
X139159991Y-59419760D02*
X138762920Y-59419760D01*
X139159991Y-58659760D02*
X138762920Y-58659760D01*
X141699991Y-59419760D02*
X141245849Y-59419760D01*
X141699991Y-58659760D02*
X141245849Y-58659760D01*
X138762920Y-57769760D02*
X136102920Y-57769760D01*
X136102920Y-56879760D02*
X130102920Y-56879760D01*
X130102920Y-56879760D02*
X130102920Y-56119760D01*
X130102920Y-56119760D02*
X136102920Y-56119760D01*
X139159991Y-56879760D02*
X138762920Y-56879760D01*
X139159991Y-56119760D02*
X138762920Y-56119760D01*
X141699991Y-56879760D02*
X141245849Y-56879760D01*
X141699991Y-56119760D02*
X141245849Y-56119760D01*
X138762920Y-55229760D02*
X136102920Y-55229760D01*
X136102920Y-54339760D02*
X130102920Y-54339760D01*
X130102920Y-54339760D02*
X130102920Y-53579760D01*
X130102920Y-53579760D02*
X136102920Y-53579760D01*
X139159991Y-54339760D02*
X138762920Y-54339760D01*
X139159991Y-53579760D02*
X138762920Y-53579760D01*
X141699991Y-54339760D02*
X141245849Y-54339760D01*
X141699991Y-53579760D02*
X141245849Y-53579760D01*
X138762920Y-52689760D02*
X136102920Y-52689760D01*
X136102920Y-51799760D02*
X130102920Y-51799760D01*
X130102920Y-51799760D02*
X130102920Y-51039760D01*
X130102920Y-51039760D02*
X136102920Y-51039760D01*
X139159991Y-51799760D02*
X138762920Y-51799760D01*
X139159991Y-51039760D02*
X138762920Y-51039760D01*
X141699991Y-51799760D02*
X141245849Y-51799760D01*
X141699991Y-51039760D02*
X141245849Y-51039760D01*
X138762920Y-50149760D02*
X136102920Y-50149760D01*
X136102920Y-49259760D02*
X130102920Y-49259760D01*
X130102920Y-49259760D02*
X130102920Y-48499760D01*
X130102920Y-48499760D02*
X136102920Y-48499760D01*
X139159991Y-49259760D02*
X138762920Y-49259760D01*
X139159991Y-48499760D02*
X138762920Y-48499760D01*
X141699991Y-49259760D02*
X141245849Y-49259760D01*
X141699991Y-48499760D02*
X141245849Y-48499760D01*
X138762920Y-47609760D02*
X136102920Y-47609760D01*
X136102920Y-46719760D02*
X130102920Y-46719760D01*
X130102920Y-46719760D02*
X130102920Y-45959760D01*
X130102920Y-45959760D02*
X136102920Y-45959760D01*
X139159991Y-46719760D02*
X138762920Y-46719760D01*
X139159991Y-45959760D02*
X138762920Y-45959760D01*
X141699991Y-46719760D02*
X141245849Y-46719760D01*
X141699991Y-45959760D02*
X141245849Y-45959760D01*
X138762920Y-45069760D02*
X136102920Y-45069760D01*
X136102920Y-44179760D02*
X130102920Y-44179760D01*
X130102920Y-44179760D02*
X130102920Y-43419760D01*
X130102920Y-43419760D02*
X136102920Y-43419760D01*
X139159991Y-44179760D02*
X138762920Y-44179760D01*
X139159991Y-43419760D02*
X138762920Y-43419760D01*
X141699991Y-44179760D02*
X141245849Y-44179760D01*
X141699991Y-43419760D02*
X141245849Y-43419760D01*
X138762920Y-42529760D02*
X136102920Y-42529760D01*
X136102920Y-41639760D02*
X130102920Y-41639760D01*
X130102920Y-41639760D02*
X130102920Y-40879760D01*
X130102920Y-40879760D02*
X136102920Y-40879760D01*
X139159991Y-41639760D02*
X138762920Y-41639760D01*
X139159991Y-40879760D02*
X138762920Y-40879760D01*
X141699991Y-41639760D02*
X141245849Y-41639760D01*
X141699991Y-40879760D02*
X141245849Y-40879760D01*
X144012920Y-102219760D02*
X144012920Y-103489760D01*
X144012920Y-103489760D02*
X142742920Y-103489760D01*
%TO.C,TRM PWR*%
D10*
X146220276Y-69559900D02*
X146791704Y-69559900D01*
X146505990Y-70559900D02*
X146505990Y-69559900D01*
X147696466Y-70559900D02*
X147363133Y-70083710D01*
X147125038Y-70559900D02*
X147125038Y-69559900D01*
X147505990Y-69559900D01*
X147601228Y-69607520D01*
X147648847Y-69655139D01*
X147696466Y-69750377D01*
X147696466Y-69893234D01*
X147648847Y-69988472D01*
X147601228Y-70036091D01*
X147505990Y-70083710D01*
X147125038Y-70083710D01*
X148125038Y-70559900D02*
X148125038Y-69559900D01*
X148458371Y-70274186D01*
X148791704Y-69559900D01*
X148791704Y-70559900D01*
X150029800Y-70559900D02*
X150029800Y-69559900D01*
X150410752Y-69559900D01*
X150505990Y-69607520D01*
X150553609Y-69655139D01*
X150601228Y-69750377D01*
X150601228Y-69893234D01*
X150553609Y-69988472D01*
X150505990Y-70036091D01*
X150410752Y-70083710D01*
X150029800Y-70083710D01*
X150934561Y-69559900D02*
X151172657Y-70559900D01*
X151363133Y-69845615D01*
X151553609Y-70559900D01*
X151791704Y-69559900D01*
X152744085Y-70559900D02*
X152410752Y-70083710D01*
X152172657Y-70559900D02*
X152172657Y-69559900D01*
X152553609Y-69559900D01*
X152648847Y-69607520D01*
X152696466Y-69655139D01*
X152744085Y-69750377D01*
X152744085Y-69893234D01*
X152696466Y-69988472D01*
X152648847Y-70036091D01*
X152553609Y-70083710D01*
X152172657Y-70083710D01*
%TO.C,SCSI1*%
X156839849Y-104954521D02*
X156982706Y-105002140D01*
X157220801Y-105002140D01*
X157316040Y-104954521D01*
X157363659Y-104906902D01*
X157411278Y-104811664D01*
X157411278Y-104716426D01*
X157363659Y-104621188D01*
X157316040Y-104573569D01*
X157220801Y-104525950D01*
X157030325Y-104478331D01*
X156935087Y-104430712D01*
X156887468Y-104383093D01*
X156839849Y-104287855D01*
X156839849Y-104192617D01*
X156887468Y-104097379D01*
X156935087Y-104049760D01*
X157030325Y-104002140D01*
X157268420Y-104002140D01*
X157411278Y-104049760D01*
X158411278Y-104906902D02*
X158363659Y-104954521D01*
X158220801Y-105002140D01*
X158125563Y-105002140D01*
X157982706Y-104954521D01*
X157887468Y-104859283D01*
X157839849Y-104764045D01*
X157792230Y-104573569D01*
X157792230Y-104430712D01*
X157839849Y-104240236D01*
X157887468Y-104144998D01*
X157982706Y-104049760D01*
X158125563Y-104002140D01*
X158220801Y-104002140D01*
X158363659Y-104049760D01*
X158411278Y-104097379D01*
X158792230Y-104954521D02*
X158935087Y-105002140D01*
X159173182Y-105002140D01*
X159268420Y-104954521D01*
X159316040Y-104906902D01*
X159363659Y-104811664D01*
X159363659Y-104716426D01*
X159316040Y-104621188D01*
X159268420Y-104573569D01*
X159173182Y-104525950D01*
X158982706Y-104478331D01*
X158887468Y-104430712D01*
X158839849Y-104383093D01*
X158792230Y-104287855D01*
X158792230Y-104192617D01*
X158839849Y-104097379D01*
X158887468Y-104049760D01*
X158982706Y-104002140D01*
X159220801Y-104002140D01*
X159363659Y-104049760D01*
X159792230Y-105002140D02*
X159792230Y-104002140D01*
X160792230Y-105002140D02*
X160220801Y-105002140D01*
X160506516Y-105002140D02*
X160506516Y-104002140D01*
X160411278Y-104144998D01*
X160316040Y-104240236D01*
X160220801Y-104287855D01*
%TO.C,FMT1*%
X135802205Y-104418331D02*
X135468872Y-104418331D01*
X135468872Y-104942140D02*
X135468872Y-103942140D01*
X135945062Y-103942140D01*
X136326015Y-104942140D02*
X136326015Y-103942140D01*
X136659348Y-104656426D01*
X136992681Y-103942140D01*
X136992681Y-104942140D01*
X137326015Y-103942140D02*
X137897443Y-103942140D01*
X137611729Y-104942140D02*
X137611729Y-103942140D01*
X138754586Y-104942140D02*
X138183158Y-104942140D01*
X138468872Y-104942140D02*
X138468872Y-103942140D01*
X138373634Y-104084998D01*
X138278396Y-104180236D01*
X138183158Y-104227855D01*
%TD*%
M02*
