%TF.GenerationSoftware,KiCad,Pcbnew,(5.1.9)-1*%
%TF.CreationDate,2021-07-31T16:05:11-05:00*%
%TF.ProjectId,SCSI Interface Card,53435349-2049-46e7-9465-726661636520,rev?*%
%TF.SameCoordinates,Original*%
%TF.FileFunction,Legend,Bot*%
%TF.FilePolarity,Positive*%
%FSLAX46Y46*%
G04 Gerber Fmt 4.6, Leading zero omitted, Abs format (unit mm)*
G04 Created by KiCad (PCBNEW (5.1.9)-1) date 2021-07-31 16:05:11*
%MOMM*%
%LPD*%
G01*
G04 APERTURE LIST*
%ADD10C,0.150000*%
G04 APERTURE END LIST*
D10*
X148948331Y-69535540D02*
X148948331Y-69202207D01*
X149472140Y-69202207D02*
X148472140Y-69202207D01*
X148472140Y-69678398D01*
X149472140Y-70059350D02*
X148472140Y-70059350D01*
X149186426Y-70392683D01*
X148472140Y-70726017D01*
X149472140Y-70726017D01*
X148472140Y-71059350D02*
X148472140Y-71630779D01*
X149472140Y-71345064D02*
X148472140Y-71345064D01*
X149424521Y-72678398D02*
X149472140Y-72821255D01*
X149472140Y-73059350D01*
X149424521Y-73154588D01*
X149376902Y-73202207D01*
X149281664Y-73249826D01*
X149186426Y-73249826D01*
X149091188Y-73202207D01*
X149043569Y-73154588D01*
X148995950Y-73059350D01*
X148948331Y-72868874D01*
X148900712Y-72773636D01*
X148853093Y-72726017D01*
X148757855Y-72678398D01*
X148662617Y-72678398D01*
X148567379Y-72726017D01*
X148519760Y-72773636D01*
X148472140Y-72868874D01*
X148472140Y-73106969D01*
X148519760Y-73249826D01*
X149376902Y-74249826D02*
X149424521Y-74202207D01*
X149472140Y-74059350D01*
X149472140Y-73964112D01*
X149424521Y-73821255D01*
X149329283Y-73726017D01*
X149234045Y-73678398D01*
X149043569Y-73630779D01*
X148900712Y-73630779D01*
X148710236Y-73678398D01*
X148614998Y-73726017D01*
X148519760Y-73821255D01*
X148472140Y-73964112D01*
X148472140Y-74059350D01*
X148519760Y-74202207D01*
X148567379Y-74249826D01*
X149424521Y-74630779D02*
X149472140Y-74773636D01*
X149472140Y-75011731D01*
X149424521Y-75106969D01*
X149376902Y-75154588D01*
X149281664Y-75202207D01*
X149186426Y-75202207D01*
X149091188Y-75154588D01*
X149043569Y-75106969D01*
X148995950Y-75011731D01*
X148948331Y-74821255D01*
X148900712Y-74726017D01*
X148853093Y-74678398D01*
X148757855Y-74630779D01*
X148662617Y-74630779D01*
X148567379Y-74678398D01*
X148519760Y-74726017D01*
X148472140Y-74821255D01*
X148472140Y-75059350D01*
X148519760Y-75202207D01*
X149472140Y-75630779D02*
X148472140Y-75630779D01*
X148948331Y-77202207D02*
X148995950Y-77345064D01*
X149043569Y-77392683D01*
X149138807Y-77440302D01*
X149281664Y-77440302D01*
X149376902Y-77392683D01*
X149424521Y-77345064D01*
X149472140Y-77249826D01*
X149472140Y-76868874D01*
X148472140Y-76868874D01*
X148472140Y-77202207D01*
X148519760Y-77297445D01*
X148567379Y-77345064D01*
X148662617Y-77392683D01*
X148757855Y-77392683D01*
X148853093Y-77345064D01*
X148900712Y-77297445D01*
X148948331Y-77202207D01*
X148948331Y-76868874D01*
X149472140Y-77868874D02*
X148805474Y-77868874D01*
X148995950Y-77868874D02*
X148900712Y-77916493D01*
X148853093Y-77964112D01*
X148805474Y-78059350D01*
X148805474Y-78154588D01*
X149424521Y-78868874D02*
X149472140Y-78773636D01*
X149472140Y-78583160D01*
X149424521Y-78487921D01*
X149329283Y-78440302D01*
X148948331Y-78440302D01*
X148853093Y-78487921D01*
X148805474Y-78583160D01*
X148805474Y-78773636D01*
X148853093Y-78868874D01*
X148948331Y-78916493D01*
X149043569Y-78916493D01*
X149138807Y-78440302D01*
X149472140Y-79773636D02*
X148948331Y-79773636D01*
X148853093Y-79726017D01*
X148805474Y-79630779D01*
X148805474Y-79440302D01*
X148853093Y-79345064D01*
X149424521Y-79773636D02*
X149472140Y-79678398D01*
X149472140Y-79440302D01*
X149424521Y-79345064D01*
X149329283Y-79297445D01*
X149234045Y-79297445D01*
X149138807Y-79345064D01*
X149091188Y-79440302D01*
X149091188Y-79678398D01*
X149043569Y-79773636D01*
X149472140Y-80249826D02*
X148472140Y-80249826D01*
X149091188Y-80345064D02*
X149472140Y-80630779D01*
X148805474Y-80630779D02*
X149186426Y-80249826D01*
X149472140Y-81202207D02*
X149424521Y-81106969D01*
X149376902Y-81059350D01*
X149281664Y-81011731D01*
X148995950Y-81011731D01*
X148900712Y-81059350D01*
X148853093Y-81106969D01*
X148805474Y-81202207D01*
X148805474Y-81345064D01*
X148853093Y-81440302D01*
X148900712Y-81487921D01*
X148995950Y-81535540D01*
X149281664Y-81535540D01*
X149376902Y-81487921D01*
X149424521Y-81440302D01*
X149472140Y-81345064D01*
X149472140Y-81202207D01*
X148805474Y-82392683D02*
X149472140Y-82392683D01*
X148805474Y-81964112D02*
X149329283Y-81964112D01*
X149424521Y-82011731D01*
X149472140Y-82106969D01*
X149472140Y-82249826D01*
X149424521Y-82345064D01*
X149376902Y-82392683D01*
X148805474Y-82726017D02*
X148805474Y-83106969D01*
X148472140Y-82868874D02*
X149329283Y-82868874D01*
X149424521Y-82916493D01*
X149472140Y-83011731D01*
X149472140Y-83106969D01*
X151122140Y-70892683D02*
X150122140Y-70892683D01*
X150503093Y-70892683D02*
X150455474Y-70987921D01*
X150455474Y-71178398D01*
X150503093Y-71273636D01*
X150550712Y-71321255D01*
X150645950Y-71368874D01*
X150931664Y-71368874D01*
X151026902Y-71321255D01*
X151074521Y-71273636D01*
X151122140Y-71178398D01*
X151122140Y-70987921D01*
X151074521Y-70892683D01*
X150455474Y-71702207D02*
X151122140Y-71940302D01*
X150455474Y-72178398D02*
X151122140Y-71940302D01*
X151360236Y-71845064D01*
X151407855Y-71797445D01*
X151455474Y-71702207D01*
X151074521Y-73749826D02*
X151122140Y-73654588D01*
X151122140Y-73464112D01*
X151074521Y-73368874D01*
X151026902Y-73321255D01*
X150931664Y-73273636D01*
X150645950Y-73273636D01*
X150550712Y-73321255D01*
X150503093Y-73368874D01*
X150455474Y-73464112D01*
X150455474Y-73654588D01*
X150503093Y-73749826D01*
X150455474Y-74083160D02*
X151122140Y-74321255D01*
X150455474Y-74559350D02*
X151122140Y-74321255D01*
X151360236Y-74226017D01*
X151407855Y-74178398D01*
X151455474Y-74083160D01*
X151122140Y-75083160D02*
X151074521Y-74987921D01*
X151026902Y-74940302D01*
X150931664Y-74892683D01*
X150645950Y-74892683D01*
X150550712Y-74940302D01*
X150503093Y-74987921D01*
X150455474Y-75083160D01*
X150455474Y-75226017D01*
X150503093Y-75321255D01*
X150550712Y-75368874D01*
X150645950Y-75416493D01*
X150931664Y-75416493D01*
X151026902Y-75368874D01*
X151074521Y-75321255D01*
X151122140Y-75226017D01*
X151122140Y-75083160D01*
X151026902Y-75845064D02*
X151074521Y-75892683D01*
X151122140Y-75845064D01*
X151074521Y-75797445D01*
X151026902Y-75845064D01*
X151122140Y-75845064D01*
X150455474Y-76178398D02*
X150455474Y-76559350D01*
X150122140Y-76321255D02*
X150979283Y-76321255D01*
X151074521Y-76368874D01*
X151122140Y-76464112D01*
X151122140Y-76559350D01*
X151122140Y-76892683D02*
X150122140Y-76892683D01*
X151122140Y-77321255D02*
X150598331Y-77321255D01*
X150503093Y-77273636D01*
X150455474Y-77178398D01*
X150455474Y-77035540D01*
X150503093Y-76940302D01*
X150550712Y-76892683D01*
X151074521Y-78178398D02*
X151122140Y-78083160D01*
X151122140Y-77892683D01*
X151074521Y-77797445D01*
X150979283Y-77749826D01*
X150598331Y-77749826D01*
X150503093Y-77797445D01*
X150455474Y-77892683D01*
X150455474Y-78083160D01*
X150503093Y-78178398D01*
X150598331Y-78226017D01*
X150693569Y-78226017D01*
X150788807Y-77749826D01*
X151026902Y-78654588D02*
X151074521Y-78702207D01*
X151122140Y-78654588D01*
X151074521Y-78606969D01*
X151026902Y-78654588D01*
X151122140Y-78654588D01*
X150455474Y-79035540D02*
X151122140Y-79273636D01*
X150455474Y-79511731D01*
X151122140Y-79892683D02*
X150455474Y-79892683D01*
X150122140Y-79892683D02*
X150169760Y-79845064D01*
X150217379Y-79892683D01*
X150169760Y-79940302D01*
X150122140Y-79892683D01*
X150217379Y-79892683D01*
X151122140Y-80511731D02*
X151074521Y-80416493D01*
X150979283Y-80368874D01*
X150122140Y-80368874D01*
X151074521Y-81273636D02*
X151122140Y-81178398D01*
X151122140Y-80987921D01*
X151074521Y-80892683D01*
X150979283Y-80845064D01*
X150598331Y-80845064D01*
X150503093Y-80892683D01*
X150455474Y-80987921D01*
X150455474Y-81178398D01*
X150503093Y-81273636D01*
X150598331Y-81321255D01*
X150693569Y-81321255D01*
X150788807Y-80845064D01*
M02*
