%TF.GenerationSoftware,KiCad,Pcbnew,(5.1.9)-1*%
%TF.CreationDate,2021-07-31T16:05:11-05:00*%
%TF.ProjectId,SCSI Interface Card,53435349-2049-46e7-9465-726661636520,rev?*%
%TF.SameCoordinates,Original*%
%TF.FileFunction,Copper,L1,Top*%
%TF.FilePolarity,Positive*%
%FSLAX46Y46*%
G04 Gerber Fmt 4.6, Leading zero omitted, Abs format (unit mm)*
G04 Created by KiCad (PCBNEW (5.1.9)-1) date 2021-07-31 16:05:11*
%MOMM*%
%LPD*%
G01*
G04 APERTURE LIST*
%TA.AperFunction,ComponentPad*%
%ADD10O,1.700000X1.700000*%
%TD*%
%TA.AperFunction,ComponentPad*%
%ADD11R,1.700000X1.700000*%
%TD*%
%TA.AperFunction,Conductor*%
%ADD12C,0.250000*%
%TD*%
%TA.AperFunction,Conductor*%
%ADD13C,1.000000*%
%TD*%
%TA.AperFunction,Conductor*%
%ADD14C,0.254000*%
%TD*%
%TA.AperFunction,Conductor*%
%ADD15C,0.100000*%
%TD*%
G04 APERTURE END LIST*
%TO.P,TRM PWR,2*%
%TO.N,/TRM_2*%
%TA.AperFunction,SMDPad,CuDef*%
G36*
G01*
X149439800Y-68957520D02*
X149439800Y-69157520D01*
G75*
G02*
X149339800Y-69257520I-100000J0D01*
G01*
X148904800Y-69257520D01*
G75*
G02*
X148804800Y-69157520I0J100000D01*
G01*
X148804800Y-68957520D01*
G75*
G02*
X148904800Y-68857520I100000J0D01*
G01*
X149339800Y-68857520D01*
G75*
G02*
X149439800Y-68957520I0J-100000D01*
G01*
G37*
%TD.AperFunction*%
%TO.P,TRM PWR,1*%
%TO.N,/TRM_1*%
%TA.AperFunction,SMDPad,CuDef*%
G36*
G01*
X150254800Y-68957520D02*
X150254800Y-69157520D01*
G75*
G02*
X150154800Y-69257520I-100000J0D01*
G01*
X149719800Y-69257520D01*
G75*
G02*
X149619800Y-69157520I0J100000D01*
G01*
X149619800Y-68957520D01*
G75*
G02*
X149719800Y-68857520I100000J0D01*
G01*
X150154800Y-68857520D01*
G75*
G02*
X150254800Y-68957520I0J-100000D01*
G01*
G37*
%TD.AperFunction*%
%TD*%
D10*
%TO.P,SCSI1,50*%
%TO.N,/IO*%
X157546040Y-41259760D03*
%TO.P,SCSI1,49*%
%TO.N,GND*%
X160086040Y-41259760D03*
%TO.P,SCSI1,48*%
%TO.N,/REQ*%
X157546040Y-43799760D03*
%TO.P,SCSI1,47*%
%TO.N,GND*%
X160086040Y-43799760D03*
%TO.P,SCSI1,46*%
%TO.N,/CD*%
X157546040Y-46339760D03*
%TO.P,SCSI1,45*%
%TO.N,GND*%
X160086040Y-46339760D03*
%TO.P,SCSI1,44*%
%TO.N,/SEL*%
X157546040Y-48879760D03*
%TO.P,SCSI1,43*%
%TO.N,GND*%
X160086040Y-48879760D03*
%TO.P,SCSI1,42*%
X157546040Y-51419760D03*
%TO.P,SCSI1,41*%
X160086040Y-51419760D03*
%TO.P,SCSI1,40*%
%TO.N,/RST*%
X157546040Y-53959760D03*
%TO.P,SCSI1,39*%
%TO.N,GND*%
X160086040Y-53959760D03*
%TO.P,SCSI1,38*%
%TO.N,/ACK*%
X157546040Y-56499760D03*
%TO.P,SCSI1,37*%
%TO.N,GND*%
X160086040Y-56499760D03*
%TO.P,SCSI1,36*%
%TO.N,/BSY*%
X157546040Y-59039760D03*
%TO.P,SCSI1,35*%
%TO.N,GND*%
X160086040Y-59039760D03*
%TO.P,SCSI1,34*%
X157546040Y-61579760D03*
%TO.P,SCSI1,33*%
X160086040Y-61579760D03*
%TO.P,SCSI1,32*%
%TO.N,/ATN*%
X157546040Y-64119760D03*
%TO.P,SCSI1,31*%
%TO.N,GND*%
X160086040Y-64119760D03*
%TO.P,SCSI1,30*%
X157546040Y-66659760D03*
%TO.P,SCSI1,29*%
X160086040Y-66659760D03*
%TO.P,SCSI1,28*%
X157546040Y-69199760D03*
%TO.P,SCSI1,27*%
X160086040Y-69199760D03*
%TO.P,SCSI1,26*%
%TO.N,/TRM_1*%
X157546040Y-71739760D03*
%TO.P,SCSI1,25*%
%TO.N,Net-(SCSI1-Pad25)*%
X160086040Y-71739760D03*
%TO.P,SCSI1,24*%
%TO.N,GND*%
X157546040Y-74279760D03*
%TO.P,SCSI1,23*%
X160086040Y-74279760D03*
%TO.P,SCSI1,22*%
X157546040Y-76819760D03*
%TO.P,SCSI1,21*%
X160086040Y-76819760D03*
%TO.P,SCSI1,20*%
X157546040Y-79359760D03*
%TO.P,SCSI1,19*%
X160086040Y-79359760D03*
%TO.P,SCSI1,18*%
%TO.N,/DBP*%
X157546040Y-81899760D03*
%TO.P,SCSI1,17*%
%TO.N,GND*%
X160086040Y-81899760D03*
%TO.P,SCSI1,16*%
%TO.N,/DB7*%
X157546040Y-84439760D03*
%TO.P,SCSI1,15*%
%TO.N,GND*%
X160086040Y-84439760D03*
%TO.P,SCSI1,14*%
%TO.N,/DB6*%
X157546040Y-86979760D03*
%TO.P,SCSI1,13*%
%TO.N,GND*%
X160086040Y-86979760D03*
%TO.P,SCSI1,12*%
%TO.N,/DB5*%
X157546040Y-89519760D03*
%TO.P,SCSI1,11*%
%TO.N,GND*%
X160086040Y-89519760D03*
%TO.P,SCSI1,10*%
%TO.N,/DB4*%
X157546040Y-92059760D03*
%TO.P,SCSI1,9*%
%TO.N,GND*%
X160086040Y-92059760D03*
%TO.P,SCSI1,8*%
%TO.N,/DB3*%
X157546040Y-94599760D03*
%TO.P,SCSI1,7*%
%TO.N,GND*%
X160086040Y-94599760D03*
%TO.P,SCSI1,6*%
%TO.N,/DB2*%
X157546040Y-97139760D03*
%TO.P,SCSI1,5*%
%TO.N,GND*%
X160086040Y-97139760D03*
%TO.P,SCSI1,4*%
%TO.N,/DB1*%
X157546040Y-99679760D03*
%TO.P,SCSI1,3*%
%TO.N,GND*%
X160086040Y-99679760D03*
%TO.P,SCSI1,2*%
%TO.N,/DB0*%
X157546040Y-102219760D03*
D11*
%TO.P,SCSI1,1*%
%TO.N,GND*%
X160086040Y-102219760D03*
%TD*%
D10*
%TO.P,PWR1,4*%
%TO.N,/5V*%
X153959560Y-102219760D03*
%TO.P,PWR1,3*%
%TO.N,GND*%
X151419560Y-102219760D03*
%TO.P,PWR1,2*%
X148879560Y-102219760D03*
D11*
%TO.P,PWR1,1*%
%TO.N,/12V*%
X146339560Y-102219760D03*
%TD*%
D10*
%TO.P,FMT1,50*%
%TO.N,/IO*%
X140202920Y-41259760D03*
%TO.P,FMT1,49*%
%TO.N,GND*%
X142742920Y-41259760D03*
%TO.P,FMT1,48*%
%TO.N,/REQ*%
X140202920Y-43799760D03*
%TO.P,FMT1,47*%
%TO.N,GND*%
X142742920Y-43799760D03*
%TO.P,FMT1,46*%
%TO.N,/CD*%
X140202920Y-46339760D03*
%TO.P,FMT1,45*%
%TO.N,GND*%
X142742920Y-46339760D03*
%TO.P,FMT1,44*%
%TO.N,/SEL*%
X140202920Y-48879760D03*
%TO.P,FMT1,43*%
%TO.N,GND*%
X142742920Y-48879760D03*
%TO.P,FMT1,42*%
X140202920Y-51419760D03*
%TO.P,FMT1,41*%
X142742920Y-51419760D03*
%TO.P,FMT1,40*%
%TO.N,/RST*%
X140202920Y-53959760D03*
%TO.P,FMT1,39*%
%TO.N,GND*%
X142742920Y-53959760D03*
%TO.P,FMT1,38*%
%TO.N,/ACK*%
X140202920Y-56499760D03*
%TO.P,FMT1,37*%
%TO.N,GND*%
X142742920Y-56499760D03*
%TO.P,FMT1,36*%
%TO.N,/BSY*%
X140202920Y-59039760D03*
%TO.P,FMT1,35*%
%TO.N,GND*%
X142742920Y-59039760D03*
%TO.P,FMT1,34*%
X140202920Y-61579760D03*
%TO.P,FMT1,33*%
X142742920Y-61579760D03*
%TO.P,FMT1,32*%
%TO.N,/ATN*%
X140202920Y-64119760D03*
%TO.P,FMT1,31*%
%TO.N,GND*%
X142742920Y-64119760D03*
%TO.P,FMT1,30*%
X140202920Y-66659760D03*
%TO.P,FMT1,29*%
X142742920Y-66659760D03*
%TO.P,FMT1,28*%
%TO.N,/TRM_2*%
X140202920Y-69199760D03*
%TO.P,FMT1,27*%
%TO.N,GND*%
X142742920Y-69199760D03*
%TO.P,FMT1,26*%
%TO.N,/DBP*%
X140202920Y-71739760D03*
%TO.P,FMT1,25*%
%TO.N,/OPEN*%
X142742920Y-71739760D03*
%TO.P,FMT1,24*%
%TO.N,/DB7*%
X140202920Y-74279760D03*
%TO.P,FMT1,23*%
%TO.N,GND*%
X142742920Y-74279760D03*
%TO.P,FMT1,22*%
%TO.N,/DB6*%
X140202920Y-76819760D03*
%TO.P,FMT1,21*%
%TO.N,GND*%
X142742920Y-76819760D03*
%TO.P,FMT1,20*%
%TO.N,/DB5*%
X140202920Y-79359760D03*
%TO.P,FMT1,19*%
%TO.N,GND*%
X142742920Y-79359760D03*
%TO.P,FMT1,18*%
%TO.N,/DB4*%
X140202920Y-81899760D03*
%TO.P,FMT1,17*%
%TO.N,GND*%
X142742920Y-81899760D03*
%TO.P,FMT1,16*%
%TO.N,/DB3*%
X140202920Y-84439760D03*
%TO.P,FMT1,15*%
%TO.N,GND*%
X142742920Y-84439760D03*
%TO.P,FMT1,14*%
%TO.N,/DB2*%
X140202920Y-86979760D03*
%TO.P,FMT1,13*%
%TO.N,GND*%
X142742920Y-86979760D03*
%TO.P,FMT1,12*%
%TO.N,/DB1*%
X140202920Y-89519760D03*
%TO.P,FMT1,11*%
%TO.N,GND*%
X142742920Y-89519760D03*
%TO.P,FMT1,10*%
%TO.N,/DB0*%
X140202920Y-92059760D03*
%TO.P,FMT1,9*%
%TO.N,GND*%
X142742920Y-92059760D03*
%TO.P,FMT1,8*%
%TO.N,/12V*%
X140202920Y-94599760D03*
%TO.P,FMT1,7*%
X142742920Y-94599760D03*
%TO.P,FMT1,6*%
%TO.N,GND*%
X140202920Y-97139760D03*
%TO.P,FMT1,5*%
X142742920Y-97139760D03*
%TO.P,FMT1,4*%
X140202920Y-99679760D03*
%TO.P,FMT1,3*%
X142742920Y-99679760D03*
%TO.P,FMT1,2*%
%TO.N,/5V*%
X140202920Y-102219760D03*
D11*
%TO.P,FMT1,1*%
X142742920Y-102219760D03*
%TD*%
D12*
%TO.N,/TRM_2*%
X148089539Y-68024759D02*
X149122300Y-69057520D01*
X141377921Y-68024759D02*
X148089539Y-68024759D01*
X140202920Y-69199760D02*
X141377921Y-68024759D01*
D13*
%TO.N,/12V*%
X146339560Y-98442398D02*
X146339560Y-102219760D01*
X142496922Y-94599760D02*
X146339560Y-98442398D01*
X140202920Y-94599760D02*
X142496922Y-94599760D01*
%TO.N,/5V*%
X152409559Y-103769761D02*
X153959560Y-102219760D01*
X141752921Y-103769761D02*
X152409559Y-103769761D01*
X140202920Y-102219760D02*
X141752921Y-103769761D01*
D12*
%TO.N,/TRM_1*%
X154863800Y-69057520D02*
X157546040Y-71739760D01*
X149937300Y-69057520D02*
X154863800Y-69057520D01*
D13*
%TO.N,GND*%
X142742920Y-92059760D02*
X142742920Y-74279760D01*
X144292921Y-70749761D02*
X142742920Y-69199760D01*
X144292921Y-72729759D02*
X144292921Y-70749761D01*
X142742920Y-74279760D02*
X144292921Y-72729759D01*
X142742920Y-64119760D02*
X142742920Y-41259760D01*
X142742920Y-51419760D02*
X140202920Y-51419760D01*
X142742920Y-61579760D02*
X140202920Y-61579760D01*
%TO.N,/5V*%
X140202920Y-102219760D02*
X142742920Y-102219760D01*
%TD*%
D14*
%TO.N,GND*%
X148168829Y-69178850D02*
X148180910Y-69301511D01*
X148222910Y-69439968D01*
X148291116Y-69567571D01*
X148382904Y-69679416D01*
X148494749Y-69771204D01*
X148622352Y-69839410D01*
X148760809Y-69881410D01*
X148904800Y-69895592D01*
X149339800Y-69895592D01*
X149483791Y-69881410D01*
X149529800Y-69867453D01*
X149575809Y-69881410D01*
X149719800Y-69895592D01*
X150154800Y-69895592D01*
X150298791Y-69881410D01*
X150437248Y-69839410D01*
X150478201Y-69817520D01*
X154548999Y-69817520D01*
X156104830Y-71373352D01*
X156061040Y-71593500D01*
X156061040Y-71886020D01*
X156118108Y-72172918D01*
X156230050Y-72443171D01*
X156392565Y-72686392D01*
X156599408Y-72893235D01*
X156781574Y-73014955D01*
X156664685Y-73084582D01*
X156448452Y-73279491D01*
X156274399Y-73512840D01*
X156149215Y-73775661D01*
X156104564Y-73922870D01*
X156225885Y-74152760D01*
X157419040Y-74152760D01*
X157419040Y-74132760D01*
X157673040Y-74132760D01*
X157673040Y-74152760D01*
X159959040Y-74152760D01*
X159959040Y-74132760D01*
X160213040Y-74132760D01*
X160213040Y-74152760D01*
X160233040Y-74152760D01*
X160233040Y-74406760D01*
X160213040Y-74406760D01*
X160213040Y-76692760D01*
X160233040Y-76692760D01*
X160233040Y-76946760D01*
X160213040Y-76946760D01*
X160213040Y-79232760D01*
X160233040Y-79232760D01*
X160233040Y-79486760D01*
X160213040Y-79486760D01*
X160213040Y-81772760D01*
X160233040Y-81772760D01*
X160233040Y-82026760D01*
X160213040Y-82026760D01*
X160213040Y-84312760D01*
X160233040Y-84312760D01*
X160233040Y-84566760D01*
X160213040Y-84566760D01*
X160213040Y-86852760D01*
X160233040Y-86852760D01*
X160233040Y-87106760D01*
X160213040Y-87106760D01*
X160213040Y-89392760D01*
X160233040Y-89392760D01*
X160233040Y-89646760D01*
X160213040Y-89646760D01*
X160213040Y-91932760D01*
X160233040Y-91932760D01*
X160233040Y-92186760D01*
X160213040Y-92186760D01*
X160213040Y-94472760D01*
X160233040Y-94472760D01*
X160233040Y-94726760D01*
X160213040Y-94726760D01*
X160213040Y-97012760D01*
X160233040Y-97012760D01*
X160233040Y-97266760D01*
X160213040Y-97266760D01*
X160213040Y-99552760D01*
X160233040Y-99552760D01*
X160233040Y-99806760D01*
X160213040Y-99806760D01*
X160213040Y-102092760D01*
X160233040Y-102092760D01*
X160233040Y-102346760D01*
X160213040Y-102346760D01*
X160213040Y-102366760D01*
X159959040Y-102366760D01*
X159959040Y-102346760D01*
X159939040Y-102346760D01*
X159939040Y-102092760D01*
X159959040Y-102092760D01*
X159959040Y-99806760D01*
X159939040Y-99806760D01*
X159939040Y-99552760D01*
X159959040Y-99552760D01*
X159959040Y-97266760D01*
X159939040Y-97266760D01*
X159939040Y-97012760D01*
X159959040Y-97012760D01*
X159959040Y-94726760D01*
X159939040Y-94726760D01*
X159939040Y-94472760D01*
X159959040Y-94472760D01*
X159959040Y-92186760D01*
X159939040Y-92186760D01*
X159939040Y-91932760D01*
X159959040Y-91932760D01*
X159959040Y-89646760D01*
X159939040Y-89646760D01*
X159939040Y-89392760D01*
X159959040Y-89392760D01*
X159959040Y-87106760D01*
X159939040Y-87106760D01*
X159939040Y-86852760D01*
X159959040Y-86852760D01*
X159959040Y-84566760D01*
X159939040Y-84566760D01*
X159939040Y-84312760D01*
X159959040Y-84312760D01*
X159959040Y-82026760D01*
X159939040Y-82026760D01*
X159939040Y-81772760D01*
X159959040Y-81772760D01*
X159959040Y-79486760D01*
X157673040Y-79486760D01*
X157673040Y-79506760D01*
X157419040Y-79506760D01*
X157419040Y-79486760D01*
X156225885Y-79486760D01*
X156104564Y-79716650D01*
X156149215Y-79863859D01*
X156274399Y-80126680D01*
X156448452Y-80360029D01*
X156664685Y-80554938D01*
X156781574Y-80624565D01*
X156599408Y-80746285D01*
X156392565Y-80953128D01*
X156230050Y-81196349D01*
X156118108Y-81466602D01*
X156061040Y-81753500D01*
X156061040Y-82046020D01*
X156118108Y-82332918D01*
X156230050Y-82603171D01*
X156392565Y-82846392D01*
X156599408Y-83053235D01*
X156773800Y-83169760D01*
X156599408Y-83286285D01*
X156392565Y-83493128D01*
X156230050Y-83736349D01*
X156118108Y-84006602D01*
X156061040Y-84293500D01*
X156061040Y-84586020D01*
X156118108Y-84872918D01*
X156230050Y-85143171D01*
X156392565Y-85386392D01*
X156599408Y-85593235D01*
X156773800Y-85709760D01*
X156599408Y-85826285D01*
X156392565Y-86033128D01*
X156230050Y-86276349D01*
X156118108Y-86546602D01*
X156061040Y-86833500D01*
X156061040Y-87126020D01*
X156118108Y-87412918D01*
X156230050Y-87683171D01*
X156392565Y-87926392D01*
X156599408Y-88133235D01*
X156773800Y-88249760D01*
X156599408Y-88366285D01*
X156392565Y-88573128D01*
X156230050Y-88816349D01*
X156118108Y-89086602D01*
X156061040Y-89373500D01*
X156061040Y-89666020D01*
X156118108Y-89952918D01*
X156230050Y-90223171D01*
X156392565Y-90466392D01*
X156599408Y-90673235D01*
X156773800Y-90789760D01*
X156599408Y-90906285D01*
X156392565Y-91113128D01*
X156230050Y-91356349D01*
X156118108Y-91626602D01*
X156061040Y-91913500D01*
X156061040Y-92206020D01*
X156118108Y-92492918D01*
X156230050Y-92763171D01*
X156392565Y-93006392D01*
X156599408Y-93213235D01*
X156773800Y-93329760D01*
X156599408Y-93446285D01*
X156392565Y-93653128D01*
X156230050Y-93896349D01*
X156118108Y-94166602D01*
X156061040Y-94453500D01*
X156061040Y-94746020D01*
X156118108Y-95032918D01*
X156230050Y-95303171D01*
X156392565Y-95546392D01*
X156599408Y-95753235D01*
X156773800Y-95869760D01*
X156599408Y-95986285D01*
X156392565Y-96193128D01*
X156230050Y-96436349D01*
X156118108Y-96706602D01*
X156061040Y-96993500D01*
X156061040Y-97286020D01*
X156118108Y-97572918D01*
X156230050Y-97843171D01*
X156392565Y-98086392D01*
X156599408Y-98293235D01*
X156773800Y-98409760D01*
X156599408Y-98526285D01*
X156392565Y-98733128D01*
X156230050Y-98976349D01*
X156118108Y-99246602D01*
X156061040Y-99533500D01*
X156061040Y-99826020D01*
X156118108Y-100112918D01*
X156230050Y-100383171D01*
X156392565Y-100626392D01*
X156599408Y-100833235D01*
X156773800Y-100949760D01*
X156599408Y-101066285D01*
X156392565Y-101273128D01*
X156230050Y-101516349D01*
X156118108Y-101786602D01*
X156061040Y-102073500D01*
X156061040Y-102366020D01*
X156118108Y-102652918D01*
X156230050Y-102923171D01*
X156392565Y-103166392D01*
X156599408Y-103373235D01*
X156842629Y-103535750D01*
X157017058Y-103608001D01*
X154487173Y-103608568D01*
X154662971Y-103535750D01*
X154906192Y-103373235D01*
X155113035Y-103166392D01*
X155275550Y-102923171D01*
X155387492Y-102652918D01*
X155444560Y-102366020D01*
X155444560Y-102073500D01*
X155387492Y-101786602D01*
X155275550Y-101516349D01*
X155113035Y-101273128D01*
X154906192Y-101066285D01*
X154662971Y-100903770D01*
X154392718Y-100791828D01*
X154105820Y-100734760D01*
X153813300Y-100734760D01*
X153526402Y-100791828D01*
X153256149Y-100903770D01*
X153012928Y-101066285D01*
X152806085Y-101273128D01*
X152684365Y-101455294D01*
X152614738Y-101338405D01*
X152419829Y-101122172D01*
X152186480Y-100948119D01*
X151923659Y-100822935D01*
X151776450Y-100778284D01*
X151546560Y-100899605D01*
X151546560Y-102092760D01*
X151566560Y-102092760D01*
X151566560Y-102346760D01*
X151546560Y-102346760D01*
X151546560Y-102366760D01*
X151292560Y-102366760D01*
X151292560Y-102346760D01*
X149006560Y-102346760D01*
X149006560Y-102366760D01*
X148752560Y-102366760D01*
X148752560Y-102346760D01*
X148732560Y-102346760D01*
X148732560Y-102092760D01*
X148752560Y-102092760D01*
X148752560Y-100899605D01*
X149006560Y-100899605D01*
X149006560Y-102092760D01*
X151292560Y-102092760D01*
X151292560Y-100899605D01*
X151062670Y-100778284D01*
X150915461Y-100822935D01*
X150652640Y-100948119D01*
X150419291Y-101122172D01*
X150224382Y-101338405D01*
X150149560Y-101464015D01*
X150074738Y-101338405D01*
X149879829Y-101122172D01*
X149646480Y-100948119D01*
X149383659Y-100822935D01*
X149236450Y-100778284D01*
X149006560Y-100899605D01*
X148752560Y-100899605D01*
X148522670Y-100778284D01*
X148375461Y-100822935D01*
X148112640Y-100948119D01*
X147879291Y-101122172D01*
X147803526Y-101206226D01*
X147779062Y-101125580D01*
X147720097Y-101015266D01*
X147640745Y-100918575D01*
X147544054Y-100839223D01*
X147474560Y-100802077D01*
X147474560Y-98498150D01*
X147480051Y-98442398D01*
X147458137Y-98219899D01*
X147393236Y-98005951D01*
X147287844Y-97808775D01*
X147146009Y-97635949D01*
X147102701Y-97600407D01*
X144227920Y-94725627D01*
X144227920Y-94453500D01*
X144170852Y-94166602D01*
X144058910Y-93896349D01*
X143896395Y-93653128D01*
X143689552Y-93446285D01*
X143507386Y-93324565D01*
X143624275Y-93254938D01*
X143840508Y-93060029D01*
X144014561Y-92826680D01*
X144139745Y-92563859D01*
X144184396Y-92416650D01*
X144063075Y-92186760D01*
X142869920Y-92186760D01*
X142869920Y-92206760D01*
X142615920Y-92206760D01*
X142615920Y-92186760D01*
X142595920Y-92186760D01*
X142595920Y-91932760D01*
X142615920Y-91932760D01*
X142615920Y-89646760D01*
X142869920Y-89646760D01*
X142869920Y-91932760D01*
X144063075Y-91932760D01*
X144184396Y-91702870D01*
X144139745Y-91555661D01*
X144014561Y-91292840D01*
X143840508Y-91059491D01*
X143624275Y-90864582D01*
X143498665Y-90789760D01*
X143624275Y-90714938D01*
X143840508Y-90520029D01*
X144014561Y-90286680D01*
X144139745Y-90023859D01*
X144184396Y-89876650D01*
X144063075Y-89646760D01*
X142869920Y-89646760D01*
X142615920Y-89646760D01*
X142595920Y-89646760D01*
X142595920Y-89392760D01*
X142615920Y-89392760D01*
X142615920Y-87106760D01*
X142869920Y-87106760D01*
X142869920Y-89392760D01*
X144063075Y-89392760D01*
X144184396Y-89162870D01*
X144139745Y-89015661D01*
X144014561Y-88752840D01*
X143840508Y-88519491D01*
X143624275Y-88324582D01*
X143498665Y-88249760D01*
X143624275Y-88174938D01*
X143840508Y-87980029D01*
X144014561Y-87746680D01*
X144139745Y-87483859D01*
X144184396Y-87336650D01*
X144063075Y-87106760D01*
X142869920Y-87106760D01*
X142615920Y-87106760D01*
X142595920Y-87106760D01*
X142595920Y-86852760D01*
X142615920Y-86852760D01*
X142615920Y-84566760D01*
X142869920Y-84566760D01*
X142869920Y-86852760D01*
X144063075Y-86852760D01*
X144184396Y-86622870D01*
X144139745Y-86475661D01*
X144014561Y-86212840D01*
X143840508Y-85979491D01*
X143624275Y-85784582D01*
X143498665Y-85709760D01*
X143624275Y-85634938D01*
X143840508Y-85440029D01*
X144014561Y-85206680D01*
X144139745Y-84943859D01*
X144184396Y-84796650D01*
X144063075Y-84566760D01*
X142869920Y-84566760D01*
X142615920Y-84566760D01*
X142595920Y-84566760D01*
X142595920Y-84312760D01*
X142615920Y-84312760D01*
X142615920Y-82026760D01*
X142869920Y-82026760D01*
X142869920Y-84312760D01*
X144063075Y-84312760D01*
X144184396Y-84082870D01*
X144139745Y-83935661D01*
X144014561Y-83672840D01*
X143840508Y-83439491D01*
X143624275Y-83244582D01*
X143498665Y-83169760D01*
X143624275Y-83094938D01*
X143840508Y-82900029D01*
X144014561Y-82666680D01*
X144139745Y-82403859D01*
X144184396Y-82256650D01*
X144063075Y-82026760D01*
X142869920Y-82026760D01*
X142615920Y-82026760D01*
X142595920Y-82026760D01*
X142595920Y-81772760D01*
X142615920Y-81772760D01*
X142615920Y-79486760D01*
X142869920Y-79486760D01*
X142869920Y-81772760D01*
X144063075Y-81772760D01*
X144184396Y-81542870D01*
X144139745Y-81395661D01*
X144014561Y-81132840D01*
X143840508Y-80899491D01*
X143624275Y-80704582D01*
X143498665Y-80629760D01*
X143624275Y-80554938D01*
X143840508Y-80360029D01*
X144014561Y-80126680D01*
X144139745Y-79863859D01*
X144184396Y-79716650D01*
X144063075Y-79486760D01*
X142869920Y-79486760D01*
X142615920Y-79486760D01*
X142595920Y-79486760D01*
X142595920Y-79232760D01*
X142615920Y-79232760D01*
X142615920Y-76946760D01*
X142869920Y-76946760D01*
X142869920Y-79232760D01*
X144063075Y-79232760D01*
X144184396Y-79002870D01*
X144139745Y-78855661D01*
X144014561Y-78592840D01*
X143840508Y-78359491D01*
X143624275Y-78164582D01*
X143498665Y-78089760D01*
X143624275Y-78014938D01*
X143840508Y-77820029D01*
X144014561Y-77586680D01*
X144139745Y-77323859D01*
X144184396Y-77176650D01*
X156104564Y-77176650D01*
X156149215Y-77323859D01*
X156274399Y-77586680D01*
X156448452Y-77820029D01*
X156664685Y-78014938D01*
X156790295Y-78089760D01*
X156664685Y-78164582D01*
X156448452Y-78359491D01*
X156274399Y-78592840D01*
X156149215Y-78855661D01*
X156104564Y-79002870D01*
X156225885Y-79232760D01*
X157419040Y-79232760D01*
X157419040Y-76946760D01*
X157673040Y-76946760D01*
X157673040Y-79232760D01*
X159959040Y-79232760D01*
X159959040Y-76946760D01*
X157673040Y-76946760D01*
X157419040Y-76946760D01*
X156225885Y-76946760D01*
X156104564Y-77176650D01*
X144184396Y-77176650D01*
X144063075Y-76946760D01*
X142869920Y-76946760D01*
X142615920Y-76946760D01*
X142595920Y-76946760D01*
X142595920Y-76692760D01*
X142615920Y-76692760D01*
X142615920Y-74406760D01*
X142869920Y-74406760D01*
X142869920Y-76692760D01*
X144063075Y-76692760D01*
X144184396Y-76462870D01*
X144139745Y-76315661D01*
X144014561Y-76052840D01*
X143840508Y-75819491D01*
X143624275Y-75624582D01*
X143498665Y-75549760D01*
X143624275Y-75474938D01*
X143840508Y-75280029D01*
X144014561Y-75046680D01*
X144139745Y-74783859D01*
X144184396Y-74636650D01*
X156104564Y-74636650D01*
X156149215Y-74783859D01*
X156274399Y-75046680D01*
X156448452Y-75280029D01*
X156664685Y-75474938D01*
X156790295Y-75549760D01*
X156664685Y-75624582D01*
X156448452Y-75819491D01*
X156274399Y-76052840D01*
X156149215Y-76315661D01*
X156104564Y-76462870D01*
X156225885Y-76692760D01*
X157419040Y-76692760D01*
X157419040Y-74406760D01*
X157673040Y-74406760D01*
X157673040Y-76692760D01*
X159959040Y-76692760D01*
X159959040Y-74406760D01*
X157673040Y-74406760D01*
X157419040Y-74406760D01*
X156225885Y-74406760D01*
X156104564Y-74636650D01*
X144184396Y-74636650D01*
X144063075Y-74406760D01*
X142869920Y-74406760D01*
X142615920Y-74406760D01*
X142595920Y-74406760D01*
X142595920Y-74152760D01*
X142615920Y-74152760D01*
X142615920Y-74132760D01*
X142869920Y-74132760D01*
X142869920Y-74152760D01*
X144063075Y-74152760D01*
X144184396Y-73922870D01*
X144139745Y-73775661D01*
X144014561Y-73512840D01*
X143840508Y-73279491D01*
X143624275Y-73084582D01*
X143507386Y-73014955D01*
X143689552Y-72893235D01*
X143896395Y-72686392D01*
X144058910Y-72443171D01*
X144170852Y-72172918D01*
X144227920Y-71886020D01*
X144227920Y-71593500D01*
X144170852Y-71306602D01*
X144058910Y-71036349D01*
X143896395Y-70793128D01*
X143689552Y-70586285D01*
X143507386Y-70464565D01*
X143624275Y-70394938D01*
X143840508Y-70200029D01*
X144014561Y-69966680D01*
X144139745Y-69703859D01*
X144184396Y-69556650D01*
X144063075Y-69326760D01*
X142869920Y-69326760D01*
X142869920Y-69346760D01*
X142615920Y-69346760D01*
X142615920Y-69326760D01*
X142595920Y-69326760D01*
X142595920Y-69072760D01*
X142615920Y-69072760D01*
X142615920Y-69052760D01*
X142869920Y-69052760D01*
X142869920Y-69072760D01*
X144063075Y-69072760D01*
X144184396Y-68842870D01*
X144166770Y-68784759D01*
X147774738Y-68784759D01*
X148168829Y-69178850D01*
%TA.AperFunction,Conductor*%
D15*
G36*
X148168829Y-69178850D02*
G01*
X148180910Y-69301511D01*
X148222910Y-69439968D01*
X148291116Y-69567571D01*
X148382904Y-69679416D01*
X148494749Y-69771204D01*
X148622352Y-69839410D01*
X148760809Y-69881410D01*
X148904800Y-69895592D01*
X149339800Y-69895592D01*
X149483791Y-69881410D01*
X149529800Y-69867453D01*
X149575809Y-69881410D01*
X149719800Y-69895592D01*
X150154800Y-69895592D01*
X150298791Y-69881410D01*
X150437248Y-69839410D01*
X150478201Y-69817520D01*
X154548999Y-69817520D01*
X156104830Y-71373352D01*
X156061040Y-71593500D01*
X156061040Y-71886020D01*
X156118108Y-72172918D01*
X156230050Y-72443171D01*
X156392565Y-72686392D01*
X156599408Y-72893235D01*
X156781574Y-73014955D01*
X156664685Y-73084582D01*
X156448452Y-73279491D01*
X156274399Y-73512840D01*
X156149215Y-73775661D01*
X156104564Y-73922870D01*
X156225885Y-74152760D01*
X157419040Y-74152760D01*
X157419040Y-74132760D01*
X157673040Y-74132760D01*
X157673040Y-74152760D01*
X159959040Y-74152760D01*
X159959040Y-74132760D01*
X160213040Y-74132760D01*
X160213040Y-74152760D01*
X160233040Y-74152760D01*
X160233040Y-74406760D01*
X160213040Y-74406760D01*
X160213040Y-76692760D01*
X160233040Y-76692760D01*
X160233040Y-76946760D01*
X160213040Y-76946760D01*
X160213040Y-79232760D01*
X160233040Y-79232760D01*
X160233040Y-79486760D01*
X160213040Y-79486760D01*
X160213040Y-81772760D01*
X160233040Y-81772760D01*
X160233040Y-82026760D01*
X160213040Y-82026760D01*
X160213040Y-84312760D01*
X160233040Y-84312760D01*
X160233040Y-84566760D01*
X160213040Y-84566760D01*
X160213040Y-86852760D01*
X160233040Y-86852760D01*
X160233040Y-87106760D01*
X160213040Y-87106760D01*
X160213040Y-89392760D01*
X160233040Y-89392760D01*
X160233040Y-89646760D01*
X160213040Y-89646760D01*
X160213040Y-91932760D01*
X160233040Y-91932760D01*
X160233040Y-92186760D01*
X160213040Y-92186760D01*
X160213040Y-94472760D01*
X160233040Y-94472760D01*
X160233040Y-94726760D01*
X160213040Y-94726760D01*
X160213040Y-97012760D01*
X160233040Y-97012760D01*
X160233040Y-97266760D01*
X160213040Y-97266760D01*
X160213040Y-99552760D01*
X160233040Y-99552760D01*
X160233040Y-99806760D01*
X160213040Y-99806760D01*
X160213040Y-102092760D01*
X160233040Y-102092760D01*
X160233040Y-102346760D01*
X160213040Y-102346760D01*
X160213040Y-102366760D01*
X159959040Y-102366760D01*
X159959040Y-102346760D01*
X159939040Y-102346760D01*
X159939040Y-102092760D01*
X159959040Y-102092760D01*
X159959040Y-99806760D01*
X159939040Y-99806760D01*
X159939040Y-99552760D01*
X159959040Y-99552760D01*
X159959040Y-97266760D01*
X159939040Y-97266760D01*
X159939040Y-97012760D01*
X159959040Y-97012760D01*
X159959040Y-94726760D01*
X159939040Y-94726760D01*
X159939040Y-94472760D01*
X159959040Y-94472760D01*
X159959040Y-92186760D01*
X159939040Y-92186760D01*
X159939040Y-91932760D01*
X159959040Y-91932760D01*
X159959040Y-89646760D01*
X159939040Y-89646760D01*
X159939040Y-89392760D01*
X159959040Y-89392760D01*
X159959040Y-87106760D01*
X159939040Y-87106760D01*
X159939040Y-86852760D01*
X159959040Y-86852760D01*
X159959040Y-84566760D01*
X159939040Y-84566760D01*
X159939040Y-84312760D01*
X159959040Y-84312760D01*
X159959040Y-82026760D01*
X159939040Y-82026760D01*
X159939040Y-81772760D01*
X159959040Y-81772760D01*
X159959040Y-79486760D01*
X157673040Y-79486760D01*
X157673040Y-79506760D01*
X157419040Y-79506760D01*
X157419040Y-79486760D01*
X156225885Y-79486760D01*
X156104564Y-79716650D01*
X156149215Y-79863859D01*
X156274399Y-80126680D01*
X156448452Y-80360029D01*
X156664685Y-80554938D01*
X156781574Y-80624565D01*
X156599408Y-80746285D01*
X156392565Y-80953128D01*
X156230050Y-81196349D01*
X156118108Y-81466602D01*
X156061040Y-81753500D01*
X156061040Y-82046020D01*
X156118108Y-82332918D01*
X156230050Y-82603171D01*
X156392565Y-82846392D01*
X156599408Y-83053235D01*
X156773800Y-83169760D01*
X156599408Y-83286285D01*
X156392565Y-83493128D01*
X156230050Y-83736349D01*
X156118108Y-84006602D01*
X156061040Y-84293500D01*
X156061040Y-84586020D01*
X156118108Y-84872918D01*
X156230050Y-85143171D01*
X156392565Y-85386392D01*
X156599408Y-85593235D01*
X156773800Y-85709760D01*
X156599408Y-85826285D01*
X156392565Y-86033128D01*
X156230050Y-86276349D01*
X156118108Y-86546602D01*
X156061040Y-86833500D01*
X156061040Y-87126020D01*
X156118108Y-87412918D01*
X156230050Y-87683171D01*
X156392565Y-87926392D01*
X156599408Y-88133235D01*
X156773800Y-88249760D01*
X156599408Y-88366285D01*
X156392565Y-88573128D01*
X156230050Y-88816349D01*
X156118108Y-89086602D01*
X156061040Y-89373500D01*
X156061040Y-89666020D01*
X156118108Y-89952918D01*
X156230050Y-90223171D01*
X156392565Y-90466392D01*
X156599408Y-90673235D01*
X156773800Y-90789760D01*
X156599408Y-90906285D01*
X156392565Y-91113128D01*
X156230050Y-91356349D01*
X156118108Y-91626602D01*
X156061040Y-91913500D01*
X156061040Y-92206020D01*
X156118108Y-92492918D01*
X156230050Y-92763171D01*
X156392565Y-93006392D01*
X156599408Y-93213235D01*
X156773800Y-93329760D01*
X156599408Y-93446285D01*
X156392565Y-93653128D01*
X156230050Y-93896349D01*
X156118108Y-94166602D01*
X156061040Y-94453500D01*
X156061040Y-94746020D01*
X156118108Y-95032918D01*
X156230050Y-95303171D01*
X156392565Y-95546392D01*
X156599408Y-95753235D01*
X156773800Y-95869760D01*
X156599408Y-95986285D01*
X156392565Y-96193128D01*
X156230050Y-96436349D01*
X156118108Y-96706602D01*
X156061040Y-96993500D01*
X156061040Y-97286020D01*
X156118108Y-97572918D01*
X156230050Y-97843171D01*
X156392565Y-98086392D01*
X156599408Y-98293235D01*
X156773800Y-98409760D01*
X156599408Y-98526285D01*
X156392565Y-98733128D01*
X156230050Y-98976349D01*
X156118108Y-99246602D01*
X156061040Y-99533500D01*
X156061040Y-99826020D01*
X156118108Y-100112918D01*
X156230050Y-100383171D01*
X156392565Y-100626392D01*
X156599408Y-100833235D01*
X156773800Y-100949760D01*
X156599408Y-101066285D01*
X156392565Y-101273128D01*
X156230050Y-101516349D01*
X156118108Y-101786602D01*
X156061040Y-102073500D01*
X156061040Y-102366020D01*
X156118108Y-102652918D01*
X156230050Y-102923171D01*
X156392565Y-103166392D01*
X156599408Y-103373235D01*
X156842629Y-103535750D01*
X157017058Y-103608001D01*
X154487173Y-103608568D01*
X154662971Y-103535750D01*
X154906192Y-103373235D01*
X155113035Y-103166392D01*
X155275550Y-102923171D01*
X155387492Y-102652918D01*
X155444560Y-102366020D01*
X155444560Y-102073500D01*
X155387492Y-101786602D01*
X155275550Y-101516349D01*
X155113035Y-101273128D01*
X154906192Y-101066285D01*
X154662971Y-100903770D01*
X154392718Y-100791828D01*
X154105820Y-100734760D01*
X153813300Y-100734760D01*
X153526402Y-100791828D01*
X153256149Y-100903770D01*
X153012928Y-101066285D01*
X152806085Y-101273128D01*
X152684365Y-101455294D01*
X152614738Y-101338405D01*
X152419829Y-101122172D01*
X152186480Y-100948119D01*
X151923659Y-100822935D01*
X151776450Y-100778284D01*
X151546560Y-100899605D01*
X151546560Y-102092760D01*
X151566560Y-102092760D01*
X151566560Y-102346760D01*
X151546560Y-102346760D01*
X151546560Y-102366760D01*
X151292560Y-102366760D01*
X151292560Y-102346760D01*
X149006560Y-102346760D01*
X149006560Y-102366760D01*
X148752560Y-102366760D01*
X148752560Y-102346760D01*
X148732560Y-102346760D01*
X148732560Y-102092760D01*
X148752560Y-102092760D01*
X148752560Y-100899605D01*
X149006560Y-100899605D01*
X149006560Y-102092760D01*
X151292560Y-102092760D01*
X151292560Y-100899605D01*
X151062670Y-100778284D01*
X150915461Y-100822935D01*
X150652640Y-100948119D01*
X150419291Y-101122172D01*
X150224382Y-101338405D01*
X150149560Y-101464015D01*
X150074738Y-101338405D01*
X149879829Y-101122172D01*
X149646480Y-100948119D01*
X149383659Y-100822935D01*
X149236450Y-100778284D01*
X149006560Y-100899605D01*
X148752560Y-100899605D01*
X148522670Y-100778284D01*
X148375461Y-100822935D01*
X148112640Y-100948119D01*
X147879291Y-101122172D01*
X147803526Y-101206226D01*
X147779062Y-101125580D01*
X147720097Y-101015266D01*
X147640745Y-100918575D01*
X147544054Y-100839223D01*
X147474560Y-100802077D01*
X147474560Y-98498150D01*
X147480051Y-98442398D01*
X147458137Y-98219899D01*
X147393236Y-98005951D01*
X147287844Y-97808775D01*
X147146009Y-97635949D01*
X147102701Y-97600407D01*
X144227920Y-94725627D01*
X144227920Y-94453500D01*
X144170852Y-94166602D01*
X144058910Y-93896349D01*
X143896395Y-93653128D01*
X143689552Y-93446285D01*
X143507386Y-93324565D01*
X143624275Y-93254938D01*
X143840508Y-93060029D01*
X144014561Y-92826680D01*
X144139745Y-92563859D01*
X144184396Y-92416650D01*
X144063075Y-92186760D01*
X142869920Y-92186760D01*
X142869920Y-92206760D01*
X142615920Y-92206760D01*
X142615920Y-92186760D01*
X142595920Y-92186760D01*
X142595920Y-91932760D01*
X142615920Y-91932760D01*
X142615920Y-89646760D01*
X142869920Y-89646760D01*
X142869920Y-91932760D01*
X144063075Y-91932760D01*
X144184396Y-91702870D01*
X144139745Y-91555661D01*
X144014561Y-91292840D01*
X143840508Y-91059491D01*
X143624275Y-90864582D01*
X143498665Y-90789760D01*
X143624275Y-90714938D01*
X143840508Y-90520029D01*
X144014561Y-90286680D01*
X144139745Y-90023859D01*
X144184396Y-89876650D01*
X144063075Y-89646760D01*
X142869920Y-89646760D01*
X142615920Y-89646760D01*
X142595920Y-89646760D01*
X142595920Y-89392760D01*
X142615920Y-89392760D01*
X142615920Y-87106760D01*
X142869920Y-87106760D01*
X142869920Y-89392760D01*
X144063075Y-89392760D01*
X144184396Y-89162870D01*
X144139745Y-89015661D01*
X144014561Y-88752840D01*
X143840508Y-88519491D01*
X143624275Y-88324582D01*
X143498665Y-88249760D01*
X143624275Y-88174938D01*
X143840508Y-87980029D01*
X144014561Y-87746680D01*
X144139745Y-87483859D01*
X144184396Y-87336650D01*
X144063075Y-87106760D01*
X142869920Y-87106760D01*
X142615920Y-87106760D01*
X142595920Y-87106760D01*
X142595920Y-86852760D01*
X142615920Y-86852760D01*
X142615920Y-84566760D01*
X142869920Y-84566760D01*
X142869920Y-86852760D01*
X144063075Y-86852760D01*
X144184396Y-86622870D01*
X144139745Y-86475661D01*
X144014561Y-86212840D01*
X143840508Y-85979491D01*
X143624275Y-85784582D01*
X143498665Y-85709760D01*
X143624275Y-85634938D01*
X143840508Y-85440029D01*
X144014561Y-85206680D01*
X144139745Y-84943859D01*
X144184396Y-84796650D01*
X144063075Y-84566760D01*
X142869920Y-84566760D01*
X142615920Y-84566760D01*
X142595920Y-84566760D01*
X142595920Y-84312760D01*
X142615920Y-84312760D01*
X142615920Y-82026760D01*
X142869920Y-82026760D01*
X142869920Y-84312760D01*
X144063075Y-84312760D01*
X144184396Y-84082870D01*
X144139745Y-83935661D01*
X144014561Y-83672840D01*
X143840508Y-83439491D01*
X143624275Y-83244582D01*
X143498665Y-83169760D01*
X143624275Y-83094938D01*
X143840508Y-82900029D01*
X144014561Y-82666680D01*
X144139745Y-82403859D01*
X144184396Y-82256650D01*
X144063075Y-82026760D01*
X142869920Y-82026760D01*
X142615920Y-82026760D01*
X142595920Y-82026760D01*
X142595920Y-81772760D01*
X142615920Y-81772760D01*
X142615920Y-79486760D01*
X142869920Y-79486760D01*
X142869920Y-81772760D01*
X144063075Y-81772760D01*
X144184396Y-81542870D01*
X144139745Y-81395661D01*
X144014561Y-81132840D01*
X143840508Y-80899491D01*
X143624275Y-80704582D01*
X143498665Y-80629760D01*
X143624275Y-80554938D01*
X143840508Y-80360029D01*
X144014561Y-80126680D01*
X144139745Y-79863859D01*
X144184396Y-79716650D01*
X144063075Y-79486760D01*
X142869920Y-79486760D01*
X142615920Y-79486760D01*
X142595920Y-79486760D01*
X142595920Y-79232760D01*
X142615920Y-79232760D01*
X142615920Y-76946760D01*
X142869920Y-76946760D01*
X142869920Y-79232760D01*
X144063075Y-79232760D01*
X144184396Y-79002870D01*
X144139745Y-78855661D01*
X144014561Y-78592840D01*
X143840508Y-78359491D01*
X143624275Y-78164582D01*
X143498665Y-78089760D01*
X143624275Y-78014938D01*
X143840508Y-77820029D01*
X144014561Y-77586680D01*
X144139745Y-77323859D01*
X144184396Y-77176650D01*
X156104564Y-77176650D01*
X156149215Y-77323859D01*
X156274399Y-77586680D01*
X156448452Y-77820029D01*
X156664685Y-78014938D01*
X156790295Y-78089760D01*
X156664685Y-78164582D01*
X156448452Y-78359491D01*
X156274399Y-78592840D01*
X156149215Y-78855661D01*
X156104564Y-79002870D01*
X156225885Y-79232760D01*
X157419040Y-79232760D01*
X157419040Y-76946760D01*
X157673040Y-76946760D01*
X157673040Y-79232760D01*
X159959040Y-79232760D01*
X159959040Y-76946760D01*
X157673040Y-76946760D01*
X157419040Y-76946760D01*
X156225885Y-76946760D01*
X156104564Y-77176650D01*
X144184396Y-77176650D01*
X144063075Y-76946760D01*
X142869920Y-76946760D01*
X142615920Y-76946760D01*
X142595920Y-76946760D01*
X142595920Y-76692760D01*
X142615920Y-76692760D01*
X142615920Y-74406760D01*
X142869920Y-74406760D01*
X142869920Y-76692760D01*
X144063075Y-76692760D01*
X144184396Y-76462870D01*
X144139745Y-76315661D01*
X144014561Y-76052840D01*
X143840508Y-75819491D01*
X143624275Y-75624582D01*
X143498665Y-75549760D01*
X143624275Y-75474938D01*
X143840508Y-75280029D01*
X144014561Y-75046680D01*
X144139745Y-74783859D01*
X144184396Y-74636650D01*
X156104564Y-74636650D01*
X156149215Y-74783859D01*
X156274399Y-75046680D01*
X156448452Y-75280029D01*
X156664685Y-75474938D01*
X156790295Y-75549760D01*
X156664685Y-75624582D01*
X156448452Y-75819491D01*
X156274399Y-76052840D01*
X156149215Y-76315661D01*
X156104564Y-76462870D01*
X156225885Y-76692760D01*
X157419040Y-76692760D01*
X157419040Y-74406760D01*
X157673040Y-74406760D01*
X157673040Y-76692760D01*
X159959040Y-76692760D01*
X159959040Y-74406760D01*
X157673040Y-74406760D01*
X157419040Y-74406760D01*
X156225885Y-74406760D01*
X156104564Y-74636650D01*
X144184396Y-74636650D01*
X144063075Y-74406760D01*
X142869920Y-74406760D01*
X142615920Y-74406760D01*
X142595920Y-74406760D01*
X142595920Y-74152760D01*
X142615920Y-74152760D01*
X142615920Y-74132760D01*
X142869920Y-74132760D01*
X142869920Y-74152760D01*
X144063075Y-74152760D01*
X144184396Y-73922870D01*
X144139745Y-73775661D01*
X144014561Y-73512840D01*
X143840508Y-73279491D01*
X143624275Y-73084582D01*
X143507386Y-73014955D01*
X143689552Y-72893235D01*
X143896395Y-72686392D01*
X144058910Y-72443171D01*
X144170852Y-72172918D01*
X144227920Y-71886020D01*
X144227920Y-71593500D01*
X144170852Y-71306602D01*
X144058910Y-71036349D01*
X143896395Y-70793128D01*
X143689552Y-70586285D01*
X143507386Y-70464565D01*
X143624275Y-70394938D01*
X143840508Y-70200029D01*
X144014561Y-69966680D01*
X144139745Y-69703859D01*
X144184396Y-69556650D01*
X144063075Y-69326760D01*
X142869920Y-69326760D01*
X142869920Y-69346760D01*
X142615920Y-69346760D01*
X142615920Y-69326760D01*
X142595920Y-69326760D01*
X142595920Y-69072760D01*
X142615920Y-69072760D01*
X142615920Y-69052760D01*
X142869920Y-69052760D01*
X142869920Y-69072760D01*
X144063075Y-69072760D01*
X144184396Y-68842870D01*
X144166770Y-68784759D01*
X147774738Y-68784759D01*
X148168829Y-69178850D01*
G37*
%TD.AperFunction*%
D14*
X140329920Y-97012760D02*
X142615920Y-97012760D01*
X142615920Y-96992760D01*
X142869920Y-96992760D01*
X142869920Y-97012760D01*
X142889920Y-97012760D01*
X142889920Y-97266760D01*
X142869920Y-97266760D01*
X142869920Y-99552760D01*
X144063075Y-99552760D01*
X144184396Y-99322870D01*
X144139745Y-99175661D01*
X144014561Y-98912840D01*
X143840508Y-98679491D01*
X143624275Y-98484582D01*
X143498665Y-98409760D01*
X143624275Y-98334938D01*
X143840508Y-98140029D01*
X144014561Y-97906680D01*
X144073974Y-97781944D01*
X145204560Y-98912530D01*
X145204561Y-100802077D01*
X145135066Y-100839223D01*
X145038375Y-100918575D01*
X144959023Y-101015266D01*
X144900058Y-101125580D01*
X144863748Y-101245278D01*
X144851488Y-101369760D01*
X144851488Y-102634761D01*
X144230992Y-102634761D01*
X144230992Y-101369760D01*
X144218732Y-101245278D01*
X144182422Y-101125580D01*
X144123457Y-101015266D01*
X144044105Y-100918575D01*
X143947414Y-100839223D01*
X143837100Y-100780258D01*
X143756454Y-100755794D01*
X143840508Y-100680029D01*
X144014561Y-100446680D01*
X144139745Y-100183859D01*
X144184396Y-100036650D01*
X144063075Y-99806760D01*
X142869920Y-99806760D01*
X142869920Y-99826760D01*
X142615920Y-99826760D01*
X142615920Y-99806760D01*
X140329920Y-99806760D01*
X140329920Y-99826760D01*
X140075920Y-99826760D01*
X140075920Y-99806760D01*
X140055920Y-99806760D01*
X140055920Y-99552760D01*
X140075920Y-99552760D01*
X140075920Y-97266760D01*
X140329920Y-97266760D01*
X140329920Y-99552760D01*
X142615920Y-99552760D01*
X142615920Y-97266760D01*
X140329920Y-97266760D01*
X140075920Y-97266760D01*
X140055920Y-97266760D01*
X140055920Y-97012760D01*
X140075920Y-97012760D01*
X140075920Y-96992760D01*
X140329920Y-96992760D01*
X140329920Y-97012760D01*
%TA.AperFunction,Conductor*%
D15*
G36*
X140329920Y-97012760D02*
G01*
X142615920Y-97012760D01*
X142615920Y-96992760D01*
X142869920Y-96992760D01*
X142869920Y-97012760D01*
X142889920Y-97012760D01*
X142889920Y-97266760D01*
X142869920Y-97266760D01*
X142869920Y-99552760D01*
X144063075Y-99552760D01*
X144184396Y-99322870D01*
X144139745Y-99175661D01*
X144014561Y-98912840D01*
X143840508Y-98679491D01*
X143624275Y-98484582D01*
X143498665Y-98409760D01*
X143624275Y-98334938D01*
X143840508Y-98140029D01*
X144014561Y-97906680D01*
X144073974Y-97781944D01*
X145204560Y-98912530D01*
X145204561Y-100802077D01*
X145135066Y-100839223D01*
X145038375Y-100918575D01*
X144959023Y-101015266D01*
X144900058Y-101125580D01*
X144863748Y-101245278D01*
X144851488Y-101369760D01*
X144851488Y-102634761D01*
X144230992Y-102634761D01*
X144230992Y-101369760D01*
X144218732Y-101245278D01*
X144182422Y-101125580D01*
X144123457Y-101015266D01*
X144044105Y-100918575D01*
X143947414Y-100839223D01*
X143837100Y-100780258D01*
X143756454Y-100755794D01*
X143840508Y-100680029D01*
X144014561Y-100446680D01*
X144139745Y-100183859D01*
X144184396Y-100036650D01*
X144063075Y-99806760D01*
X142869920Y-99806760D01*
X142869920Y-99826760D01*
X142615920Y-99826760D01*
X142615920Y-99806760D01*
X140329920Y-99806760D01*
X140329920Y-99826760D01*
X140075920Y-99826760D01*
X140075920Y-99806760D01*
X140055920Y-99806760D01*
X140055920Y-99552760D01*
X140075920Y-99552760D01*
X140075920Y-97266760D01*
X140329920Y-97266760D01*
X140329920Y-99552760D01*
X142615920Y-99552760D01*
X142615920Y-97266760D01*
X140329920Y-97266760D01*
X140075920Y-97266760D01*
X140055920Y-97266760D01*
X140055920Y-97012760D01*
X140075920Y-97012760D01*
X140075920Y-96992760D01*
X140329920Y-96992760D01*
X140329920Y-97012760D01*
G37*
%TD.AperFunction*%
D14*
X156304183Y-40445401D02*
X156230050Y-40556349D01*
X156118108Y-40826602D01*
X156061040Y-41113500D01*
X156061040Y-41406020D01*
X156118108Y-41692918D01*
X156230050Y-41963171D01*
X156392565Y-42206392D01*
X156599408Y-42413235D01*
X156773800Y-42529760D01*
X156599408Y-42646285D01*
X156392565Y-42853128D01*
X156230050Y-43096349D01*
X156118108Y-43366602D01*
X156061040Y-43653500D01*
X156061040Y-43946020D01*
X156118108Y-44232918D01*
X156230050Y-44503171D01*
X156392565Y-44746392D01*
X156599408Y-44953235D01*
X156773800Y-45069760D01*
X156599408Y-45186285D01*
X156392565Y-45393128D01*
X156230050Y-45636349D01*
X156118108Y-45906602D01*
X156061040Y-46193500D01*
X156061040Y-46486020D01*
X156118108Y-46772918D01*
X156230050Y-47043171D01*
X156392565Y-47286392D01*
X156599408Y-47493235D01*
X156773800Y-47609760D01*
X156599408Y-47726285D01*
X156392565Y-47933128D01*
X156230050Y-48176349D01*
X156118108Y-48446602D01*
X156061040Y-48733500D01*
X156061040Y-49026020D01*
X156118108Y-49312918D01*
X156230050Y-49583171D01*
X156392565Y-49826392D01*
X156599408Y-50033235D01*
X156781574Y-50154955D01*
X156664685Y-50224582D01*
X156448452Y-50419491D01*
X156274399Y-50652840D01*
X156149215Y-50915661D01*
X156104564Y-51062870D01*
X156225885Y-51292760D01*
X157419040Y-51292760D01*
X157419040Y-51272760D01*
X157673040Y-51272760D01*
X157673040Y-51292760D01*
X159959040Y-51292760D01*
X159959040Y-49006760D01*
X159939040Y-49006760D01*
X159939040Y-48752760D01*
X159959040Y-48752760D01*
X159959040Y-46466760D01*
X159939040Y-46466760D01*
X159939040Y-46212760D01*
X159959040Y-46212760D01*
X159959040Y-43926760D01*
X159939040Y-43926760D01*
X159939040Y-43672760D01*
X159959040Y-43672760D01*
X159959040Y-41386760D01*
X159939040Y-41386760D01*
X159939040Y-41132760D01*
X159959040Y-41132760D01*
X159959040Y-41112760D01*
X160213040Y-41112760D01*
X160213040Y-41132760D01*
X160233040Y-41132760D01*
X160233040Y-41386760D01*
X160213040Y-41386760D01*
X160213040Y-43672760D01*
X160233040Y-43672760D01*
X160233040Y-43926760D01*
X160213040Y-43926760D01*
X160213040Y-46212760D01*
X160233040Y-46212760D01*
X160233040Y-46466760D01*
X160213040Y-46466760D01*
X160213040Y-48752760D01*
X160233040Y-48752760D01*
X160233040Y-49006760D01*
X160213040Y-49006760D01*
X160213040Y-51292760D01*
X160233040Y-51292760D01*
X160233040Y-51546760D01*
X160213040Y-51546760D01*
X160213040Y-53832760D01*
X160233040Y-53832760D01*
X160233040Y-54086760D01*
X160213040Y-54086760D01*
X160213040Y-56372760D01*
X160233040Y-56372760D01*
X160233040Y-56626760D01*
X160213040Y-56626760D01*
X160213040Y-58912760D01*
X160233040Y-58912760D01*
X160233040Y-59166760D01*
X160213040Y-59166760D01*
X160213040Y-61452760D01*
X160233040Y-61452760D01*
X160233040Y-61706760D01*
X160213040Y-61706760D01*
X160213040Y-63992760D01*
X160233040Y-63992760D01*
X160233040Y-64246760D01*
X160213040Y-64246760D01*
X160213040Y-66532760D01*
X160233040Y-66532760D01*
X160233040Y-66786760D01*
X160213040Y-66786760D01*
X160213040Y-69072760D01*
X160233040Y-69072760D01*
X160233040Y-69326760D01*
X160213040Y-69326760D01*
X160213040Y-69346760D01*
X159959040Y-69346760D01*
X159959040Y-69326760D01*
X157673040Y-69326760D01*
X157673040Y-69346760D01*
X157419040Y-69346760D01*
X157419040Y-69326760D01*
X157399040Y-69326760D01*
X157399040Y-69072760D01*
X157419040Y-69072760D01*
X157419040Y-66786760D01*
X157673040Y-66786760D01*
X157673040Y-69072760D01*
X159959040Y-69072760D01*
X159959040Y-66786760D01*
X157673040Y-66786760D01*
X157419040Y-66786760D01*
X156225885Y-66786760D01*
X156104564Y-67016650D01*
X156149215Y-67163859D01*
X156274399Y-67426680D01*
X156448452Y-67660029D01*
X156664685Y-67854938D01*
X156790295Y-67929760D01*
X156664685Y-68004582D01*
X156448452Y-68199491D01*
X156274399Y-68432840D01*
X156149215Y-68695661D01*
X156104564Y-68842870D01*
X156225884Y-69072758D01*
X156061040Y-69072758D01*
X156061040Y-69179959D01*
X155427604Y-68546523D01*
X155403801Y-68517519D01*
X155288076Y-68422546D01*
X155156047Y-68351974D01*
X155012786Y-68308517D01*
X154901133Y-68297520D01*
X154901122Y-68297520D01*
X154863800Y-68293844D01*
X154826478Y-68297520D01*
X150478201Y-68297520D01*
X150437248Y-68275630D01*
X150298791Y-68233630D01*
X150154800Y-68219448D01*
X149719800Y-68219448D01*
X149575809Y-68233630D01*
X149529800Y-68247587D01*
X149483791Y-68233630D01*
X149361131Y-68221549D01*
X148653343Y-67513761D01*
X148629540Y-67484758D01*
X148513815Y-67389785D01*
X148381786Y-67319213D01*
X148238525Y-67275756D01*
X148126872Y-67264759D01*
X148126861Y-67264759D01*
X148089539Y-67261083D01*
X148052217Y-67264759D01*
X144091685Y-67264759D01*
X144139745Y-67163859D01*
X144184396Y-67016650D01*
X144063075Y-66786760D01*
X142869920Y-66786760D01*
X142869920Y-66806760D01*
X142615920Y-66806760D01*
X142615920Y-66786760D01*
X140329920Y-66786760D01*
X140329920Y-66806760D01*
X140075920Y-66806760D01*
X140075920Y-66786760D01*
X140055920Y-66786760D01*
X140055920Y-66532760D01*
X140075920Y-66532760D01*
X140075920Y-66512760D01*
X140329920Y-66512760D01*
X140329920Y-66532760D01*
X142615920Y-66532760D01*
X142615920Y-64246760D01*
X142869920Y-64246760D01*
X142869920Y-66532760D01*
X144063075Y-66532760D01*
X144184396Y-66302870D01*
X144139745Y-66155661D01*
X144014561Y-65892840D01*
X143840508Y-65659491D01*
X143624275Y-65464582D01*
X143498665Y-65389760D01*
X143624275Y-65314938D01*
X143840508Y-65120029D01*
X144014561Y-64886680D01*
X144139745Y-64623859D01*
X144184396Y-64476650D01*
X144063075Y-64246760D01*
X142869920Y-64246760D01*
X142615920Y-64246760D01*
X142595920Y-64246760D01*
X142595920Y-63992760D01*
X142615920Y-63992760D01*
X142615920Y-61706760D01*
X142869920Y-61706760D01*
X142869920Y-63992760D01*
X144063075Y-63992760D01*
X144073239Y-63973500D01*
X156061040Y-63973500D01*
X156061040Y-64266020D01*
X156118108Y-64552918D01*
X156230050Y-64823171D01*
X156392565Y-65066392D01*
X156599408Y-65273235D01*
X156781574Y-65394955D01*
X156664685Y-65464582D01*
X156448452Y-65659491D01*
X156274399Y-65892840D01*
X156149215Y-66155661D01*
X156104564Y-66302870D01*
X156225885Y-66532760D01*
X157419040Y-66532760D01*
X157419040Y-66512760D01*
X157673040Y-66512760D01*
X157673040Y-66532760D01*
X159959040Y-66532760D01*
X159959040Y-64246760D01*
X159939040Y-64246760D01*
X159939040Y-63992760D01*
X159959040Y-63992760D01*
X159959040Y-61706760D01*
X157673040Y-61706760D01*
X157673040Y-61726760D01*
X157419040Y-61726760D01*
X157419040Y-61706760D01*
X156225885Y-61706760D01*
X156104564Y-61936650D01*
X156149215Y-62083859D01*
X156274399Y-62346680D01*
X156448452Y-62580029D01*
X156664685Y-62774938D01*
X156781574Y-62844565D01*
X156599408Y-62966285D01*
X156392565Y-63173128D01*
X156230050Y-63416349D01*
X156118108Y-63686602D01*
X156061040Y-63973500D01*
X144073239Y-63973500D01*
X144184396Y-63762870D01*
X144139745Y-63615661D01*
X144014561Y-63352840D01*
X143840508Y-63119491D01*
X143624275Y-62924582D01*
X143498665Y-62849760D01*
X143624275Y-62774938D01*
X143840508Y-62580029D01*
X144014561Y-62346680D01*
X144139745Y-62083859D01*
X144184396Y-61936650D01*
X144063075Y-61706760D01*
X142869920Y-61706760D01*
X142615920Y-61706760D01*
X140329920Y-61706760D01*
X140329920Y-61726760D01*
X140075920Y-61726760D01*
X140075920Y-61706760D01*
X140055920Y-61706760D01*
X140055920Y-61452760D01*
X140075920Y-61452760D01*
X140075920Y-61432760D01*
X140329920Y-61432760D01*
X140329920Y-61452760D01*
X142615920Y-61452760D01*
X142615920Y-59166760D01*
X142869920Y-59166760D01*
X142869920Y-61452760D01*
X144063075Y-61452760D01*
X144184396Y-61222870D01*
X144139745Y-61075661D01*
X144014561Y-60812840D01*
X143840508Y-60579491D01*
X143624275Y-60384582D01*
X143498665Y-60309760D01*
X143624275Y-60234938D01*
X143840508Y-60040029D01*
X144014561Y-59806680D01*
X144139745Y-59543859D01*
X144184396Y-59396650D01*
X144063075Y-59166760D01*
X142869920Y-59166760D01*
X142615920Y-59166760D01*
X142595920Y-59166760D01*
X142595920Y-58912760D01*
X142615920Y-58912760D01*
X142615920Y-56626760D01*
X142869920Y-56626760D01*
X142869920Y-58912760D01*
X144063075Y-58912760D01*
X144184396Y-58682870D01*
X144139745Y-58535661D01*
X144014561Y-58272840D01*
X143840508Y-58039491D01*
X143624275Y-57844582D01*
X143498665Y-57769760D01*
X143624275Y-57694938D01*
X143840508Y-57500029D01*
X144014561Y-57266680D01*
X144139745Y-57003859D01*
X144184396Y-56856650D01*
X144063075Y-56626760D01*
X142869920Y-56626760D01*
X142615920Y-56626760D01*
X142595920Y-56626760D01*
X142595920Y-56372760D01*
X142615920Y-56372760D01*
X142615920Y-54086760D01*
X142869920Y-54086760D01*
X142869920Y-56372760D01*
X144063075Y-56372760D01*
X144184396Y-56142870D01*
X144139745Y-55995661D01*
X144014561Y-55732840D01*
X143840508Y-55499491D01*
X143624275Y-55304582D01*
X143498665Y-55229760D01*
X143624275Y-55154938D01*
X143840508Y-54960029D01*
X144014561Y-54726680D01*
X144139745Y-54463859D01*
X144184396Y-54316650D01*
X144063075Y-54086760D01*
X142869920Y-54086760D01*
X142615920Y-54086760D01*
X142595920Y-54086760D01*
X142595920Y-53832760D01*
X142615920Y-53832760D01*
X142615920Y-51546760D01*
X142869920Y-51546760D01*
X142869920Y-53832760D01*
X144063075Y-53832760D01*
X144073239Y-53813500D01*
X156061040Y-53813500D01*
X156061040Y-54106020D01*
X156118108Y-54392918D01*
X156230050Y-54663171D01*
X156392565Y-54906392D01*
X156599408Y-55113235D01*
X156773800Y-55229760D01*
X156599408Y-55346285D01*
X156392565Y-55553128D01*
X156230050Y-55796349D01*
X156118108Y-56066602D01*
X156061040Y-56353500D01*
X156061040Y-56646020D01*
X156118108Y-56932918D01*
X156230050Y-57203171D01*
X156392565Y-57446392D01*
X156599408Y-57653235D01*
X156773800Y-57769760D01*
X156599408Y-57886285D01*
X156392565Y-58093128D01*
X156230050Y-58336349D01*
X156118108Y-58606602D01*
X156061040Y-58893500D01*
X156061040Y-59186020D01*
X156118108Y-59472918D01*
X156230050Y-59743171D01*
X156392565Y-59986392D01*
X156599408Y-60193235D01*
X156781574Y-60314955D01*
X156664685Y-60384582D01*
X156448452Y-60579491D01*
X156274399Y-60812840D01*
X156149215Y-61075661D01*
X156104564Y-61222870D01*
X156225885Y-61452760D01*
X157419040Y-61452760D01*
X157419040Y-61432760D01*
X157673040Y-61432760D01*
X157673040Y-61452760D01*
X159959040Y-61452760D01*
X159959040Y-59166760D01*
X159939040Y-59166760D01*
X159939040Y-58912760D01*
X159959040Y-58912760D01*
X159959040Y-56626760D01*
X159939040Y-56626760D01*
X159939040Y-56372760D01*
X159959040Y-56372760D01*
X159959040Y-54086760D01*
X159939040Y-54086760D01*
X159939040Y-53832760D01*
X159959040Y-53832760D01*
X159959040Y-51546760D01*
X157673040Y-51546760D01*
X157673040Y-51566760D01*
X157419040Y-51566760D01*
X157419040Y-51546760D01*
X156225885Y-51546760D01*
X156104564Y-51776650D01*
X156149215Y-51923859D01*
X156274399Y-52186680D01*
X156448452Y-52420029D01*
X156664685Y-52614938D01*
X156781574Y-52684565D01*
X156599408Y-52806285D01*
X156392565Y-53013128D01*
X156230050Y-53256349D01*
X156118108Y-53526602D01*
X156061040Y-53813500D01*
X144073239Y-53813500D01*
X144184396Y-53602870D01*
X144139745Y-53455661D01*
X144014561Y-53192840D01*
X143840508Y-52959491D01*
X143624275Y-52764582D01*
X143498665Y-52689760D01*
X143624275Y-52614938D01*
X143840508Y-52420029D01*
X144014561Y-52186680D01*
X144139745Y-51923859D01*
X144184396Y-51776650D01*
X144063075Y-51546760D01*
X142869920Y-51546760D01*
X142615920Y-51546760D01*
X140329920Y-51546760D01*
X140329920Y-51566760D01*
X140075920Y-51566760D01*
X140075920Y-51546760D01*
X140055920Y-51546760D01*
X140055920Y-51292760D01*
X140075920Y-51292760D01*
X140075920Y-51272760D01*
X140329920Y-51272760D01*
X140329920Y-51292760D01*
X142615920Y-51292760D01*
X142615920Y-49006760D01*
X142869920Y-49006760D01*
X142869920Y-51292760D01*
X144063075Y-51292760D01*
X144184396Y-51062870D01*
X144139745Y-50915661D01*
X144014561Y-50652840D01*
X143840508Y-50419491D01*
X143624275Y-50224582D01*
X143498665Y-50149760D01*
X143624275Y-50074938D01*
X143840508Y-49880029D01*
X144014561Y-49646680D01*
X144139745Y-49383859D01*
X144184396Y-49236650D01*
X144063075Y-49006760D01*
X142869920Y-49006760D01*
X142615920Y-49006760D01*
X142595920Y-49006760D01*
X142595920Y-48752760D01*
X142615920Y-48752760D01*
X142615920Y-46466760D01*
X142869920Y-46466760D01*
X142869920Y-48752760D01*
X144063075Y-48752760D01*
X144184396Y-48522870D01*
X144139745Y-48375661D01*
X144014561Y-48112840D01*
X143840508Y-47879491D01*
X143624275Y-47684582D01*
X143498665Y-47609760D01*
X143624275Y-47534938D01*
X143840508Y-47340029D01*
X144014561Y-47106680D01*
X144139745Y-46843859D01*
X144184396Y-46696650D01*
X144063075Y-46466760D01*
X142869920Y-46466760D01*
X142615920Y-46466760D01*
X142595920Y-46466760D01*
X142595920Y-46212760D01*
X142615920Y-46212760D01*
X142615920Y-43926760D01*
X142869920Y-43926760D01*
X142869920Y-46212760D01*
X144063075Y-46212760D01*
X144184396Y-45982870D01*
X144139745Y-45835661D01*
X144014561Y-45572840D01*
X143840508Y-45339491D01*
X143624275Y-45144582D01*
X143498665Y-45069760D01*
X143624275Y-44994938D01*
X143840508Y-44800029D01*
X144014561Y-44566680D01*
X144139745Y-44303859D01*
X144184396Y-44156650D01*
X144063075Y-43926760D01*
X142869920Y-43926760D01*
X142615920Y-43926760D01*
X142595920Y-43926760D01*
X142595920Y-43672760D01*
X142615920Y-43672760D01*
X142615920Y-41386760D01*
X142869920Y-41386760D01*
X142869920Y-43672760D01*
X144063075Y-43672760D01*
X144184396Y-43442870D01*
X144139745Y-43295661D01*
X144014561Y-43032840D01*
X143840508Y-42799491D01*
X143624275Y-42604582D01*
X143498665Y-42529760D01*
X143624275Y-42454938D01*
X143840508Y-42260029D01*
X144014561Y-42026680D01*
X144139745Y-41763859D01*
X144184396Y-41616650D01*
X144063075Y-41386760D01*
X142869920Y-41386760D01*
X142615920Y-41386760D01*
X142595920Y-41386760D01*
X142595920Y-41132760D01*
X142615920Y-41132760D01*
X142615920Y-41112760D01*
X142869920Y-41112760D01*
X142869920Y-41132760D01*
X144063075Y-41132760D01*
X144184396Y-40902870D01*
X144139745Y-40755661D01*
X144014561Y-40492840D01*
X143977127Y-40442653D01*
X156304183Y-40445401D01*
%TA.AperFunction,Conductor*%
D15*
G36*
X156304183Y-40445401D02*
G01*
X156230050Y-40556349D01*
X156118108Y-40826602D01*
X156061040Y-41113500D01*
X156061040Y-41406020D01*
X156118108Y-41692918D01*
X156230050Y-41963171D01*
X156392565Y-42206392D01*
X156599408Y-42413235D01*
X156773800Y-42529760D01*
X156599408Y-42646285D01*
X156392565Y-42853128D01*
X156230050Y-43096349D01*
X156118108Y-43366602D01*
X156061040Y-43653500D01*
X156061040Y-43946020D01*
X156118108Y-44232918D01*
X156230050Y-44503171D01*
X156392565Y-44746392D01*
X156599408Y-44953235D01*
X156773800Y-45069760D01*
X156599408Y-45186285D01*
X156392565Y-45393128D01*
X156230050Y-45636349D01*
X156118108Y-45906602D01*
X156061040Y-46193500D01*
X156061040Y-46486020D01*
X156118108Y-46772918D01*
X156230050Y-47043171D01*
X156392565Y-47286392D01*
X156599408Y-47493235D01*
X156773800Y-47609760D01*
X156599408Y-47726285D01*
X156392565Y-47933128D01*
X156230050Y-48176349D01*
X156118108Y-48446602D01*
X156061040Y-48733500D01*
X156061040Y-49026020D01*
X156118108Y-49312918D01*
X156230050Y-49583171D01*
X156392565Y-49826392D01*
X156599408Y-50033235D01*
X156781574Y-50154955D01*
X156664685Y-50224582D01*
X156448452Y-50419491D01*
X156274399Y-50652840D01*
X156149215Y-50915661D01*
X156104564Y-51062870D01*
X156225885Y-51292760D01*
X157419040Y-51292760D01*
X157419040Y-51272760D01*
X157673040Y-51272760D01*
X157673040Y-51292760D01*
X159959040Y-51292760D01*
X159959040Y-49006760D01*
X159939040Y-49006760D01*
X159939040Y-48752760D01*
X159959040Y-48752760D01*
X159959040Y-46466760D01*
X159939040Y-46466760D01*
X159939040Y-46212760D01*
X159959040Y-46212760D01*
X159959040Y-43926760D01*
X159939040Y-43926760D01*
X159939040Y-43672760D01*
X159959040Y-43672760D01*
X159959040Y-41386760D01*
X159939040Y-41386760D01*
X159939040Y-41132760D01*
X159959040Y-41132760D01*
X159959040Y-41112760D01*
X160213040Y-41112760D01*
X160213040Y-41132760D01*
X160233040Y-41132760D01*
X160233040Y-41386760D01*
X160213040Y-41386760D01*
X160213040Y-43672760D01*
X160233040Y-43672760D01*
X160233040Y-43926760D01*
X160213040Y-43926760D01*
X160213040Y-46212760D01*
X160233040Y-46212760D01*
X160233040Y-46466760D01*
X160213040Y-46466760D01*
X160213040Y-48752760D01*
X160233040Y-48752760D01*
X160233040Y-49006760D01*
X160213040Y-49006760D01*
X160213040Y-51292760D01*
X160233040Y-51292760D01*
X160233040Y-51546760D01*
X160213040Y-51546760D01*
X160213040Y-53832760D01*
X160233040Y-53832760D01*
X160233040Y-54086760D01*
X160213040Y-54086760D01*
X160213040Y-56372760D01*
X160233040Y-56372760D01*
X160233040Y-56626760D01*
X160213040Y-56626760D01*
X160213040Y-58912760D01*
X160233040Y-58912760D01*
X160233040Y-59166760D01*
X160213040Y-59166760D01*
X160213040Y-61452760D01*
X160233040Y-61452760D01*
X160233040Y-61706760D01*
X160213040Y-61706760D01*
X160213040Y-63992760D01*
X160233040Y-63992760D01*
X160233040Y-64246760D01*
X160213040Y-64246760D01*
X160213040Y-66532760D01*
X160233040Y-66532760D01*
X160233040Y-66786760D01*
X160213040Y-66786760D01*
X160213040Y-69072760D01*
X160233040Y-69072760D01*
X160233040Y-69326760D01*
X160213040Y-69326760D01*
X160213040Y-69346760D01*
X159959040Y-69346760D01*
X159959040Y-69326760D01*
X157673040Y-69326760D01*
X157673040Y-69346760D01*
X157419040Y-69346760D01*
X157419040Y-69326760D01*
X157399040Y-69326760D01*
X157399040Y-69072760D01*
X157419040Y-69072760D01*
X157419040Y-66786760D01*
X157673040Y-66786760D01*
X157673040Y-69072760D01*
X159959040Y-69072760D01*
X159959040Y-66786760D01*
X157673040Y-66786760D01*
X157419040Y-66786760D01*
X156225885Y-66786760D01*
X156104564Y-67016650D01*
X156149215Y-67163859D01*
X156274399Y-67426680D01*
X156448452Y-67660029D01*
X156664685Y-67854938D01*
X156790295Y-67929760D01*
X156664685Y-68004582D01*
X156448452Y-68199491D01*
X156274399Y-68432840D01*
X156149215Y-68695661D01*
X156104564Y-68842870D01*
X156225884Y-69072758D01*
X156061040Y-69072758D01*
X156061040Y-69179959D01*
X155427604Y-68546523D01*
X155403801Y-68517519D01*
X155288076Y-68422546D01*
X155156047Y-68351974D01*
X155012786Y-68308517D01*
X154901133Y-68297520D01*
X154901122Y-68297520D01*
X154863800Y-68293844D01*
X154826478Y-68297520D01*
X150478201Y-68297520D01*
X150437248Y-68275630D01*
X150298791Y-68233630D01*
X150154800Y-68219448D01*
X149719800Y-68219448D01*
X149575809Y-68233630D01*
X149529800Y-68247587D01*
X149483791Y-68233630D01*
X149361131Y-68221549D01*
X148653343Y-67513761D01*
X148629540Y-67484758D01*
X148513815Y-67389785D01*
X148381786Y-67319213D01*
X148238525Y-67275756D01*
X148126872Y-67264759D01*
X148126861Y-67264759D01*
X148089539Y-67261083D01*
X148052217Y-67264759D01*
X144091685Y-67264759D01*
X144139745Y-67163859D01*
X144184396Y-67016650D01*
X144063075Y-66786760D01*
X142869920Y-66786760D01*
X142869920Y-66806760D01*
X142615920Y-66806760D01*
X142615920Y-66786760D01*
X140329920Y-66786760D01*
X140329920Y-66806760D01*
X140075920Y-66806760D01*
X140075920Y-66786760D01*
X140055920Y-66786760D01*
X140055920Y-66532760D01*
X140075920Y-66532760D01*
X140075920Y-66512760D01*
X140329920Y-66512760D01*
X140329920Y-66532760D01*
X142615920Y-66532760D01*
X142615920Y-64246760D01*
X142869920Y-64246760D01*
X142869920Y-66532760D01*
X144063075Y-66532760D01*
X144184396Y-66302870D01*
X144139745Y-66155661D01*
X144014561Y-65892840D01*
X143840508Y-65659491D01*
X143624275Y-65464582D01*
X143498665Y-65389760D01*
X143624275Y-65314938D01*
X143840508Y-65120029D01*
X144014561Y-64886680D01*
X144139745Y-64623859D01*
X144184396Y-64476650D01*
X144063075Y-64246760D01*
X142869920Y-64246760D01*
X142615920Y-64246760D01*
X142595920Y-64246760D01*
X142595920Y-63992760D01*
X142615920Y-63992760D01*
X142615920Y-61706760D01*
X142869920Y-61706760D01*
X142869920Y-63992760D01*
X144063075Y-63992760D01*
X144073239Y-63973500D01*
X156061040Y-63973500D01*
X156061040Y-64266020D01*
X156118108Y-64552918D01*
X156230050Y-64823171D01*
X156392565Y-65066392D01*
X156599408Y-65273235D01*
X156781574Y-65394955D01*
X156664685Y-65464582D01*
X156448452Y-65659491D01*
X156274399Y-65892840D01*
X156149215Y-66155661D01*
X156104564Y-66302870D01*
X156225885Y-66532760D01*
X157419040Y-66532760D01*
X157419040Y-66512760D01*
X157673040Y-66512760D01*
X157673040Y-66532760D01*
X159959040Y-66532760D01*
X159959040Y-64246760D01*
X159939040Y-64246760D01*
X159939040Y-63992760D01*
X159959040Y-63992760D01*
X159959040Y-61706760D01*
X157673040Y-61706760D01*
X157673040Y-61726760D01*
X157419040Y-61726760D01*
X157419040Y-61706760D01*
X156225885Y-61706760D01*
X156104564Y-61936650D01*
X156149215Y-62083859D01*
X156274399Y-62346680D01*
X156448452Y-62580029D01*
X156664685Y-62774938D01*
X156781574Y-62844565D01*
X156599408Y-62966285D01*
X156392565Y-63173128D01*
X156230050Y-63416349D01*
X156118108Y-63686602D01*
X156061040Y-63973500D01*
X144073239Y-63973500D01*
X144184396Y-63762870D01*
X144139745Y-63615661D01*
X144014561Y-63352840D01*
X143840508Y-63119491D01*
X143624275Y-62924582D01*
X143498665Y-62849760D01*
X143624275Y-62774938D01*
X143840508Y-62580029D01*
X144014561Y-62346680D01*
X144139745Y-62083859D01*
X144184396Y-61936650D01*
X144063075Y-61706760D01*
X142869920Y-61706760D01*
X142615920Y-61706760D01*
X140329920Y-61706760D01*
X140329920Y-61726760D01*
X140075920Y-61726760D01*
X140075920Y-61706760D01*
X140055920Y-61706760D01*
X140055920Y-61452760D01*
X140075920Y-61452760D01*
X140075920Y-61432760D01*
X140329920Y-61432760D01*
X140329920Y-61452760D01*
X142615920Y-61452760D01*
X142615920Y-59166760D01*
X142869920Y-59166760D01*
X142869920Y-61452760D01*
X144063075Y-61452760D01*
X144184396Y-61222870D01*
X144139745Y-61075661D01*
X144014561Y-60812840D01*
X143840508Y-60579491D01*
X143624275Y-60384582D01*
X143498665Y-60309760D01*
X143624275Y-60234938D01*
X143840508Y-60040029D01*
X144014561Y-59806680D01*
X144139745Y-59543859D01*
X144184396Y-59396650D01*
X144063075Y-59166760D01*
X142869920Y-59166760D01*
X142615920Y-59166760D01*
X142595920Y-59166760D01*
X142595920Y-58912760D01*
X142615920Y-58912760D01*
X142615920Y-56626760D01*
X142869920Y-56626760D01*
X142869920Y-58912760D01*
X144063075Y-58912760D01*
X144184396Y-58682870D01*
X144139745Y-58535661D01*
X144014561Y-58272840D01*
X143840508Y-58039491D01*
X143624275Y-57844582D01*
X143498665Y-57769760D01*
X143624275Y-57694938D01*
X143840508Y-57500029D01*
X144014561Y-57266680D01*
X144139745Y-57003859D01*
X144184396Y-56856650D01*
X144063075Y-56626760D01*
X142869920Y-56626760D01*
X142615920Y-56626760D01*
X142595920Y-56626760D01*
X142595920Y-56372760D01*
X142615920Y-56372760D01*
X142615920Y-54086760D01*
X142869920Y-54086760D01*
X142869920Y-56372760D01*
X144063075Y-56372760D01*
X144184396Y-56142870D01*
X144139745Y-55995661D01*
X144014561Y-55732840D01*
X143840508Y-55499491D01*
X143624275Y-55304582D01*
X143498665Y-55229760D01*
X143624275Y-55154938D01*
X143840508Y-54960029D01*
X144014561Y-54726680D01*
X144139745Y-54463859D01*
X144184396Y-54316650D01*
X144063075Y-54086760D01*
X142869920Y-54086760D01*
X142615920Y-54086760D01*
X142595920Y-54086760D01*
X142595920Y-53832760D01*
X142615920Y-53832760D01*
X142615920Y-51546760D01*
X142869920Y-51546760D01*
X142869920Y-53832760D01*
X144063075Y-53832760D01*
X144073239Y-53813500D01*
X156061040Y-53813500D01*
X156061040Y-54106020D01*
X156118108Y-54392918D01*
X156230050Y-54663171D01*
X156392565Y-54906392D01*
X156599408Y-55113235D01*
X156773800Y-55229760D01*
X156599408Y-55346285D01*
X156392565Y-55553128D01*
X156230050Y-55796349D01*
X156118108Y-56066602D01*
X156061040Y-56353500D01*
X156061040Y-56646020D01*
X156118108Y-56932918D01*
X156230050Y-57203171D01*
X156392565Y-57446392D01*
X156599408Y-57653235D01*
X156773800Y-57769760D01*
X156599408Y-57886285D01*
X156392565Y-58093128D01*
X156230050Y-58336349D01*
X156118108Y-58606602D01*
X156061040Y-58893500D01*
X156061040Y-59186020D01*
X156118108Y-59472918D01*
X156230050Y-59743171D01*
X156392565Y-59986392D01*
X156599408Y-60193235D01*
X156781574Y-60314955D01*
X156664685Y-60384582D01*
X156448452Y-60579491D01*
X156274399Y-60812840D01*
X156149215Y-61075661D01*
X156104564Y-61222870D01*
X156225885Y-61452760D01*
X157419040Y-61452760D01*
X157419040Y-61432760D01*
X157673040Y-61432760D01*
X157673040Y-61452760D01*
X159959040Y-61452760D01*
X159959040Y-59166760D01*
X159939040Y-59166760D01*
X159939040Y-58912760D01*
X159959040Y-58912760D01*
X159959040Y-56626760D01*
X159939040Y-56626760D01*
X159939040Y-56372760D01*
X159959040Y-56372760D01*
X159959040Y-54086760D01*
X159939040Y-54086760D01*
X159939040Y-53832760D01*
X159959040Y-53832760D01*
X159959040Y-51546760D01*
X157673040Y-51546760D01*
X157673040Y-51566760D01*
X157419040Y-51566760D01*
X157419040Y-51546760D01*
X156225885Y-51546760D01*
X156104564Y-51776650D01*
X156149215Y-51923859D01*
X156274399Y-52186680D01*
X156448452Y-52420029D01*
X156664685Y-52614938D01*
X156781574Y-52684565D01*
X156599408Y-52806285D01*
X156392565Y-53013128D01*
X156230050Y-53256349D01*
X156118108Y-53526602D01*
X156061040Y-53813500D01*
X144073239Y-53813500D01*
X144184396Y-53602870D01*
X144139745Y-53455661D01*
X144014561Y-53192840D01*
X143840508Y-52959491D01*
X143624275Y-52764582D01*
X143498665Y-52689760D01*
X143624275Y-52614938D01*
X143840508Y-52420029D01*
X144014561Y-52186680D01*
X144139745Y-51923859D01*
X144184396Y-51776650D01*
X144063075Y-51546760D01*
X142869920Y-51546760D01*
X142615920Y-51546760D01*
X140329920Y-51546760D01*
X140329920Y-51566760D01*
X140075920Y-51566760D01*
X140075920Y-51546760D01*
X140055920Y-51546760D01*
X140055920Y-51292760D01*
X140075920Y-51292760D01*
X140075920Y-51272760D01*
X140329920Y-51272760D01*
X140329920Y-51292760D01*
X142615920Y-51292760D01*
X142615920Y-49006760D01*
X142869920Y-49006760D01*
X142869920Y-51292760D01*
X144063075Y-51292760D01*
X144184396Y-51062870D01*
X144139745Y-50915661D01*
X144014561Y-50652840D01*
X143840508Y-50419491D01*
X143624275Y-50224582D01*
X143498665Y-50149760D01*
X143624275Y-50074938D01*
X143840508Y-49880029D01*
X144014561Y-49646680D01*
X144139745Y-49383859D01*
X144184396Y-49236650D01*
X144063075Y-49006760D01*
X142869920Y-49006760D01*
X142615920Y-49006760D01*
X142595920Y-49006760D01*
X142595920Y-48752760D01*
X142615920Y-48752760D01*
X142615920Y-46466760D01*
X142869920Y-46466760D01*
X142869920Y-48752760D01*
X144063075Y-48752760D01*
X144184396Y-48522870D01*
X144139745Y-48375661D01*
X144014561Y-48112840D01*
X143840508Y-47879491D01*
X143624275Y-47684582D01*
X143498665Y-47609760D01*
X143624275Y-47534938D01*
X143840508Y-47340029D01*
X144014561Y-47106680D01*
X144139745Y-46843859D01*
X144184396Y-46696650D01*
X144063075Y-46466760D01*
X142869920Y-46466760D01*
X142615920Y-46466760D01*
X142595920Y-46466760D01*
X142595920Y-46212760D01*
X142615920Y-46212760D01*
X142615920Y-43926760D01*
X142869920Y-43926760D01*
X142869920Y-46212760D01*
X144063075Y-46212760D01*
X144184396Y-45982870D01*
X144139745Y-45835661D01*
X144014561Y-45572840D01*
X143840508Y-45339491D01*
X143624275Y-45144582D01*
X143498665Y-45069760D01*
X143624275Y-44994938D01*
X143840508Y-44800029D01*
X144014561Y-44566680D01*
X144139745Y-44303859D01*
X144184396Y-44156650D01*
X144063075Y-43926760D01*
X142869920Y-43926760D01*
X142615920Y-43926760D01*
X142595920Y-43926760D01*
X142595920Y-43672760D01*
X142615920Y-43672760D01*
X142615920Y-41386760D01*
X142869920Y-41386760D01*
X142869920Y-43672760D01*
X144063075Y-43672760D01*
X144184396Y-43442870D01*
X144139745Y-43295661D01*
X144014561Y-43032840D01*
X143840508Y-42799491D01*
X143624275Y-42604582D01*
X143498665Y-42529760D01*
X143624275Y-42454938D01*
X143840508Y-42260029D01*
X144014561Y-42026680D01*
X144139745Y-41763859D01*
X144184396Y-41616650D01*
X144063075Y-41386760D01*
X142869920Y-41386760D01*
X142615920Y-41386760D01*
X142595920Y-41386760D01*
X142595920Y-41132760D01*
X142615920Y-41132760D01*
X142615920Y-41112760D01*
X142869920Y-41112760D01*
X142869920Y-41132760D01*
X144063075Y-41132760D01*
X144184396Y-40902870D01*
X144139745Y-40755661D01*
X144014561Y-40492840D01*
X143977127Y-40442653D01*
X156304183Y-40445401D01*
G37*
%TD.AperFunction*%
%TD*%
M02*
